%TF.GenerationSoftware,KiCad,Pcbnew,8.0.3*%
%TF.CreationDate,2024-06-22T21:39:14+05:00*%
%TF.ProjectId,Capibator_PCB,43617069-6261-4746-9f72-5f5043422e6b,1.1*%
%TF.SameCoordinates,Original*%
%TF.FileFunction,Legend,Top*%
%TF.FilePolarity,Positive*%
%FSLAX46Y46*%
G04 Gerber Fmt 4.6, Leading zero omitted, Abs format (unit mm)*
G04 Created by KiCad (PCBNEW 8.0.3) date 2024-06-22 21:39:14*
%MOMM*%
%LPD*%
G01*
G04 APERTURE LIST*
%ADD10C,0.150000*%
%ADD11C,0.125000*%
%ADD12C,0.078740*%
%ADD13C,0.127000*%
%ADD14C,0.400000*%
%ADD15C,0.120000*%
%ADD16C,0.152400*%
%ADD17C,0.200000*%
G04 APERTURE END LIST*
D10*
X194589474Y-83448230D02*
X195303793Y-83448230D01*
X195303793Y-83448230D02*
X195446657Y-83495852D01*
X195446657Y-83495852D02*
X195541900Y-83591094D01*
X195541900Y-83591094D02*
X195589521Y-83733958D01*
X195589521Y-83733958D02*
X195589521Y-83829201D01*
X194589474Y-82495804D02*
X194589474Y-82972017D01*
X194589474Y-82972017D02*
X195065687Y-83019638D01*
X195065687Y-83019638D02*
X195018065Y-82972017D01*
X195018065Y-82972017D02*
X194970444Y-82876775D01*
X194970444Y-82876775D02*
X194970444Y-82638668D01*
X194970444Y-82638668D02*
X195018065Y-82543426D01*
X195018065Y-82543426D02*
X195065687Y-82495804D01*
X195065687Y-82495804D02*
X195160929Y-82448183D01*
X195160929Y-82448183D02*
X195399036Y-82448183D01*
X195399036Y-82448183D02*
X195494278Y-82495804D01*
X195494278Y-82495804D02*
X195541900Y-82543426D01*
X195541900Y-82543426D02*
X195589521Y-82638668D01*
X195589521Y-82638668D02*
X195589521Y-82876775D01*
X195589521Y-82876775D02*
X195541900Y-82972017D01*
X195541900Y-82972017D02*
X195494278Y-83019638D01*
X151818095Y-109734819D02*
X151818095Y-110544342D01*
X151818095Y-110544342D02*
X151865714Y-110639580D01*
X151865714Y-110639580D02*
X151913333Y-110687200D01*
X151913333Y-110687200D02*
X152008571Y-110734819D01*
X152008571Y-110734819D02*
X152199047Y-110734819D01*
X152199047Y-110734819D02*
X152294285Y-110687200D01*
X152294285Y-110687200D02*
X152341904Y-110639580D01*
X152341904Y-110639580D02*
X152389523Y-110544342D01*
X152389523Y-110544342D02*
X152389523Y-109734819D01*
X152818095Y-109830057D02*
X152865714Y-109782438D01*
X152865714Y-109782438D02*
X152960952Y-109734819D01*
X152960952Y-109734819D02*
X153199047Y-109734819D01*
X153199047Y-109734819D02*
X153294285Y-109782438D01*
X153294285Y-109782438D02*
X153341904Y-109830057D01*
X153341904Y-109830057D02*
X153389523Y-109925295D01*
X153389523Y-109925295D02*
X153389523Y-110020533D01*
X153389523Y-110020533D02*
X153341904Y-110163390D01*
X153341904Y-110163390D02*
X152770476Y-110734819D01*
X152770476Y-110734819D02*
X153389523Y-110734819D01*
X178176666Y-125374819D02*
X178176666Y-126089104D01*
X178176666Y-126089104D02*
X178129047Y-126231961D01*
X178129047Y-126231961D02*
X178033809Y-126327200D01*
X178033809Y-126327200D02*
X177890952Y-126374819D01*
X177890952Y-126374819D02*
X177795714Y-126374819D01*
X178605238Y-125470057D02*
X178652857Y-125422438D01*
X178652857Y-125422438D02*
X178748095Y-125374819D01*
X178748095Y-125374819D02*
X178986190Y-125374819D01*
X178986190Y-125374819D02*
X179081428Y-125422438D01*
X179081428Y-125422438D02*
X179129047Y-125470057D01*
X179129047Y-125470057D02*
X179176666Y-125565295D01*
X179176666Y-125565295D02*
X179176666Y-125660533D01*
X179176666Y-125660533D02*
X179129047Y-125803390D01*
X179129047Y-125803390D02*
X178557619Y-126374819D01*
X178557619Y-126374819D02*
X179176666Y-126374819D01*
X135117200Y-78553332D02*
X135164819Y-78410475D01*
X135164819Y-78410475D02*
X135164819Y-78172380D01*
X135164819Y-78172380D02*
X135117200Y-78077142D01*
X135117200Y-78077142D02*
X135069580Y-78029523D01*
X135069580Y-78029523D02*
X134974342Y-77981904D01*
X134974342Y-77981904D02*
X134879104Y-77981904D01*
X134879104Y-77981904D02*
X134783866Y-78029523D01*
X134783866Y-78029523D02*
X134736247Y-78077142D01*
X134736247Y-78077142D02*
X134688628Y-78172380D01*
X134688628Y-78172380D02*
X134641009Y-78362856D01*
X134641009Y-78362856D02*
X134593390Y-78458094D01*
X134593390Y-78458094D02*
X134545771Y-78505713D01*
X134545771Y-78505713D02*
X134450533Y-78553332D01*
X134450533Y-78553332D02*
X134355295Y-78553332D01*
X134355295Y-78553332D02*
X134260057Y-78505713D01*
X134260057Y-78505713D02*
X134212438Y-78458094D01*
X134212438Y-78458094D02*
X134164819Y-78362856D01*
X134164819Y-78362856D02*
X134164819Y-78124761D01*
X134164819Y-78124761D02*
X134212438Y-77981904D01*
X134164819Y-77648570D02*
X135164819Y-77410475D01*
X135164819Y-77410475D02*
X134450533Y-77219999D01*
X134450533Y-77219999D02*
X135164819Y-77029523D01*
X135164819Y-77029523D02*
X134164819Y-76791428D01*
X134260057Y-76458094D02*
X134212438Y-76410475D01*
X134212438Y-76410475D02*
X134164819Y-76315237D01*
X134164819Y-76315237D02*
X134164819Y-76077142D01*
X134164819Y-76077142D02*
X134212438Y-75981904D01*
X134212438Y-75981904D02*
X134260057Y-75934285D01*
X134260057Y-75934285D02*
X134355295Y-75886666D01*
X134355295Y-75886666D02*
X134450533Y-75886666D01*
X134450533Y-75886666D02*
X134593390Y-75934285D01*
X134593390Y-75934285D02*
X135164819Y-76505713D01*
X135164819Y-76505713D02*
X135164819Y-75886666D01*
X184449580Y-108962857D02*
X184497200Y-109010476D01*
X184497200Y-109010476D02*
X184544819Y-109153333D01*
X184544819Y-109153333D02*
X184544819Y-109248571D01*
X184544819Y-109248571D02*
X184497200Y-109391428D01*
X184497200Y-109391428D02*
X184401961Y-109486666D01*
X184401961Y-109486666D02*
X184306723Y-109534285D01*
X184306723Y-109534285D02*
X184116247Y-109581904D01*
X184116247Y-109581904D02*
X183973390Y-109581904D01*
X183973390Y-109581904D02*
X183782914Y-109534285D01*
X183782914Y-109534285D02*
X183687676Y-109486666D01*
X183687676Y-109486666D02*
X183592438Y-109391428D01*
X183592438Y-109391428D02*
X183544819Y-109248571D01*
X183544819Y-109248571D02*
X183544819Y-109153333D01*
X183544819Y-109153333D02*
X183592438Y-109010476D01*
X183592438Y-109010476D02*
X183640057Y-108962857D01*
X184544819Y-108010476D02*
X184544819Y-108581904D01*
X184544819Y-108296190D02*
X183544819Y-108296190D01*
X183544819Y-108296190D02*
X183687676Y-108391428D01*
X183687676Y-108391428D02*
X183782914Y-108486666D01*
X183782914Y-108486666D02*
X183830533Y-108581904D01*
X183544819Y-107677142D02*
X183544819Y-107058095D01*
X183544819Y-107058095D02*
X183925771Y-107391428D01*
X183925771Y-107391428D02*
X183925771Y-107248571D01*
X183925771Y-107248571D02*
X183973390Y-107153333D01*
X183973390Y-107153333D02*
X184021009Y-107105714D01*
X184021009Y-107105714D02*
X184116247Y-107058095D01*
X184116247Y-107058095D02*
X184354342Y-107058095D01*
X184354342Y-107058095D02*
X184449580Y-107105714D01*
X184449580Y-107105714D02*
X184497200Y-107153333D01*
X184497200Y-107153333D02*
X184544819Y-107248571D01*
X184544819Y-107248571D02*
X184544819Y-107534285D01*
X184544819Y-107534285D02*
X184497200Y-107629523D01*
X184497200Y-107629523D02*
X184449580Y-107677142D01*
X171714819Y-118900357D02*
X171238628Y-119233690D01*
X171714819Y-119471785D02*
X170714819Y-119471785D01*
X170714819Y-119471785D02*
X170714819Y-119090833D01*
X170714819Y-119090833D02*
X170762438Y-118995595D01*
X170762438Y-118995595D02*
X170810057Y-118947976D01*
X170810057Y-118947976D02*
X170905295Y-118900357D01*
X170905295Y-118900357D02*
X171048152Y-118900357D01*
X171048152Y-118900357D02*
X171143390Y-118947976D01*
X171143390Y-118947976D02*
X171191009Y-118995595D01*
X171191009Y-118995595D02*
X171238628Y-119090833D01*
X171238628Y-119090833D02*
X171238628Y-119471785D01*
X170714819Y-118567023D02*
X170714819Y-117947976D01*
X170714819Y-117947976D02*
X171095771Y-118281309D01*
X171095771Y-118281309D02*
X171095771Y-118138452D01*
X171095771Y-118138452D02*
X171143390Y-118043214D01*
X171143390Y-118043214D02*
X171191009Y-117995595D01*
X171191009Y-117995595D02*
X171286247Y-117947976D01*
X171286247Y-117947976D02*
X171524342Y-117947976D01*
X171524342Y-117947976D02*
X171619580Y-117995595D01*
X171619580Y-117995595D02*
X171667200Y-118043214D01*
X171667200Y-118043214D02*
X171714819Y-118138452D01*
X171714819Y-118138452D02*
X171714819Y-118424166D01*
X171714819Y-118424166D02*
X171667200Y-118519404D01*
X171667200Y-118519404D02*
X171619580Y-118567023D01*
X171143390Y-117376547D02*
X171095771Y-117471785D01*
X171095771Y-117471785D02*
X171048152Y-117519404D01*
X171048152Y-117519404D02*
X170952914Y-117567023D01*
X170952914Y-117567023D02*
X170905295Y-117567023D01*
X170905295Y-117567023D02*
X170810057Y-117519404D01*
X170810057Y-117519404D02*
X170762438Y-117471785D01*
X170762438Y-117471785D02*
X170714819Y-117376547D01*
X170714819Y-117376547D02*
X170714819Y-117186071D01*
X170714819Y-117186071D02*
X170762438Y-117090833D01*
X170762438Y-117090833D02*
X170810057Y-117043214D01*
X170810057Y-117043214D02*
X170905295Y-116995595D01*
X170905295Y-116995595D02*
X170952914Y-116995595D01*
X170952914Y-116995595D02*
X171048152Y-117043214D01*
X171048152Y-117043214D02*
X171095771Y-117090833D01*
X171095771Y-117090833D02*
X171143390Y-117186071D01*
X171143390Y-117186071D02*
X171143390Y-117376547D01*
X171143390Y-117376547D02*
X171191009Y-117471785D01*
X171191009Y-117471785D02*
X171238628Y-117519404D01*
X171238628Y-117519404D02*
X171333866Y-117567023D01*
X171333866Y-117567023D02*
X171524342Y-117567023D01*
X171524342Y-117567023D02*
X171619580Y-117519404D01*
X171619580Y-117519404D02*
X171667200Y-117471785D01*
X171667200Y-117471785D02*
X171714819Y-117376547D01*
X171714819Y-117376547D02*
X171714819Y-117186071D01*
X171714819Y-117186071D02*
X171667200Y-117090833D01*
X171667200Y-117090833D02*
X171619580Y-117043214D01*
X171619580Y-117043214D02*
X171524342Y-116995595D01*
X171524342Y-116995595D02*
X171333866Y-116995595D01*
X171333866Y-116995595D02*
X171238628Y-117043214D01*
X171238628Y-117043214D02*
X171191009Y-117090833D01*
X171191009Y-117090833D02*
X171143390Y-117186071D01*
X177614819Y-119058094D02*
X176614819Y-119058094D01*
X176614819Y-119058094D02*
X176614819Y-118819999D01*
X176614819Y-118819999D02*
X176662438Y-118677142D01*
X176662438Y-118677142D02*
X176757676Y-118581904D01*
X176757676Y-118581904D02*
X176852914Y-118534285D01*
X176852914Y-118534285D02*
X177043390Y-118486666D01*
X177043390Y-118486666D02*
X177186247Y-118486666D01*
X177186247Y-118486666D02*
X177376723Y-118534285D01*
X177376723Y-118534285D02*
X177471961Y-118581904D01*
X177471961Y-118581904D02*
X177567200Y-118677142D01*
X177567200Y-118677142D02*
X177614819Y-118819999D01*
X177614819Y-118819999D02*
X177614819Y-119058094D01*
X176710057Y-118105713D02*
X176662438Y-118058094D01*
X176662438Y-118058094D02*
X176614819Y-117962856D01*
X176614819Y-117962856D02*
X176614819Y-117724761D01*
X176614819Y-117724761D02*
X176662438Y-117629523D01*
X176662438Y-117629523D02*
X176710057Y-117581904D01*
X176710057Y-117581904D02*
X176805295Y-117534285D01*
X176805295Y-117534285D02*
X176900533Y-117534285D01*
X176900533Y-117534285D02*
X177043390Y-117581904D01*
X177043390Y-117581904D02*
X177614819Y-118153332D01*
X177614819Y-118153332D02*
X177614819Y-117534285D01*
X182567142Y-99624819D02*
X182233809Y-99148628D01*
X181995714Y-99624819D02*
X181995714Y-98624819D01*
X181995714Y-98624819D02*
X182376666Y-98624819D01*
X182376666Y-98624819D02*
X182471904Y-98672438D01*
X182471904Y-98672438D02*
X182519523Y-98720057D01*
X182519523Y-98720057D02*
X182567142Y-98815295D01*
X182567142Y-98815295D02*
X182567142Y-98958152D01*
X182567142Y-98958152D02*
X182519523Y-99053390D01*
X182519523Y-99053390D02*
X182471904Y-99101009D01*
X182471904Y-99101009D02*
X182376666Y-99148628D01*
X182376666Y-99148628D02*
X181995714Y-99148628D01*
X182900476Y-98624819D02*
X183519523Y-98624819D01*
X183519523Y-98624819D02*
X183186190Y-99005771D01*
X183186190Y-99005771D02*
X183329047Y-99005771D01*
X183329047Y-99005771D02*
X183424285Y-99053390D01*
X183424285Y-99053390D02*
X183471904Y-99101009D01*
X183471904Y-99101009D02*
X183519523Y-99196247D01*
X183519523Y-99196247D02*
X183519523Y-99434342D01*
X183519523Y-99434342D02*
X183471904Y-99529580D01*
X183471904Y-99529580D02*
X183424285Y-99577200D01*
X183424285Y-99577200D02*
X183329047Y-99624819D01*
X183329047Y-99624819D02*
X183043333Y-99624819D01*
X183043333Y-99624819D02*
X182948095Y-99577200D01*
X182948095Y-99577200D02*
X182900476Y-99529580D01*
X183900476Y-98720057D02*
X183948095Y-98672438D01*
X183948095Y-98672438D02*
X184043333Y-98624819D01*
X184043333Y-98624819D02*
X184281428Y-98624819D01*
X184281428Y-98624819D02*
X184376666Y-98672438D01*
X184376666Y-98672438D02*
X184424285Y-98720057D01*
X184424285Y-98720057D02*
X184471904Y-98815295D01*
X184471904Y-98815295D02*
X184471904Y-98910533D01*
X184471904Y-98910533D02*
X184424285Y-99053390D01*
X184424285Y-99053390D02*
X183852857Y-99624819D01*
X183852857Y-99624819D02*
X184471904Y-99624819D01*
X176800476Y-78874819D02*
X176800476Y-79589104D01*
X176800476Y-79589104D02*
X176752857Y-79731961D01*
X176752857Y-79731961D02*
X176657619Y-79827200D01*
X176657619Y-79827200D02*
X176514762Y-79874819D01*
X176514762Y-79874819D02*
X176419524Y-79874819D01*
X177800476Y-79874819D02*
X177229048Y-79874819D01*
X177514762Y-79874819D02*
X177514762Y-78874819D01*
X177514762Y-78874819D02*
X177419524Y-79017676D01*
X177419524Y-79017676D02*
X177324286Y-79112914D01*
X177324286Y-79112914D02*
X177229048Y-79160533D01*
X178181429Y-78970057D02*
X178229048Y-78922438D01*
X178229048Y-78922438D02*
X178324286Y-78874819D01*
X178324286Y-78874819D02*
X178562381Y-78874819D01*
X178562381Y-78874819D02*
X178657619Y-78922438D01*
X178657619Y-78922438D02*
X178705238Y-78970057D01*
X178705238Y-78970057D02*
X178752857Y-79065295D01*
X178752857Y-79065295D02*
X178752857Y-79160533D01*
X178752857Y-79160533D02*
X178705238Y-79303390D01*
X178705238Y-79303390D02*
X178133810Y-79874819D01*
X178133810Y-79874819D02*
X178752857Y-79874819D01*
X171464819Y-112278333D02*
X172179104Y-112278333D01*
X172179104Y-112278333D02*
X172321961Y-112325952D01*
X172321961Y-112325952D02*
X172417200Y-112421190D01*
X172417200Y-112421190D02*
X172464819Y-112564047D01*
X172464819Y-112564047D02*
X172464819Y-112659285D01*
X172464819Y-111802142D02*
X171464819Y-111802142D01*
X171464819Y-111802142D02*
X171464819Y-111421190D01*
X171464819Y-111421190D02*
X171512438Y-111325952D01*
X171512438Y-111325952D02*
X171560057Y-111278333D01*
X171560057Y-111278333D02*
X171655295Y-111230714D01*
X171655295Y-111230714D02*
X171798152Y-111230714D01*
X171798152Y-111230714D02*
X171893390Y-111278333D01*
X171893390Y-111278333D02*
X171941009Y-111325952D01*
X171941009Y-111325952D02*
X171988628Y-111421190D01*
X171988628Y-111421190D02*
X171988628Y-111802142D01*
X171560057Y-110849761D02*
X171512438Y-110802142D01*
X171512438Y-110802142D02*
X171464819Y-110706904D01*
X171464819Y-110706904D02*
X171464819Y-110468809D01*
X171464819Y-110468809D02*
X171512438Y-110373571D01*
X171512438Y-110373571D02*
X171560057Y-110325952D01*
X171560057Y-110325952D02*
X171655295Y-110278333D01*
X171655295Y-110278333D02*
X171750533Y-110278333D01*
X171750533Y-110278333D02*
X171893390Y-110325952D01*
X171893390Y-110325952D02*
X172464819Y-110897380D01*
X172464819Y-110897380D02*
X172464819Y-110278333D01*
X185576666Y-78784819D02*
X185576666Y-79499104D01*
X185576666Y-79499104D02*
X185529047Y-79641961D01*
X185529047Y-79641961D02*
X185433809Y-79737200D01*
X185433809Y-79737200D02*
X185290952Y-79784819D01*
X185290952Y-79784819D02*
X185195714Y-79784819D01*
X186100476Y-79784819D02*
X186290952Y-79784819D01*
X186290952Y-79784819D02*
X186386190Y-79737200D01*
X186386190Y-79737200D02*
X186433809Y-79689580D01*
X186433809Y-79689580D02*
X186529047Y-79546723D01*
X186529047Y-79546723D02*
X186576666Y-79356247D01*
X186576666Y-79356247D02*
X186576666Y-78975295D01*
X186576666Y-78975295D02*
X186529047Y-78880057D01*
X186529047Y-78880057D02*
X186481428Y-78832438D01*
X186481428Y-78832438D02*
X186386190Y-78784819D01*
X186386190Y-78784819D02*
X186195714Y-78784819D01*
X186195714Y-78784819D02*
X186100476Y-78832438D01*
X186100476Y-78832438D02*
X186052857Y-78880057D01*
X186052857Y-78880057D02*
X186005238Y-78975295D01*
X186005238Y-78975295D02*
X186005238Y-79213390D01*
X186005238Y-79213390D02*
X186052857Y-79308628D01*
X186052857Y-79308628D02*
X186100476Y-79356247D01*
X186100476Y-79356247D02*
X186195714Y-79403866D01*
X186195714Y-79403866D02*
X186386190Y-79403866D01*
X186386190Y-79403866D02*
X186481428Y-79356247D01*
X186481428Y-79356247D02*
X186529047Y-79308628D01*
X186529047Y-79308628D02*
X186576666Y-79213390D01*
X221954819Y-85888333D02*
X222669104Y-85888333D01*
X222669104Y-85888333D02*
X222811961Y-85935952D01*
X222811961Y-85935952D02*
X222907200Y-86031190D01*
X222907200Y-86031190D02*
X222954819Y-86174047D01*
X222954819Y-86174047D02*
X222954819Y-86269285D01*
X222288152Y-84983571D02*
X222954819Y-84983571D01*
X221907200Y-85221666D02*
X222621485Y-85459761D01*
X222621485Y-85459761D02*
X222621485Y-84840714D01*
X136543333Y-110499580D02*
X136495714Y-110547200D01*
X136495714Y-110547200D02*
X136352857Y-110594819D01*
X136352857Y-110594819D02*
X136257619Y-110594819D01*
X136257619Y-110594819D02*
X136114762Y-110547200D01*
X136114762Y-110547200D02*
X136019524Y-110451961D01*
X136019524Y-110451961D02*
X135971905Y-110356723D01*
X135971905Y-110356723D02*
X135924286Y-110166247D01*
X135924286Y-110166247D02*
X135924286Y-110023390D01*
X135924286Y-110023390D02*
X135971905Y-109832914D01*
X135971905Y-109832914D02*
X136019524Y-109737676D01*
X136019524Y-109737676D02*
X136114762Y-109642438D01*
X136114762Y-109642438D02*
X136257619Y-109594819D01*
X136257619Y-109594819D02*
X136352857Y-109594819D01*
X136352857Y-109594819D02*
X136495714Y-109642438D01*
X136495714Y-109642438D02*
X136543333Y-109690057D01*
X137448095Y-109594819D02*
X136971905Y-109594819D01*
X136971905Y-109594819D02*
X136924286Y-110071009D01*
X136924286Y-110071009D02*
X136971905Y-110023390D01*
X136971905Y-110023390D02*
X137067143Y-109975771D01*
X137067143Y-109975771D02*
X137305238Y-109975771D01*
X137305238Y-109975771D02*
X137400476Y-110023390D01*
X137400476Y-110023390D02*
X137448095Y-110071009D01*
X137448095Y-110071009D02*
X137495714Y-110166247D01*
X137495714Y-110166247D02*
X137495714Y-110404342D01*
X137495714Y-110404342D02*
X137448095Y-110499580D01*
X137448095Y-110499580D02*
X137400476Y-110547200D01*
X137400476Y-110547200D02*
X137305238Y-110594819D01*
X137305238Y-110594819D02*
X137067143Y-110594819D01*
X137067143Y-110594819D02*
X136971905Y-110547200D01*
X136971905Y-110547200D02*
X136924286Y-110499580D01*
X187949580Y-109986666D02*
X187997200Y-110034285D01*
X187997200Y-110034285D02*
X188044819Y-110177142D01*
X188044819Y-110177142D02*
X188044819Y-110272380D01*
X188044819Y-110272380D02*
X187997200Y-110415237D01*
X187997200Y-110415237D02*
X187901961Y-110510475D01*
X187901961Y-110510475D02*
X187806723Y-110558094D01*
X187806723Y-110558094D02*
X187616247Y-110605713D01*
X187616247Y-110605713D02*
X187473390Y-110605713D01*
X187473390Y-110605713D02*
X187282914Y-110558094D01*
X187282914Y-110558094D02*
X187187676Y-110510475D01*
X187187676Y-110510475D02*
X187092438Y-110415237D01*
X187092438Y-110415237D02*
X187044819Y-110272380D01*
X187044819Y-110272380D02*
X187044819Y-110177142D01*
X187044819Y-110177142D02*
X187092438Y-110034285D01*
X187092438Y-110034285D02*
X187140057Y-109986666D01*
X187140057Y-109605713D02*
X187092438Y-109558094D01*
X187092438Y-109558094D02*
X187044819Y-109462856D01*
X187044819Y-109462856D02*
X187044819Y-109224761D01*
X187044819Y-109224761D02*
X187092438Y-109129523D01*
X187092438Y-109129523D02*
X187140057Y-109081904D01*
X187140057Y-109081904D02*
X187235295Y-109034285D01*
X187235295Y-109034285D02*
X187330533Y-109034285D01*
X187330533Y-109034285D02*
X187473390Y-109081904D01*
X187473390Y-109081904D02*
X188044819Y-109653332D01*
X188044819Y-109653332D02*
X188044819Y-109034285D01*
X170114819Y-118900357D02*
X169638628Y-119233690D01*
X170114819Y-119471785D02*
X169114819Y-119471785D01*
X169114819Y-119471785D02*
X169114819Y-119090833D01*
X169114819Y-119090833D02*
X169162438Y-118995595D01*
X169162438Y-118995595D02*
X169210057Y-118947976D01*
X169210057Y-118947976D02*
X169305295Y-118900357D01*
X169305295Y-118900357D02*
X169448152Y-118900357D01*
X169448152Y-118900357D02*
X169543390Y-118947976D01*
X169543390Y-118947976D02*
X169591009Y-118995595D01*
X169591009Y-118995595D02*
X169638628Y-119090833D01*
X169638628Y-119090833D02*
X169638628Y-119471785D01*
X170114819Y-117947976D02*
X170114819Y-118519404D01*
X170114819Y-118233690D02*
X169114819Y-118233690D01*
X169114819Y-118233690D02*
X169257676Y-118328928D01*
X169257676Y-118328928D02*
X169352914Y-118424166D01*
X169352914Y-118424166D02*
X169400533Y-118519404D01*
X169448152Y-117090833D02*
X170114819Y-117090833D01*
X169067200Y-117328928D02*
X169781485Y-117567023D01*
X169781485Y-117567023D02*
X169781485Y-116947976D01*
X177014819Y-94262857D02*
X176538628Y-94596190D01*
X177014819Y-94834285D02*
X176014819Y-94834285D01*
X176014819Y-94834285D02*
X176014819Y-94453333D01*
X176014819Y-94453333D02*
X176062438Y-94358095D01*
X176062438Y-94358095D02*
X176110057Y-94310476D01*
X176110057Y-94310476D02*
X176205295Y-94262857D01*
X176205295Y-94262857D02*
X176348152Y-94262857D01*
X176348152Y-94262857D02*
X176443390Y-94310476D01*
X176443390Y-94310476D02*
X176491009Y-94358095D01*
X176491009Y-94358095D02*
X176538628Y-94453333D01*
X176538628Y-94453333D02*
X176538628Y-94834285D01*
X176110057Y-93881904D02*
X176062438Y-93834285D01*
X176062438Y-93834285D02*
X176014819Y-93739047D01*
X176014819Y-93739047D02*
X176014819Y-93500952D01*
X176014819Y-93500952D02*
X176062438Y-93405714D01*
X176062438Y-93405714D02*
X176110057Y-93358095D01*
X176110057Y-93358095D02*
X176205295Y-93310476D01*
X176205295Y-93310476D02*
X176300533Y-93310476D01*
X176300533Y-93310476D02*
X176443390Y-93358095D01*
X176443390Y-93358095D02*
X177014819Y-93929523D01*
X177014819Y-93929523D02*
X177014819Y-93310476D01*
X176110057Y-92929523D02*
X176062438Y-92881904D01*
X176062438Y-92881904D02*
X176014819Y-92786666D01*
X176014819Y-92786666D02*
X176014819Y-92548571D01*
X176014819Y-92548571D02*
X176062438Y-92453333D01*
X176062438Y-92453333D02*
X176110057Y-92405714D01*
X176110057Y-92405714D02*
X176205295Y-92358095D01*
X176205295Y-92358095D02*
X176300533Y-92358095D01*
X176300533Y-92358095D02*
X176443390Y-92405714D01*
X176443390Y-92405714D02*
X177014819Y-92977142D01*
X177014819Y-92977142D02*
X177014819Y-92358095D01*
X192661009Y-84953333D02*
X192661009Y-85286666D01*
X193184819Y-85286666D02*
X192184819Y-85286666D01*
X192184819Y-85286666D02*
X192184819Y-84810476D01*
X193184819Y-83905714D02*
X193184819Y-84477142D01*
X193184819Y-84191428D02*
X192184819Y-84191428D01*
X192184819Y-84191428D02*
X192327676Y-84286666D01*
X192327676Y-84286666D02*
X192422914Y-84381904D01*
X192422914Y-84381904D02*
X192470533Y-84477142D01*
X185414819Y-104486666D02*
X185414819Y-104962856D01*
X185414819Y-104962856D02*
X184414819Y-104962856D01*
X185414819Y-103629523D02*
X185414819Y-104200951D01*
X185414819Y-103915237D02*
X184414819Y-103915237D01*
X184414819Y-103915237D02*
X184557676Y-104010475D01*
X184557676Y-104010475D02*
X184652914Y-104105713D01*
X184652914Y-104105713D02*
X184700533Y-104200951D01*
X186667142Y-99624819D02*
X186333809Y-99148628D01*
X186095714Y-99624819D02*
X186095714Y-98624819D01*
X186095714Y-98624819D02*
X186476666Y-98624819D01*
X186476666Y-98624819D02*
X186571904Y-98672438D01*
X186571904Y-98672438D02*
X186619523Y-98720057D01*
X186619523Y-98720057D02*
X186667142Y-98815295D01*
X186667142Y-98815295D02*
X186667142Y-98958152D01*
X186667142Y-98958152D02*
X186619523Y-99053390D01*
X186619523Y-99053390D02*
X186571904Y-99101009D01*
X186571904Y-99101009D02*
X186476666Y-99148628D01*
X186476666Y-99148628D02*
X186095714Y-99148628D01*
X187000476Y-98624819D02*
X187619523Y-98624819D01*
X187619523Y-98624819D02*
X187286190Y-99005771D01*
X187286190Y-99005771D02*
X187429047Y-99005771D01*
X187429047Y-99005771D02*
X187524285Y-99053390D01*
X187524285Y-99053390D02*
X187571904Y-99101009D01*
X187571904Y-99101009D02*
X187619523Y-99196247D01*
X187619523Y-99196247D02*
X187619523Y-99434342D01*
X187619523Y-99434342D02*
X187571904Y-99529580D01*
X187571904Y-99529580D02*
X187524285Y-99577200D01*
X187524285Y-99577200D02*
X187429047Y-99624819D01*
X187429047Y-99624819D02*
X187143333Y-99624819D01*
X187143333Y-99624819D02*
X187048095Y-99577200D01*
X187048095Y-99577200D02*
X187000476Y-99529580D01*
X188571904Y-99624819D02*
X188000476Y-99624819D01*
X188286190Y-99624819D02*
X188286190Y-98624819D01*
X188286190Y-98624819D02*
X188190952Y-98767676D01*
X188190952Y-98767676D02*
X188095714Y-98862914D01*
X188095714Y-98862914D02*
X188000476Y-98910533D01*
X166814819Y-115195594D02*
X165814819Y-115195594D01*
X165814819Y-115195594D02*
X165814819Y-114957499D01*
X165814819Y-114957499D02*
X165862438Y-114814642D01*
X165862438Y-114814642D02*
X165957676Y-114719404D01*
X165957676Y-114719404D02*
X166052914Y-114671785D01*
X166052914Y-114671785D02*
X166243390Y-114624166D01*
X166243390Y-114624166D02*
X166386247Y-114624166D01*
X166386247Y-114624166D02*
X166576723Y-114671785D01*
X166576723Y-114671785D02*
X166671961Y-114719404D01*
X166671961Y-114719404D02*
X166767200Y-114814642D01*
X166767200Y-114814642D02*
X166814819Y-114957499D01*
X166814819Y-114957499D02*
X166814819Y-115195594D01*
X165814819Y-113719404D02*
X165814819Y-114195594D01*
X165814819Y-114195594D02*
X166291009Y-114243213D01*
X166291009Y-114243213D02*
X166243390Y-114195594D01*
X166243390Y-114195594D02*
X166195771Y-114100356D01*
X166195771Y-114100356D02*
X166195771Y-113862261D01*
X166195771Y-113862261D02*
X166243390Y-113767023D01*
X166243390Y-113767023D02*
X166291009Y-113719404D01*
X166291009Y-113719404D02*
X166386247Y-113671785D01*
X166386247Y-113671785D02*
X166624342Y-113671785D01*
X166624342Y-113671785D02*
X166719580Y-113719404D01*
X166719580Y-113719404D02*
X166767200Y-113767023D01*
X166767200Y-113767023D02*
X166814819Y-113862261D01*
X166814819Y-113862261D02*
X166814819Y-114100356D01*
X166814819Y-114100356D02*
X166767200Y-114195594D01*
X166767200Y-114195594D02*
X166719580Y-114243213D01*
X136543333Y-117159580D02*
X136495714Y-117207200D01*
X136495714Y-117207200D02*
X136352857Y-117254819D01*
X136352857Y-117254819D02*
X136257619Y-117254819D01*
X136257619Y-117254819D02*
X136114762Y-117207200D01*
X136114762Y-117207200D02*
X136019524Y-117111961D01*
X136019524Y-117111961D02*
X135971905Y-117016723D01*
X135971905Y-117016723D02*
X135924286Y-116826247D01*
X135924286Y-116826247D02*
X135924286Y-116683390D01*
X135924286Y-116683390D02*
X135971905Y-116492914D01*
X135971905Y-116492914D02*
X136019524Y-116397676D01*
X136019524Y-116397676D02*
X136114762Y-116302438D01*
X136114762Y-116302438D02*
X136257619Y-116254819D01*
X136257619Y-116254819D02*
X136352857Y-116254819D01*
X136352857Y-116254819D02*
X136495714Y-116302438D01*
X136495714Y-116302438D02*
X136543333Y-116350057D01*
X137400476Y-116254819D02*
X137210000Y-116254819D01*
X137210000Y-116254819D02*
X137114762Y-116302438D01*
X137114762Y-116302438D02*
X137067143Y-116350057D01*
X137067143Y-116350057D02*
X136971905Y-116492914D01*
X136971905Y-116492914D02*
X136924286Y-116683390D01*
X136924286Y-116683390D02*
X136924286Y-117064342D01*
X136924286Y-117064342D02*
X136971905Y-117159580D01*
X136971905Y-117159580D02*
X137019524Y-117207200D01*
X137019524Y-117207200D02*
X137114762Y-117254819D01*
X137114762Y-117254819D02*
X137305238Y-117254819D01*
X137305238Y-117254819D02*
X137400476Y-117207200D01*
X137400476Y-117207200D02*
X137448095Y-117159580D01*
X137448095Y-117159580D02*
X137495714Y-117064342D01*
X137495714Y-117064342D02*
X137495714Y-116826247D01*
X137495714Y-116826247D02*
X137448095Y-116731009D01*
X137448095Y-116731009D02*
X137400476Y-116683390D01*
X137400476Y-116683390D02*
X137305238Y-116635771D01*
X137305238Y-116635771D02*
X137114762Y-116635771D01*
X137114762Y-116635771D02*
X137019524Y-116683390D01*
X137019524Y-116683390D02*
X136971905Y-116731009D01*
X136971905Y-116731009D02*
X136924286Y-116826247D01*
X147117200Y-78653332D02*
X147164819Y-78510475D01*
X147164819Y-78510475D02*
X147164819Y-78272380D01*
X147164819Y-78272380D02*
X147117200Y-78177142D01*
X147117200Y-78177142D02*
X147069580Y-78129523D01*
X147069580Y-78129523D02*
X146974342Y-78081904D01*
X146974342Y-78081904D02*
X146879104Y-78081904D01*
X146879104Y-78081904D02*
X146783866Y-78129523D01*
X146783866Y-78129523D02*
X146736247Y-78177142D01*
X146736247Y-78177142D02*
X146688628Y-78272380D01*
X146688628Y-78272380D02*
X146641009Y-78462856D01*
X146641009Y-78462856D02*
X146593390Y-78558094D01*
X146593390Y-78558094D02*
X146545771Y-78605713D01*
X146545771Y-78605713D02*
X146450533Y-78653332D01*
X146450533Y-78653332D02*
X146355295Y-78653332D01*
X146355295Y-78653332D02*
X146260057Y-78605713D01*
X146260057Y-78605713D02*
X146212438Y-78558094D01*
X146212438Y-78558094D02*
X146164819Y-78462856D01*
X146164819Y-78462856D02*
X146164819Y-78224761D01*
X146164819Y-78224761D02*
X146212438Y-78081904D01*
X146164819Y-77748570D02*
X147164819Y-77510475D01*
X147164819Y-77510475D02*
X146450533Y-77319999D01*
X146450533Y-77319999D02*
X147164819Y-77129523D01*
X147164819Y-77129523D02*
X146164819Y-76891428D01*
X147164819Y-75986666D02*
X147164819Y-76558094D01*
X147164819Y-76272380D02*
X146164819Y-76272380D01*
X146164819Y-76272380D02*
X146307676Y-76367618D01*
X146307676Y-76367618D02*
X146402914Y-76462856D01*
X146402914Y-76462856D02*
X146450533Y-76558094D01*
X185910057Y-122852738D02*
X185862438Y-122947976D01*
X185862438Y-122947976D02*
X185767200Y-123043214D01*
X185767200Y-123043214D02*
X185624342Y-123186071D01*
X185624342Y-123186071D02*
X185576723Y-123281309D01*
X185576723Y-123281309D02*
X185576723Y-123376547D01*
X185814819Y-123328928D02*
X185767200Y-123424166D01*
X185767200Y-123424166D02*
X185671961Y-123519404D01*
X185671961Y-123519404D02*
X185481485Y-123567023D01*
X185481485Y-123567023D02*
X185148152Y-123567023D01*
X185148152Y-123567023D02*
X184957676Y-123519404D01*
X184957676Y-123519404D02*
X184862438Y-123424166D01*
X184862438Y-123424166D02*
X184814819Y-123328928D01*
X184814819Y-123328928D02*
X184814819Y-123138452D01*
X184814819Y-123138452D02*
X184862438Y-123043214D01*
X184862438Y-123043214D02*
X184957676Y-122947976D01*
X184957676Y-122947976D02*
X185148152Y-122900357D01*
X185148152Y-122900357D02*
X185481485Y-122900357D01*
X185481485Y-122900357D02*
X185671961Y-122947976D01*
X185671961Y-122947976D02*
X185767200Y-123043214D01*
X185767200Y-123043214D02*
X185814819Y-123138452D01*
X185814819Y-123138452D02*
X185814819Y-123328928D01*
X184814819Y-122567023D02*
X184814819Y-121947976D01*
X184814819Y-121947976D02*
X185195771Y-122281309D01*
X185195771Y-122281309D02*
X185195771Y-122138452D01*
X185195771Y-122138452D02*
X185243390Y-122043214D01*
X185243390Y-122043214D02*
X185291009Y-121995595D01*
X185291009Y-121995595D02*
X185386247Y-121947976D01*
X185386247Y-121947976D02*
X185624342Y-121947976D01*
X185624342Y-121947976D02*
X185719580Y-121995595D01*
X185719580Y-121995595D02*
X185767200Y-122043214D01*
X185767200Y-122043214D02*
X185814819Y-122138452D01*
X185814819Y-122138452D02*
X185814819Y-122424166D01*
X185814819Y-122424166D02*
X185767200Y-122519404D01*
X185767200Y-122519404D02*
X185719580Y-122567023D01*
X156076666Y-125374819D02*
X156076666Y-126089104D01*
X156076666Y-126089104D02*
X156029047Y-126231961D01*
X156029047Y-126231961D02*
X155933809Y-126327200D01*
X155933809Y-126327200D02*
X155790952Y-126374819D01*
X155790952Y-126374819D02*
X155695714Y-126374819D01*
X156695714Y-125803390D02*
X156600476Y-125755771D01*
X156600476Y-125755771D02*
X156552857Y-125708152D01*
X156552857Y-125708152D02*
X156505238Y-125612914D01*
X156505238Y-125612914D02*
X156505238Y-125565295D01*
X156505238Y-125565295D02*
X156552857Y-125470057D01*
X156552857Y-125470057D02*
X156600476Y-125422438D01*
X156600476Y-125422438D02*
X156695714Y-125374819D01*
X156695714Y-125374819D02*
X156886190Y-125374819D01*
X156886190Y-125374819D02*
X156981428Y-125422438D01*
X156981428Y-125422438D02*
X157029047Y-125470057D01*
X157029047Y-125470057D02*
X157076666Y-125565295D01*
X157076666Y-125565295D02*
X157076666Y-125612914D01*
X157076666Y-125612914D02*
X157029047Y-125708152D01*
X157029047Y-125708152D02*
X156981428Y-125755771D01*
X156981428Y-125755771D02*
X156886190Y-125803390D01*
X156886190Y-125803390D02*
X156695714Y-125803390D01*
X156695714Y-125803390D02*
X156600476Y-125851009D01*
X156600476Y-125851009D02*
X156552857Y-125898628D01*
X156552857Y-125898628D02*
X156505238Y-125993866D01*
X156505238Y-125993866D02*
X156505238Y-126184342D01*
X156505238Y-126184342D02*
X156552857Y-126279580D01*
X156552857Y-126279580D02*
X156600476Y-126327200D01*
X156600476Y-126327200D02*
X156695714Y-126374819D01*
X156695714Y-126374819D02*
X156886190Y-126374819D01*
X156886190Y-126374819D02*
X156981428Y-126327200D01*
X156981428Y-126327200D02*
X157029047Y-126279580D01*
X157029047Y-126279580D02*
X157076666Y-126184342D01*
X157076666Y-126184342D02*
X157076666Y-125993866D01*
X157076666Y-125993866D02*
X157029047Y-125898628D01*
X157029047Y-125898628D02*
X156981428Y-125851009D01*
X156981428Y-125851009D02*
X156886190Y-125803390D01*
X169214819Y-115195594D02*
X168214819Y-115195594D01*
X168214819Y-115195594D02*
X168214819Y-114957499D01*
X168214819Y-114957499D02*
X168262438Y-114814642D01*
X168262438Y-114814642D02*
X168357676Y-114719404D01*
X168357676Y-114719404D02*
X168452914Y-114671785D01*
X168452914Y-114671785D02*
X168643390Y-114624166D01*
X168643390Y-114624166D02*
X168786247Y-114624166D01*
X168786247Y-114624166D02*
X168976723Y-114671785D01*
X168976723Y-114671785D02*
X169071961Y-114719404D01*
X169071961Y-114719404D02*
X169167200Y-114814642D01*
X169167200Y-114814642D02*
X169214819Y-114957499D01*
X169214819Y-114957499D02*
X169214819Y-115195594D01*
X168214819Y-114290832D02*
X168214819Y-113624166D01*
X168214819Y-113624166D02*
X169214819Y-114052737D01*
X161814819Y-123062857D02*
X161338628Y-123396190D01*
X161814819Y-123634285D02*
X160814819Y-123634285D01*
X160814819Y-123634285D02*
X160814819Y-123253333D01*
X160814819Y-123253333D02*
X160862438Y-123158095D01*
X160862438Y-123158095D02*
X160910057Y-123110476D01*
X160910057Y-123110476D02*
X161005295Y-123062857D01*
X161005295Y-123062857D02*
X161148152Y-123062857D01*
X161148152Y-123062857D02*
X161243390Y-123110476D01*
X161243390Y-123110476D02*
X161291009Y-123158095D01*
X161291009Y-123158095D02*
X161338628Y-123253333D01*
X161338628Y-123253333D02*
X161338628Y-123634285D01*
X160814819Y-122729523D02*
X160814819Y-122110476D01*
X160814819Y-122110476D02*
X161195771Y-122443809D01*
X161195771Y-122443809D02*
X161195771Y-122300952D01*
X161195771Y-122300952D02*
X161243390Y-122205714D01*
X161243390Y-122205714D02*
X161291009Y-122158095D01*
X161291009Y-122158095D02*
X161386247Y-122110476D01*
X161386247Y-122110476D02*
X161624342Y-122110476D01*
X161624342Y-122110476D02*
X161719580Y-122158095D01*
X161719580Y-122158095D02*
X161767200Y-122205714D01*
X161767200Y-122205714D02*
X161814819Y-122300952D01*
X161814819Y-122300952D02*
X161814819Y-122586666D01*
X161814819Y-122586666D02*
X161767200Y-122681904D01*
X161767200Y-122681904D02*
X161719580Y-122729523D01*
X160814819Y-121253333D02*
X160814819Y-121443809D01*
X160814819Y-121443809D02*
X160862438Y-121539047D01*
X160862438Y-121539047D02*
X160910057Y-121586666D01*
X160910057Y-121586666D02*
X161052914Y-121681904D01*
X161052914Y-121681904D02*
X161243390Y-121729523D01*
X161243390Y-121729523D02*
X161624342Y-121729523D01*
X161624342Y-121729523D02*
X161719580Y-121681904D01*
X161719580Y-121681904D02*
X161767200Y-121634285D01*
X161767200Y-121634285D02*
X161814819Y-121539047D01*
X161814819Y-121539047D02*
X161814819Y-121348571D01*
X161814819Y-121348571D02*
X161767200Y-121253333D01*
X161767200Y-121253333D02*
X161719580Y-121205714D01*
X161719580Y-121205714D02*
X161624342Y-121158095D01*
X161624342Y-121158095D02*
X161386247Y-121158095D01*
X161386247Y-121158095D02*
X161291009Y-121205714D01*
X161291009Y-121205714D02*
X161243390Y-121253333D01*
X161243390Y-121253333D02*
X161195771Y-121348571D01*
X161195771Y-121348571D02*
X161195771Y-121539047D01*
X161195771Y-121539047D02*
X161243390Y-121634285D01*
X161243390Y-121634285D02*
X161291009Y-121681904D01*
X161291009Y-121681904D02*
X161386247Y-121729523D01*
X176760057Y-114452738D02*
X176712438Y-114547976D01*
X176712438Y-114547976D02*
X176617200Y-114643214D01*
X176617200Y-114643214D02*
X176474342Y-114786071D01*
X176474342Y-114786071D02*
X176426723Y-114881309D01*
X176426723Y-114881309D02*
X176426723Y-114976547D01*
X176664819Y-114928928D02*
X176617200Y-115024166D01*
X176617200Y-115024166D02*
X176521961Y-115119404D01*
X176521961Y-115119404D02*
X176331485Y-115167023D01*
X176331485Y-115167023D02*
X175998152Y-115167023D01*
X175998152Y-115167023D02*
X175807676Y-115119404D01*
X175807676Y-115119404D02*
X175712438Y-115024166D01*
X175712438Y-115024166D02*
X175664819Y-114928928D01*
X175664819Y-114928928D02*
X175664819Y-114738452D01*
X175664819Y-114738452D02*
X175712438Y-114643214D01*
X175712438Y-114643214D02*
X175807676Y-114547976D01*
X175807676Y-114547976D02*
X175998152Y-114500357D01*
X175998152Y-114500357D02*
X176331485Y-114500357D01*
X176331485Y-114500357D02*
X176521961Y-114547976D01*
X176521961Y-114547976D02*
X176617200Y-114643214D01*
X176617200Y-114643214D02*
X176664819Y-114738452D01*
X176664819Y-114738452D02*
X176664819Y-114928928D01*
X176093390Y-113928928D02*
X176045771Y-114024166D01*
X176045771Y-114024166D02*
X175998152Y-114071785D01*
X175998152Y-114071785D02*
X175902914Y-114119404D01*
X175902914Y-114119404D02*
X175855295Y-114119404D01*
X175855295Y-114119404D02*
X175760057Y-114071785D01*
X175760057Y-114071785D02*
X175712438Y-114024166D01*
X175712438Y-114024166D02*
X175664819Y-113928928D01*
X175664819Y-113928928D02*
X175664819Y-113738452D01*
X175664819Y-113738452D02*
X175712438Y-113643214D01*
X175712438Y-113643214D02*
X175760057Y-113595595D01*
X175760057Y-113595595D02*
X175855295Y-113547976D01*
X175855295Y-113547976D02*
X175902914Y-113547976D01*
X175902914Y-113547976D02*
X175998152Y-113595595D01*
X175998152Y-113595595D02*
X176045771Y-113643214D01*
X176045771Y-113643214D02*
X176093390Y-113738452D01*
X176093390Y-113738452D02*
X176093390Y-113928928D01*
X176093390Y-113928928D02*
X176141009Y-114024166D01*
X176141009Y-114024166D02*
X176188628Y-114071785D01*
X176188628Y-114071785D02*
X176283866Y-114119404D01*
X176283866Y-114119404D02*
X176474342Y-114119404D01*
X176474342Y-114119404D02*
X176569580Y-114071785D01*
X176569580Y-114071785D02*
X176617200Y-114024166D01*
X176617200Y-114024166D02*
X176664819Y-113928928D01*
X176664819Y-113928928D02*
X176664819Y-113738452D01*
X176664819Y-113738452D02*
X176617200Y-113643214D01*
X176617200Y-113643214D02*
X176569580Y-113595595D01*
X176569580Y-113595595D02*
X176474342Y-113547976D01*
X176474342Y-113547976D02*
X176283866Y-113547976D01*
X176283866Y-113547976D02*
X176188628Y-113595595D01*
X176188628Y-113595595D02*
X176141009Y-113643214D01*
X176141009Y-113643214D02*
X176093390Y-113738452D01*
X174019580Y-104862857D02*
X174067200Y-104910476D01*
X174067200Y-104910476D02*
X174114819Y-105053333D01*
X174114819Y-105053333D02*
X174114819Y-105148571D01*
X174114819Y-105148571D02*
X174067200Y-105291428D01*
X174067200Y-105291428D02*
X173971961Y-105386666D01*
X173971961Y-105386666D02*
X173876723Y-105434285D01*
X173876723Y-105434285D02*
X173686247Y-105481904D01*
X173686247Y-105481904D02*
X173543390Y-105481904D01*
X173543390Y-105481904D02*
X173352914Y-105434285D01*
X173352914Y-105434285D02*
X173257676Y-105386666D01*
X173257676Y-105386666D02*
X173162438Y-105291428D01*
X173162438Y-105291428D02*
X173114819Y-105148571D01*
X173114819Y-105148571D02*
X173114819Y-105053333D01*
X173114819Y-105053333D02*
X173162438Y-104910476D01*
X173162438Y-104910476D02*
X173210057Y-104862857D01*
X173210057Y-104481904D02*
X173162438Y-104434285D01*
X173162438Y-104434285D02*
X173114819Y-104339047D01*
X173114819Y-104339047D02*
X173114819Y-104100952D01*
X173114819Y-104100952D02*
X173162438Y-104005714D01*
X173162438Y-104005714D02*
X173210057Y-103958095D01*
X173210057Y-103958095D02*
X173305295Y-103910476D01*
X173305295Y-103910476D02*
X173400533Y-103910476D01*
X173400533Y-103910476D02*
X173543390Y-103958095D01*
X173543390Y-103958095D02*
X174114819Y-104529523D01*
X174114819Y-104529523D02*
X174114819Y-103910476D01*
X174114819Y-102958095D02*
X174114819Y-103529523D01*
X174114819Y-103243809D02*
X173114819Y-103243809D01*
X173114819Y-103243809D02*
X173257676Y-103339047D01*
X173257676Y-103339047D02*
X173352914Y-103434285D01*
X173352914Y-103434285D02*
X173400533Y-103529523D01*
X185071905Y-83624819D02*
X185071905Y-82624819D01*
X185071905Y-82624819D02*
X185310000Y-82624819D01*
X185310000Y-82624819D02*
X185452857Y-82672438D01*
X185452857Y-82672438D02*
X185548095Y-82767676D01*
X185548095Y-82767676D02*
X185595714Y-82862914D01*
X185595714Y-82862914D02*
X185643333Y-83053390D01*
X185643333Y-83053390D02*
X185643333Y-83196247D01*
X185643333Y-83196247D02*
X185595714Y-83386723D01*
X185595714Y-83386723D02*
X185548095Y-83481961D01*
X185548095Y-83481961D02*
X185452857Y-83577200D01*
X185452857Y-83577200D02*
X185310000Y-83624819D01*
X185310000Y-83624819D02*
X185071905Y-83624819D01*
X186500476Y-82624819D02*
X186310000Y-82624819D01*
X186310000Y-82624819D02*
X186214762Y-82672438D01*
X186214762Y-82672438D02*
X186167143Y-82720057D01*
X186167143Y-82720057D02*
X186071905Y-82862914D01*
X186071905Y-82862914D02*
X186024286Y-83053390D01*
X186024286Y-83053390D02*
X186024286Y-83434342D01*
X186024286Y-83434342D02*
X186071905Y-83529580D01*
X186071905Y-83529580D02*
X186119524Y-83577200D01*
X186119524Y-83577200D02*
X186214762Y-83624819D01*
X186214762Y-83624819D02*
X186405238Y-83624819D01*
X186405238Y-83624819D02*
X186500476Y-83577200D01*
X186500476Y-83577200D02*
X186548095Y-83529580D01*
X186548095Y-83529580D02*
X186595714Y-83434342D01*
X186595714Y-83434342D02*
X186595714Y-83196247D01*
X186595714Y-83196247D02*
X186548095Y-83101009D01*
X186548095Y-83101009D02*
X186500476Y-83053390D01*
X186500476Y-83053390D02*
X186405238Y-83005771D01*
X186405238Y-83005771D02*
X186214762Y-83005771D01*
X186214762Y-83005771D02*
X186119524Y-83053390D01*
X186119524Y-83053390D02*
X186071905Y-83101009D01*
X186071905Y-83101009D02*
X186024286Y-83196247D01*
X185548095Y-84074819D02*
X185548095Y-83074819D01*
X186119523Y-84074819D02*
X185690952Y-83503390D01*
X186119523Y-83074819D02*
X185548095Y-83646247D01*
X155967142Y-97999580D02*
X155919523Y-98047200D01*
X155919523Y-98047200D02*
X155776666Y-98094819D01*
X155776666Y-98094819D02*
X155681428Y-98094819D01*
X155681428Y-98094819D02*
X155538571Y-98047200D01*
X155538571Y-98047200D02*
X155443333Y-97951961D01*
X155443333Y-97951961D02*
X155395714Y-97856723D01*
X155395714Y-97856723D02*
X155348095Y-97666247D01*
X155348095Y-97666247D02*
X155348095Y-97523390D01*
X155348095Y-97523390D02*
X155395714Y-97332914D01*
X155395714Y-97332914D02*
X155443333Y-97237676D01*
X155443333Y-97237676D02*
X155538571Y-97142438D01*
X155538571Y-97142438D02*
X155681428Y-97094819D01*
X155681428Y-97094819D02*
X155776666Y-97094819D01*
X155776666Y-97094819D02*
X155919523Y-97142438D01*
X155919523Y-97142438D02*
X155967142Y-97190057D01*
X156919523Y-98094819D02*
X156348095Y-98094819D01*
X156633809Y-98094819D02*
X156633809Y-97094819D01*
X156633809Y-97094819D02*
X156538571Y-97237676D01*
X156538571Y-97237676D02*
X156443333Y-97332914D01*
X156443333Y-97332914D02*
X156348095Y-97380533D01*
X157538571Y-97094819D02*
X157633809Y-97094819D01*
X157633809Y-97094819D02*
X157729047Y-97142438D01*
X157729047Y-97142438D02*
X157776666Y-97190057D01*
X157776666Y-97190057D02*
X157824285Y-97285295D01*
X157824285Y-97285295D02*
X157871904Y-97475771D01*
X157871904Y-97475771D02*
X157871904Y-97713866D01*
X157871904Y-97713866D02*
X157824285Y-97904342D01*
X157824285Y-97904342D02*
X157776666Y-97999580D01*
X157776666Y-97999580D02*
X157729047Y-98047200D01*
X157729047Y-98047200D02*
X157633809Y-98094819D01*
X157633809Y-98094819D02*
X157538571Y-98094819D01*
X157538571Y-98094819D02*
X157443333Y-98047200D01*
X157443333Y-98047200D02*
X157395714Y-97999580D01*
X157395714Y-97999580D02*
X157348095Y-97904342D01*
X157348095Y-97904342D02*
X157300476Y-97713866D01*
X157300476Y-97713866D02*
X157300476Y-97475771D01*
X157300476Y-97475771D02*
X157348095Y-97285295D01*
X157348095Y-97285295D02*
X157395714Y-97190057D01*
X157395714Y-97190057D02*
X157443333Y-97142438D01*
X157443333Y-97142438D02*
X157538571Y-97094819D01*
X134494819Y-85453333D02*
X135209104Y-85453333D01*
X135209104Y-85453333D02*
X135351961Y-85500952D01*
X135351961Y-85500952D02*
X135447200Y-85596190D01*
X135447200Y-85596190D02*
X135494819Y-85739047D01*
X135494819Y-85739047D02*
X135494819Y-85834285D01*
X135494819Y-84453333D02*
X135494819Y-85024761D01*
X135494819Y-84739047D02*
X134494819Y-84739047D01*
X134494819Y-84739047D02*
X134637676Y-84834285D01*
X134637676Y-84834285D02*
X134732914Y-84929523D01*
X134732914Y-84929523D02*
X134780533Y-85024761D01*
X151114819Y-117762857D02*
X150638628Y-118096190D01*
X151114819Y-118334285D02*
X150114819Y-118334285D01*
X150114819Y-118334285D02*
X150114819Y-117953333D01*
X150114819Y-117953333D02*
X150162438Y-117858095D01*
X150162438Y-117858095D02*
X150210057Y-117810476D01*
X150210057Y-117810476D02*
X150305295Y-117762857D01*
X150305295Y-117762857D02*
X150448152Y-117762857D01*
X150448152Y-117762857D02*
X150543390Y-117810476D01*
X150543390Y-117810476D02*
X150591009Y-117858095D01*
X150591009Y-117858095D02*
X150638628Y-117953333D01*
X150638628Y-117953333D02*
X150638628Y-118334285D01*
X150448152Y-116905714D02*
X151114819Y-116905714D01*
X150067200Y-117143809D02*
X150781485Y-117381904D01*
X150781485Y-117381904D02*
X150781485Y-116762857D01*
X151114819Y-115858095D02*
X151114819Y-116429523D01*
X151114819Y-116143809D02*
X150114819Y-116143809D01*
X150114819Y-116143809D02*
X150257676Y-116239047D01*
X150257676Y-116239047D02*
X150352914Y-116334285D01*
X150352914Y-116334285D02*
X150400533Y-116429523D01*
X173814819Y-122786666D02*
X173338628Y-123119999D01*
X173814819Y-123358094D02*
X172814819Y-123358094D01*
X172814819Y-123358094D02*
X172814819Y-122977142D01*
X172814819Y-122977142D02*
X172862438Y-122881904D01*
X172862438Y-122881904D02*
X172910057Y-122834285D01*
X172910057Y-122834285D02*
X173005295Y-122786666D01*
X173005295Y-122786666D02*
X173148152Y-122786666D01*
X173148152Y-122786666D02*
X173243390Y-122834285D01*
X173243390Y-122834285D02*
X173291009Y-122881904D01*
X173291009Y-122881904D02*
X173338628Y-122977142D01*
X173338628Y-122977142D02*
X173338628Y-123358094D01*
X172814819Y-121929523D02*
X172814819Y-122119999D01*
X172814819Y-122119999D02*
X172862438Y-122215237D01*
X172862438Y-122215237D02*
X172910057Y-122262856D01*
X172910057Y-122262856D02*
X173052914Y-122358094D01*
X173052914Y-122358094D02*
X173243390Y-122405713D01*
X173243390Y-122405713D02*
X173624342Y-122405713D01*
X173624342Y-122405713D02*
X173719580Y-122358094D01*
X173719580Y-122358094D02*
X173767200Y-122310475D01*
X173767200Y-122310475D02*
X173814819Y-122215237D01*
X173814819Y-122215237D02*
X173814819Y-122024761D01*
X173814819Y-122024761D02*
X173767200Y-121929523D01*
X173767200Y-121929523D02*
X173719580Y-121881904D01*
X173719580Y-121881904D02*
X173624342Y-121834285D01*
X173624342Y-121834285D02*
X173386247Y-121834285D01*
X173386247Y-121834285D02*
X173291009Y-121881904D01*
X173291009Y-121881904D02*
X173243390Y-121929523D01*
X173243390Y-121929523D02*
X173195771Y-122024761D01*
X173195771Y-122024761D02*
X173195771Y-122215237D01*
X173195771Y-122215237D02*
X173243390Y-122310475D01*
X173243390Y-122310475D02*
X173291009Y-122358094D01*
X173291009Y-122358094D02*
X173386247Y-122405713D01*
X191067142Y-104399580D02*
X191019523Y-104447200D01*
X191019523Y-104447200D02*
X190876666Y-104494819D01*
X190876666Y-104494819D02*
X190781428Y-104494819D01*
X190781428Y-104494819D02*
X190638571Y-104447200D01*
X190638571Y-104447200D02*
X190543333Y-104351961D01*
X190543333Y-104351961D02*
X190495714Y-104256723D01*
X190495714Y-104256723D02*
X190448095Y-104066247D01*
X190448095Y-104066247D02*
X190448095Y-103923390D01*
X190448095Y-103923390D02*
X190495714Y-103732914D01*
X190495714Y-103732914D02*
X190543333Y-103637676D01*
X190543333Y-103637676D02*
X190638571Y-103542438D01*
X190638571Y-103542438D02*
X190781428Y-103494819D01*
X190781428Y-103494819D02*
X190876666Y-103494819D01*
X190876666Y-103494819D02*
X191019523Y-103542438D01*
X191019523Y-103542438D02*
X191067142Y-103590057D01*
X192019523Y-104494819D02*
X191448095Y-104494819D01*
X191733809Y-104494819D02*
X191733809Y-103494819D01*
X191733809Y-103494819D02*
X191638571Y-103637676D01*
X191638571Y-103637676D02*
X191543333Y-103732914D01*
X191543333Y-103732914D02*
X191448095Y-103780533D01*
X192876666Y-103828152D02*
X192876666Y-104494819D01*
X192638571Y-103447200D02*
X192400476Y-104161485D01*
X192400476Y-104161485D02*
X193019523Y-104161485D01*
X186989580Y-94362857D02*
X187037200Y-94410476D01*
X187037200Y-94410476D02*
X187084819Y-94553333D01*
X187084819Y-94553333D02*
X187084819Y-94648571D01*
X187084819Y-94648571D02*
X187037200Y-94791428D01*
X187037200Y-94791428D02*
X186941961Y-94886666D01*
X186941961Y-94886666D02*
X186846723Y-94934285D01*
X186846723Y-94934285D02*
X186656247Y-94981904D01*
X186656247Y-94981904D02*
X186513390Y-94981904D01*
X186513390Y-94981904D02*
X186322914Y-94934285D01*
X186322914Y-94934285D02*
X186227676Y-94886666D01*
X186227676Y-94886666D02*
X186132438Y-94791428D01*
X186132438Y-94791428D02*
X186084819Y-94648571D01*
X186084819Y-94648571D02*
X186084819Y-94553333D01*
X186084819Y-94553333D02*
X186132438Y-94410476D01*
X186132438Y-94410476D02*
X186180057Y-94362857D01*
X186180057Y-93981904D02*
X186132438Y-93934285D01*
X186132438Y-93934285D02*
X186084819Y-93839047D01*
X186084819Y-93839047D02*
X186084819Y-93600952D01*
X186084819Y-93600952D02*
X186132438Y-93505714D01*
X186132438Y-93505714D02*
X186180057Y-93458095D01*
X186180057Y-93458095D02*
X186275295Y-93410476D01*
X186275295Y-93410476D02*
X186370533Y-93410476D01*
X186370533Y-93410476D02*
X186513390Y-93458095D01*
X186513390Y-93458095D02*
X187084819Y-94029523D01*
X187084819Y-94029523D02*
X187084819Y-93410476D01*
X186084819Y-92791428D02*
X186084819Y-92696190D01*
X186084819Y-92696190D02*
X186132438Y-92600952D01*
X186132438Y-92600952D02*
X186180057Y-92553333D01*
X186180057Y-92553333D02*
X186275295Y-92505714D01*
X186275295Y-92505714D02*
X186465771Y-92458095D01*
X186465771Y-92458095D02*
X186703866Y-92458095D01*
X186703866Y-92458095D02*
X186894342Y-92505714D01*
X186894342Y-92505714D02*
X186989580Y-92553333D01*
X186989580Y-92553333D02*
X187037200Y-92600952D01*
X187037200Y-92600952D02*
X187084819Y-92696190D01*
X187084819Y-92696190D02*
X187084819Y-92791428D01*
X187084819Y-92791428D02*
X187037200Y-92886666D01*
X187037200Y-92886666D02*
X186989580Y-92934285D01*
X186989580Y-92934285D02*
X186894342Y-92981904D01*
X186894342Y-92981904D02*
X186703866Y-93029523D01*
X186703866Y-93029523D02*
X186465771Y-93029523D01*
X186465771Y-93029523D02*
X186275295Y-92981904D01*
X186275295Y-92981904D02*
X186180057Y-92934285D01*
X186180057Y-92934285D02*
X186132438Y-92886666D01*
X186132438Y-92886666D02*
X186084819Y-92791428D01*
X183614819Y-115334285D02*
X182614819Y-115334285D01*
X182614819Y-115334285D02*
X182614819Y-115096190D01*
X182614819Y-115096190D02*
X182662438Y-114953333D01*
X182662438Y-114953333D02*
X182757676Y-114858095D01*
X182757676Y-114858095D02*
X182852914Y-114810476D01*
X182852914Y-114810476D02*
X183043390Y-114762857D01*
X183043390Y-114762857D02*
X183186247Y-114762857D01*
X183186247Y-114762857D02*
X183376723Y-114810476D01*
X183376723Y-114810476D02*
X183471961Y-114858095D01*
X183471961Y-114858095D02*
X183567200Y-114953333D01*
X183567200Y-114953333D02*
X183614819Y-115096190D01*
X183614819Y-115096190D02*
X183614819Y-115334285D01*
X183614819Y-113810476D02*
X183614819Y-114381904D01*
X183614819Y-114096190D02*
X182614819Y-114096190D01*
X182614819Y-114096190D02*
X182757676Y-114191428D01*
X182757676Y-114191428D02*
X182852914Y-114286666D01*
X182852914Y-114286666D02*
X182900533Y-114381904D01*
X182710057Y-113429523D02*
X182662438Y-113381904D01*
X182662438Y-113381904D02*
X182614819Y-113286666D01*
X182614819Y-113286666D02*
X182614819Y-113048571D01*
X182614819Y-113048571D02*
X182662438Y-112953333D01*
X182662438Y-112953333D02*
X182710057Y-112905714D01*
X182710057Y-112905714D02*
X182805295Y-112858095D01*
X182805295Y-112858095D02*
X182900533Y-112858095D01*
X182900533Y-112858095D02*
X183043390Y-112905714D01*
X183043390Y-112905714D02*
X183614819Y-113477142D01*
X183614819Y-113477142D02*
X183614819Y-112858095D01*
X184064819Y-114381904D02*
X183064819Y-114381904D01*
X184064819Y-113810476D02*
X183493390Y-114239047D01*
X183064819Y-113810476D02*
X183636247Y-114381904D01*
X192514819Y-103462857D02*
X192038628Y-103796190D01*
X192514819Y-104034285D02*
X191514819Y-104034285D01*
X191514819Y-104034285D02*
X191514819Y-103653333D01*
X191514819Y-103653333D02*
X191562438Y-103558095D01*
X191562438Y-103558095D02*
X191610057Y-103510476D01*
X191610057Y-103510476D02*
X191705295Y-103462857D01*
X191705295Y-103462857D02*
X191848152Y-103462857D01*
X191848152Y-103462857D02*
X191943390Y-103510476D01*
X191943390Y-103510476D02*
X191991009Y-103558095D01*
X191991009Y-103558095D02*
X192038628Y-103653333D01*
X192038628Y-103653333D02*
X192038628Y-104034285D01*
X191610057Y-103081904D02*
X191562438Y-103034285D01*
X191562438Y-103034285D02*
X191514819Y-102939047D01*
X191514819Y-102939047D02*
X191514819Y-102700952D01*
X191514819Y-102700952D02*
X191562438Y-102605714D01*
X191562438Y-102605714D02*
X191610057Y-102558095D01*
X191610057Y-102558095D02*
X191705295Y-102510476D01*
X191705295Y-102510476D02*
X191800533Y-102510476D01*
X191800533Y-102510476D02*
X191943390Y-102558095D01*
X191943390Y-102558095D02*
X192514819Y-103129523D01*
X192514819Y-103129523D02*
X192514819Y-102510476D01*
X191514819Y-101605714D02*
X191514819Y-102081904D01*
X191514819Y-102081904D02*
X191991009Y-102129523D01*
X191991009Y-102129523D02*
X191943390Y-102081904D01*
X191943390Y-102081904D02*
X191895771Y-101986666D01*
X191895771Y-101986666D02*
X191895771Y-101748571D01*
X191895771Y-101748571D02*
X191943390Y-101653333D01*
X191943390Y-101653333D02*
X191991009Y-101605714D01*
X191991009Y-101605714D02*
X192086247Y-101558095D01*
X192086247Y-101558095D02*
X192324342Y-101558095D01*
X192324342Y-101558095D02*
X192419580Y-101605714D01*
X192419580Y-101605714D02*
X192467200Y-101653333D01*
X192467200Y-101653333D02*
X192514819Y-101748571D01*
X192514819Y-101748571D02*
X192514819Y-101986666D01*
X192514819Y-101986666D02*
X192467200Y-102081904D01*
X192467200Y-102081904D02*
X192419580Y-102129523D01*
D11*
X203444295Y-98276119D02*
X203444295Y-99085642D01*
X203444295Y-99085642D02*
X203491914Y-99180880D01*
X203491914Y-99180880D02*
X203539533Y-99228500D01*
X203539533Y-99228500D02*
X203634771Y-99276119D01*
X203634771Y-99276119D02*
X203825247Y-99276119D01*
X203825247Y-99276119D02*
X203920485Y-99228500D01*
X203920485Y-99228500D02*
X203968104Y-99180880D01*
X203968104Y-99180880D02*
X204015723Y-99085642D01*
X204015723Y-99085642D02*
X204015723Y-98276119D01*
X204539533Y-99276119D02*
X204730009Y-99276119D01*
X204730009Y-99276119D02*
X204825247Y-99228500D01*
X204825247Y-99228500D02*
X204872866Y-99180880D01*
X204872866Y-99180880D02*
X204968104Y-99038023D01*
X204968104Y-99038023D02*
X205015723Y-98847547D01*
X205015723Y-98847547D02*
X205015723Y-98466595D01*
X205015723Y-98466595D02*
X204968104Y-98371357D01*
X204968104Y-98371357D02*
X204920485Y-98323738D01*
X204920485Y-98323738D02*
X204825247Y-98276119D01*
X204825247Y-98276119D02*
X204634771Y-98276119D01*
X204634771Y-98276119D02*
X204539533Y-98323738D01*
X204539533Y-98323738D02*
X204491914Y-98371357D01*
X204491914Y-98371357D02*
X204444295Y-98466595D01*
X204444295Y-98466595D02*
X204444295Y-98704690D01*
X204444295Y-98704690D02*
X204491914Y-98799928D01*
X204491914Y-98799928D02*
X204539533Y-98847547D01*
X204539533Y-98847547D02*
X204634771Y-98895166D01*
X204634771Y-98895166D02*
X204825247Y-98895166D01*
X204825247Y-98895166D02*
X204920485Y-98847547D01*
X204920485Y-98847547D02*
X204968104Y-98799928D01*
X204968104Y-98799928D02*
X205015723Y-98704690D01*
X207036300Y-112922819D02*
X207036300Y-113160914D01*
X206798205Y-113065676D02*
X207036300Y-113160914D01*
X207036300Y-113160914D02*
X207274395Y-113065676D01*
X206893443Y-113351390D02*
X207036300Y-113160914D01*
X207036300Y-113160914D02*
X207179157Y-113351390D01*
D10*
X167814761Y-94370057D02*
X167719523Y-94322438D01*
X167719523Y-94322438D02*
X167624285Y-94227200D01*
X167624285Y-94227200D02*
X167481428Y-94084342D01*
X167481428Y-94084342D02*
X167386190Y-94036723D01*
X167386190Y-94036723D02*
X167290952Y-94036723D01*
X167338571Y-94274819D02*
X167243333Y-94227200D01*
X167243333Y-94227200D02*
X167148095Y-94131961D01*
X167148095Y-94131961D02*
X167100476Y-93941485D01*
X167100476Y-93941485D02*
X167100476Y-93608152D01*
X167100476Y-93608152D02*
X167148095Y-93417676D01*
X167148095Y-93417676D02*
X167243333Y-93322438D01*
X167243333Y-93322438D02*
X167338571Y-93274819D01*
X167338571Y-93274819D02*
X167529047Y-93274819D01*
X167529047Y-93274819D02*
X167624285Y-93322438D01*
X167624285Y-93322438D02*
X167719523Y-93417676D01*
X167719523Y-93417676D02*
X167767142Y-93608152D01*
X167767142Y-93608152D02*
X167767142Y-93941485D01*
X167767142Y-93941485D02*
X167719523Y-94131961D01*
X167719523Y-94131961D02*
X167624285Y-94227200D01*
X167624285Y-94227200D02*
X167529047Y-94274819D01*
X167529047Y-94274819D02*
X167338571Y-94274819D01*
X168243333Y-94274819D02*
X168433809Y-94274819D01*
X168433809Y-94274819D02*
X168529047Y-94227200D01*
X168529047Y-94227200D02*
X168576666Y-94179580D01*
X168576666Y-94179580D02*
X168671904Y-94036723D01*
X168671904Y-94036723D02*
X168719523Y-93846247D01*
X168719523Y-93846247D02*
X168719523Y-93465295D01*
X168719523Y-93465295D02*
X168671904Y-93370057D01*
X168671904Y-93370057D02*
X168624285Y-93322438D01*
X168624285Y-93322438D02*
X168529047Y-93274819D01*
X168529047Y-93274819D02*
X168338571Y-93274819D01*
X168338571Y-93274819D02*
X168243333Y-93322438D01*
X168243333Y-93322438D02*
X168195714Y-93370057D01*
X168195714Y-93370057D02*
X168148095Y-93465295D01*
X168148095Y-93465295D02*
X168148095Y-93703390D01*
X168148095Y-93703390D02*
X168195714Y-93798628D01*
X168195714Y-93798628D02*
X168243333Y-93846247D01*
X168243333Y-93846247D02*
X168338571Y-93893866D01*
X168338571Y-93893866D02*
X168529047Y-93893866D01*
X168529047Y-93893866D02*
X168624285Y-93846247D01*
X168624285Y-93846247D02*
X168671904Y-93798628D01*
X168671904Y-93798628D02*
X168719523Y-93703390D01*
X147049580Y-76886666D02*
X147097200Y-76934285D01*
X147097200Y-76934285D02*
X147144819Y-77077142D01*
X147144819Y-77077142D02*
X147144819Y-77172380D01*
X147144819Y-77172380D02*
X147097200Y-77315237D01*
X147097200Y-77315237D02*
X147001961Y-77410475D01*
X147001961Y-77410475D02*
X146906723Y-77458094D01*
X146906723Y-77458094D02*
X146716247Y-77505713D01*
X146716247Y-77505713D02*
X146573390Y-77505713D01*
X146573390Y-77505713D02*
X146382914Y-77458094D01*
X146382914Y-77458094D02*
X146287676Y-77410475D01*
X146287676Y-77410475D02*
X146192438Y-77315237D01*
X146192438Y-77315237D02*
X146144819Y-77172380D01*
X146144819Y-77172380D02*
X146144819Y-77077142D01*
X146144819Y-77077142D02*
X146192438Y-76934285D01*
X146192438Y-76934285D02*
X146240057Y-76886666D01*
X146144819Y-76553332D02*
X146144819Y-75934285D01*
X146144819Y-75934285D02*
X146525771Y-76267618D01*
X146525771Y-76267618D02*
X146525771Y-76124761D01*
X146525771Y-76124761D02*
X146573390Y-76029523D01*
X146573390Y-76029523D02*
X146621009Y-75981904D01*
X146621009Y-75981904D02*
X146716247Y-75934285D01*
X146716247Y-75934285D02*
X146954342Y-75934285D01*
X146954342Y-75934285D02*
X147049580Y-75981904D01*
X147049580Y-75981904D02*
X147097200Y-76029523D01*
X147097200Y-76029523D02*
X147144819Y-76124761D01*
X147144819Y-76124761D02*
X147144819Y-76410475D01*
X147144819Y-76410475D02*
X147097200Y-76505713D01*
X147097200Y-76505713D02*
X147049580Y-76553332D01*
X190114819Y-85462857D02*
X189638628Y-85796190D01*
X190114819Y-86034285D02*
X189114819Y-86034285D01*
X189114819Y-86034285D02*
X189114819Y-85653333D01*
X189114819Y-85653333D02*
X189162438Y-85558095D01*
X189162438Y-85558095D02*
X189210057Y-85510476D01*
X189210057Y-85510476D02*
X189305295Y-85462857D01*
X189305295Y-85462857D02*
X189448152Y-85462857D01*
X189448152Y-85462857D02*
X189543390Y-85510476D01*
X189543390Y-85510476D02*
X189591009Y-85558095D01*
X189591009Y-85558095D02*
X189638628Y-85653333D01*
X189638628Y-85653333D02*
X189638628Y-86034285D01*
X190114819Y-84510476D02*
X190114819Y-85081904D01*
X190114819Y-84796190D02*
X189114819Y-84796190D01*
X189114819Y-84796190D02*
X189257676Y-84891428D01*
X189257676Y-84891428D02*
X189352914Y-84986666D01*
X189352914Y-84986666D02*
X189400533Y-85081904D01*
X189114819Y-84177142D02*
X189114819Y-83558095D01*
X189114819Y-83558095D02*
X189495771Y-83891428D01*
X189495771Y-83891428D02*
X189495771Y-83748571D01*
X189495771Y-83748571D02*
X189543390Y-83653333D01*
X189543390Y-83653333D02*
X189591009Y-83605714D01*
X189591009Y-83605714D02*
X189686247Y-83558095D01*
X189686247Y-83558095D02*
X189924342Y-83558095D01*
X189924342Y-83558095D02*
X190019580Y-83605714D01*
X190019580Y-83605714D02*
X190067200Y-83653333D01*
X190067200Y-83653333D02*
X190114819Y-83748571D01*
X190114819Y-83748571D02*
X190114819Y-84034285D01*
X190114819Y-84034285D02*
X190067200Y-84129523D01*
X190067200Y-84129523D02*
X190019580Y-84177142D01*
X176819580Y-104862857D02*
X176867200Y-104910476D01*
X176867200Y-104910476D02*
X176914819Y-105053333D01*
X176914819Y-105053333D02*
X176914819Y-105148571D01*
X176914819Y-105148571D02*
X176867200Y-105291428D01*
X176867200Y-105291428D02*
X176771961Y-105386666D01*
X176771961Y-105386666D02*
X176676723Y-105434285D01*
X176676723Y-105434285D02*
X176486247Y-105481904D01*
X176486247Y-105481904D02*
X176343390Y-105481904D01*
X176343390Y-105481904D02*
X176152914Y-105434285D01*
X176152914Y-105434285D02*
X176057676Y-105386666D01*
X176057676Y-105386666D02*
X175962438Y-105291428D01*
X175962438Y-105291428D02*
X175914819Y-105148571D01*
X175914819Y-105148571D02*
X175914819Y-105053333D01*
X175914819Y-105053333D02*
X175962438Y-104910476D01*
X175962438Y-104910476D02*
X176010057Y-104862857D01*
X176914819Y-103910476D02*
X176914819Y-104481904D01*
X176914819Y-104196190D02*
X175914819Y-104196190D01*
X175914819Y-104196190D02*
X176057676Y-104291428D01*
X176057676Y-104291428D02*
X176152914Y-104386666D01*
X176152914Y-104386666D02*
X176200533Y-104481904D01*
X176914819Y-103434285D02*
X176914819Y-103243809D01*
X176914819Y-103243809D02*
X176867200Y-103148571D01*
X176867200Y-103148571D02*
X176819580Y-103100952D01*
X176819580Y-103100952D02*
X176676723Y-103005714D01*
X176676723Y-103005714D02*
X176486247Y-102958095D01*
X176486247Y-102958095D02*
X176105295Y-102958095D01*
X176105295Y-102958095D02*
X176010057Y-103005714D01*
X176010057Y-103005714D02*
X175962438Y-103053333D01*
X175962438Y-103053333D02*
X175914819Y-103148571D01*
X175914819Y-103148571D02*
X175914819Y-103339047D01*
X175914819Y-103339047D02*
X175962438Y-103434285D01*
X175962438Y-103434285D02*
X176010057Y-103481904D01*
X176010057Y-103481904D02*
X176105295Y-103529523D01*
X176105295Y-103529523D02*
X176343390Y-103529523D01*
X176343390Y-103529523D02*
X176438628Y-103481904D01*
X176438628Y-103481904D02*
X176486247Y-103434285D01*
X176486247Y-103434285D02*
X176533866Y-103339047D01*
X176533866Y-103339047D02*
X176533866Y-103148571D01*
X176533866Y-103148571D02*
X176486247Y-103053333D01*
X176486247Y-103053333D02*
X176438628Y-103005714D01*
X176438628Y-103005714D02*
X176343390Y-102958095D01*
X168814819Y-122586666D02*
X168338628Y-122919999D01*
X168814819Y-123158094D02*
X167814819Y-123158094D01*
X167814819Y-123158094D02*
X167814819Y-122777142D01*
X167814819Y-122777142D02*
X167862438Y-122681904D01*
X167862438Y-122681904D02*
X167910057Y-122634285D01*
X167910057Y-122634285D02*
X168005295Y-122586666D01*
X168005295Y-122586666D02*
X168148152Y-122586666D01*
X168148152Y-122586666D02*
X168243390Y-122634285D01*
X168243390Y-122634285D02*
X168291009Y-122681904D01*
X168291009Y-122681904D02*
X168338628Y-122777142D01*
X168338628Y-122777142D02*
X168338628Y-123158094D01*
X167814819Y-121681904D02*
X167814819Y-122158094D01*
X167814819Y-122158094D02*
X168291009Y-122205713D01*
X168291009Y-122205713D02*
X168243390Y-122158094D01*
X168243390Y-122158094D02*
X168195771Y-122062856D01*
X168195771Y-122062856D02*
X168195771Y-121824761D01*
X168195771Y-121824761D02*
X168243390Y-121729523D01*
X168243390Y-121729523D02*
X168291009Y-121681904D01*
X168291009Y-121681904D02*
X168386247Y-121634285D01*
X168386247Y-121634285D02*
X168624342Y-121634285D01*
X168624342Y-121634285D02*
X168719580Y-121681904D01*
X168719580Y-121681904D02*
X168767200Y-121729523D01*
X168767200Y-121729523D02*
X168814819Y-121824761D01*
X168814819Y-121824761D02*
X168814819Y-122062856D01*
X168814819Y-122062856D02*
X168767200Y-122158094D01*
X168767200Y-122158094D02*
X168719580Y-122205713D01*
X185460476Y-107090295D02*
X185460476Y-107737914D01*
X185460476Y-107737914D02*
X185498571Y-107814104D01*
X185498571Y-107814104D02*
X185536666Y-107852200D01*
X185536666Y-107852200D02*
X185612857Y-107890295D01*
X185612857Y-107890295D02*
X185765238Y-107890295D01*
X185765238Y-107890295D02*
X185841428Y-107852200D01*
X185841428Y-107852200D02*
X185879523Y-107814104D01*
X185879523Y-107814104D02*
X185917619Y-107737914D01*
X185917619Y-107737914D02*
X185917619Y-107090295D01*
X186717618Y-107890295D02*
X186260475Y-107890295D01*
X186489047Y-107890295D02*
X186489047Y-107090295D01*
X186489047Y-107090295D02*
X186412856Y-107204580D01*
X186412856Y-107204580D02*
X186336666Y-107280771D01*
X186336666Y-107280771D02*
X186260475Y-107318866D01*
X177649580Y-108486666D02*
X177697200Y-108534285D01*
X177697200Y-108534285D02*
X177744819Y-108677142D01*
X177744819Y-108677142D02*
X177744819Y-108772380D01*
X177744819Y-108772380D02*
X177697200Y-108915237D01*
X177697200Y-108915237D02*
X177601961Y-109010475D01*
X177601961Y-109010475D02*
X177506723Y-109058094D01*
X177506723Y-109058094D02*
X177316247Y-109105713D01*
X177316247Y-109105713D02*
X177173390Y-109105713D01*
X177173390Y-109105713D02*
X176982914Y-109058094D01*
X176982914Y-109058094D02*
X176887676Y-109010475D01*
X176887676Y-109010475D02*
X176792438Y-108915237D01*
X176792438Y-108915237D02*
X176744819Y-108772380D01*
X176744819Y-108772380D02*
X176744819Y-108677142D01*
X176744819Y-108677142D02*
X176792438Y-108534285D01*
X176792438Y-108534285D02*
X176840057Y-108486666D01*
X177744819Y-107534285D02*
X177744819Y-108105713D01*
X177744819Y-107819999D02*
X176744819Y-107819999D01*
X176744819Y-107819999D02*
X176887676Y-107915237D01*
X176887676Y-107915237D02*
X176982914Y-108010475D01*
X176982914Y-108010475D02*
X177030533Y-108105713D01*
X167900476Y-78874819D02*
X167900476Y-79589104D01*
X167900476Y-79589104D02*
X167852857Y-79731961D01*
X167852857Y-79731961D02*
X167757619Y-79827200D01*
X167757619Y-79827200D02*
X167614762Y-79874819D01*
X167614762Y-79874819D02*
X167519524Y-79874819D01*
X168900476Y-79874819D02*
X168329048Y-79874819D01*
X168614762Y-79874819D02*
X168614762Y-78874819D01*
X168614762Y-78874819D02*
X168519524Y-79017676D01*
X168519524Y-79017676D02*
X168424286Y-79112914D01*
X168424286Y-79112914D02*
X168329048Y-79160533D01*
X169233810Y-78874819D02*
X169900476Y-78874819D01*
X169900476Y-78874819D02*
X169471905Y-79874819D01*
X184714761Y-82970057D02*
X184619523Y-82922438D01*
X184619523Y-82922438D02*
X184524285Y-82827200D01*
X184524285Y-82827200D02*
X184381428Y-82684342D01*
X184381428Y-82684342D02*
X184286190Y-82636723D01*
X184286190Y-82636723D02*
X184190952Y-82636723D01*
X184238571Y-82874819D02*
X184143333Y-82827200D01*
X184143333Y-82827200D02*
X184048095Y-82731961D01*
X184048095Y-82731961D02*
X184000476Y-82541485D01*
X184000476Y-82541485D02*
X184000476Y-82208152D01*
X184000476Y-82208152D02*
X184048095Y-82017676D01*
X184048095Y-82017676D02*
X184143333Y-81922438D01*
X184143333Y-81922438D02*
X184238571Y-81874819D01*
X184238571Y-81874819D02*
X184429047Y-81874819D01*
X184429047Y-81874819D02*
X184524285Y-81922438D01*
X184524285Y-81922438D02*
X184619523Y-82017676D01*
X184619523Y-82017676D02*
X184667142Y-82208152D01*
X184667142Y-82208152D02*
X184667142Y-82541485D01*
X184667142Y-82541485D02*
X184619523Y-82731961D01*
X184619523Y-82731961D02*
X184524285Y-82827200D01*
X184524285Y-82827200D02*
X184429047Y-82874819D01*
X184429047Y-82874819D02*
X184238571Y-82874819D01*
X185571904Y-81874819D02*
X185095714Y-81874819D01*
X185095714Y-81874819D02*
X185048095Y-82351009D01*
X185048095Y-82351009D02*
X185095714Y-82303390D01*
X185095714Y-82303390D02*
X185190952Y-82255771D01*
X185190952Y-82255771D02*
X185429047Y-82255771D01*
X185429047Y-82255771D02*
X185524285Y-82303390D01*
X185524285Y-82303390D02*
X185571904Y-82351009D01*
X185571904Y-82351009D02*
X185619523Y-82446247D01*
X185619523Y-82446247D02*
X185619523Y-82684342D01*
X185619523Y-82684342D02*
X185571904Y-82779580D01*
X185571904Y-82779580D02*
X185524285Y-82827200D01*
X185524285Y-82827200D02*
X185429047Y-82874819D01*
X185429047Y-82874819D02*
X185190952Y-82874819D01*
X185190952Y-82874819D02*
X185095714Y-82827200D01*
X185095714Y-82827200D02*
X185048095Y-82779580D01*
X172168095Y-98941819D02*
X172168095Y-99751342D01*
X172168095Y-99751342D02*
X172215714Y-99846580D01*
X172215714Y-99846580D02*
X172263333Y-99894200D01*
X172263333Y-99894200D02*
X172358571Y-99941819D01*
X172358571Y-99941819D02*
X172549047Y-99941819D01*
X172549047Y-99941819D02*
X172644285Y-99894200D01*
X172644285Y-99894200D02*
X172691904Y-99846580D01*
X172691904Y-99846580D02*
X172739523Y-99751342D01*
X172739523Y-99751342D02*
X172739523Y-98941819D01*
X173644285Y-98941819D02*
X173453809Y-98941819D01*
X173453809Y-98941819D02*
X173358571Y-98989438D01*
X173358571Y-98989438D02*
X173310952Y-99037057D01*
X173310952Y-99037057D02*
X173215714Y-99179914D01*
X173215714Y-99179914D02*
X173168095Y-99370390D01*
X173168095Y-99370390D02*
X173168095Y-99751342D01*
X173168095Y-99751342D02*
X173215714Y-99846580D01*
X173215714Y-99846580D02*
X173263333Y-99894200D01*
X173263333Y-99894200D02*
X173358571Y-99941819D01*
X173358571Y-99941819D02*
X173549047Y-99941819D01*
X173549047Y-99941819D02*
X173644285Y-99894200D01*
X173644285Y-99894200D02*
X173691904Y-99846580D01*
X173691904Y-99846580D02*
X173739523Y-99751342D01*
X173739523Y-99751342D02*
X173739523Y-99513247D01*
X173739523Y-99513247D02*
X173691904Y-99418009D01*
X173691904Y-99418009D02*
X173644285Y-99370390D01*
X173644285Y-99370390D02*
X173549047Y-99322771D01*
X173549047Y-99322771D02*
X173358571Y-99322771D01*
X173358571Y-99322771D02*
X173263333Y-99370390D01*
X173263333Y-99370390D02*
X173215714Y-99418009D01*
X173215714Y-99418009D02*
X173168095Y-99513247D01*
X151614819Y-123434285D02*
X150614819Y-123434285D01*
X150614819Y-123434285D02*
X150614819Y-123196190D01*
X150614819Y-123196190D02*
X150662438Y-123053333D01*
X150662438Y-123053333D02*
X150757676Y-122958095D01*
X150757676Y-122958095D02*
X150852914Y-122910476D01*
X150852914Y-122910476D02*
X151043390Y-122862857D01*
X151043390Y-122862857D02*
X151186247Y-122862857D01*
X151186247Y-122862857D02*
X151376723Y-122910476D01*
X151376723Y-122910476D02*
X151471961Y-122958095D01*
X151471961Y-122958095D02*
X151567200Y-123053333D01*
X151567200Y-123053333D02*
X151614819Y-123196190D01*
X151614819Y-123196190D02*
X151614819Y-123434285D01*
X151614819Y-121910476D02*
X151614819Y-122481904D01*
X151614819Y-122196190D02*
X150614819Y-122196190D01*
X150614819Y-122196190D02*
X150757676Y-122291428D01*
X150757676Y-122291428D02*
X150852914Y-122386666D01*
X150852914Y-122386666D02*
X150900533Y-122481904D01*
X151614819Y-120958095D02*
X151614819Y-121529523D01*
X151614819Y-121243809D02*
X150614819Y-121243809D01*
X150614819Y-121243809D02*
X150757676Y-121339047D01*
X150757676Y-121339047D02*
X150852914Y-121434285D01*
X150852914Y-121434285D02*
X150900533Y-121529523D01*
X152064819Y-122481904D02*
X151064819Y-122481904D01*
X152064819Y-121910476D02*
X151493390Y-122339047D01*
X151064819Y-121910476D02*
X151636247Y-122481904D01*
X147114819Y-80986666D02*
X146638628Y-81319999D01*
X147114819Y-81558094D02*
X146114819Y-81558094D01*
X146114819Y-81558094D02*
X146114819Y-81177142D01*
X146114819Y-81177142D02*
X146162438Y-81081904D01*
X146162438Y-81081904D02*
X146210057Y-81034285D01*
X146210057Y-81034285D02*
X146305295Y-80986666D01*
X146305295Y-80986666D02*
X146448152Y-80986666D01*
X146448152Y-80986666D02*
X146543390Y-81034285D01*
X146543390Y-81034285D02*
X146591009Y-81081904D01*
X146591009Y-81081904D02*
X146638628Y-81177142D01*
X146638628Y-81177142D02*
X146638628Y-81558094D01*
X147114819Y-80034285D02*
X147114819Y-80605713D01*
X147114819Y-80319999D02*
X146114819Y-80319999D01*
X146114819Y-80319999D02*
X146257676Y-80415237D01*
X146257676Y-80415237D02*
X146352914Y-80510475D01*
X146352914Y-80510475D02*
X146400533Y-80605713D01*
X181164819Y-97879523D02*
X181879104Y-97879523D01*
X181879104Y-97879523D02*
X182021961Y-97927142D01*
X182021961Y-97927142D02*
X182117200Y-98022380D01*
X182117200Y-98022380D02*
X182164819Y-98165237D01*
X182164819Y-98165237D02*
X182164819Y-98260475D01*
X182164819Y-96879523D02*
X182164819Y-97450951D01*
X182164819Y-97165237D02*
X181164819Y-97165237D01*
X181164819Y-97165237D02*
X181307676Y-97260475D01*
X181307676Y-97260475D02*
X181402914Y-97355713D01*
X181402914Y-97355713D02*
X181450533Y-97450951D01*
X181498152Y-96022380D02*
X182164819Y-96022380D01*
X181117200Y-96260475D02*
X181831485Y-96498570D01*
X181831485Y-96498570D02*
X181831485Y-95879523D01*
X186114819Y-114858094D02*
X185114819Y-114858094D01*
X185114819Y-114858094D02*
X185114819Y-114619999D01*
X185114819Y-114619999D02*
X185162438Y-114477142D01*
X185162438Y-114477142D02*
X185257676Y-114381904D01*
X185257676Y-114381904D02*
X185352914Y-114334285D01*
X185352914Y-114334285D02*
X185543390Y-114286666D01*
X185543390Y-114286666D02*
X185686247Y-114286666D01*
X185686247Y-114286666D02*
X185876723Y-114334285D01*
X185876723Y-114334285D02*
X185971961Y-114381904D01*
X185971961Y-114381904D02*
X186067200Y-114477142D01*
X186067200Y-114477142D02*
X186114819Y-114619999D01*
X186114819Y-114619999D02*
X186114819Y-114858094D01*
X186114819Y-113334285D02*
X186114819Y-113905713D01*
X186114819Y-113619999D02*
X185114819Y-113619999D01*
X185114819Y-113619999D02*
X185257676Y-113715237D01*
X185257676Y-113715237D02*
X185352914Y-113810475D01*
X185352914Y-113810475D02*
X185400533Y-113905713D01*
X221954819Y-110368333D02*
X222669104Y-110368333D01*
X222669104Y-110368333D02*
X222811961Y-110415952D01*
X222811961Y-110415952D02*
X222907200Y-110511190D01*
X222907200Y-110511190D02*
X222954819Y-110654047D01*
X222954819Y-110654047D02*
X222954819Y-110749285D01*
X221954819Y-109463571D02*
X221954819Y-109654047D01*
X221954819Y-109654047D02*
X222002438Y-109749285D01*
X222002438Y-109749285D02*
X222050057Y-109796904D01*
X222050057Y-109796904D02*
X222192914Y-109892142D01*
X222192914Y-109892142D02*
X222383390Y-109939761D01*
X222383390Y-109939761D02*
X222764342Y-109939761D01*
X222764342Y-109939761D02*
X222859580Y-109892142D01*
X222859580Y-109892142D02*
X222907200Y-109844523D01*
X222907200Y-109844523D02*
X222954819Y-109749285D01*
X222954819Y-109749285D02*
X222954819Y-109558809D01*
X222954819Y-109558809D02*
X222907200Y-109463571D01*
X222907200Y-109463571D02*
X222859580Y-109415952D01*
X222859580Y-109415952D02*
X222764342Y-109368333D01*
X222764342Y-109368333D02*
X222526247Y-109368333D01*
X222526247Y-109368333D02*
X222431009Y-109415952D01*
X222431009Y-109415952D02*
X222383390Y-109463571D01*
X222383390Y-109463571D02*
X222335771Y-109558809D01*
X222335771Y-109558809D02*
X222335771Y-109749285D01*
X222335771Y-109749285D02*
X222383390Y-109844523D01*
X222383390Y-109844523D02*
X222431009Y-109892142D01*
X222431009Y-109892142D02*
X222526247Y-109939761D01*
X166714819Y-96762857D02*
X166238628Y-97096190D01*
X166714819Y-97334285D02*
X165714819Y-97334285D01*
X165714819Y-97334285D02*
X165714819Y-96953333D01*
X165714819Y-96953333D02*
X165762438Y-96858095D01*
X165762438Y-96858095D02*
X165810057Y-96810476D01*
X165810057Y-96810476D02*
X165905295Y-96762857D01*
X165905295Y-96762857D02*
X166048152Y-96762857D01*
X166048152Y-96762857D02*
X166143390Y-96810476D01*
X166143390Y-96810476D02*
X166191009Y-96858095D01*
X166191009Y-96858095D02*
X166238628Y-96953333D01*
X166238628Y-96953333D02*
X166238628Y-97334285D01*
X165714819Y-96429523D02*
X165714819Y-95810476D01*
X165714819Y-95810476D02*
X166095771Y-96143809D01*
X166095771Y-96143809D02*
X166095771Y-96000952D01*
X166095771Y-96000952D02*
X166143390Y-95905714D01*
X166143390Y-95905714D02*
X166191009Y-95858095D01*
X166191009Y-95858095D02*
X166286247Y-95810476D01*
X166286247Y-95810476D02*
X166524342Y-95810476D01*
X166524342Y-95810476D02*
X166619580Y-95858095D01*
X166619580Y-95858095D02*
X166667200Y-95905714D01*
X166667200Y-95905714D02*
X166714819Y-96000952D01*
X166714819Y-96000952D02*
X166714819Y-96286666D01*
X166714819Y-96286666D02*
X166667200Y-96381904D01*
X166667200Y-96381904D02*
X166619580Y-96429523D01*
X166714819Y-95334285D02*
X166714819Y-95143809D01*
X166714819Y-95143809D02*
X166667200Y-95048571D01*
X166667200Y-95048571D02*
X166619580Y-95000952D01*
X166619580Y-95000952D02*
X166476723Y-94905714D01*
X166476723Y-94905714D02*
X166286247Y-94858095D01*
X166286247Y-94858095D02*
X165905295Y-94858095D01*
X165905295Y-94858095D02*
X165810057Y-94905714D01*
X165810057Y-94905714D02*
X165762438Y-94953333D01*
X165762438Y-94953333D02*
X165714819Y-95048571D01*
X165714819Y-95048571D02*
X165714819Y-95239047D01*
X165714819Y-95239047D02*
X165762438Y-95334285D01*
X165762438Y-95334285D02*
X165810057Y-95381904D01*
X165810057Y-95381904D02*
X165905295Y-95429523D01*
X165905295Y-95429523D02*
X166143390Y-95429523D01*
X166143390Y-95429523D02*
X166238628Y-95381904D01*
X166238628Y-95381904D02*
X166286247Y-95334285D01*
X166286247Y-95334285D02*
X166333866Y-95239047D01*
X166333866Y-95239047D02*
X166333866Y-95048571D01*
X166333866Y-95048571D02*
X166286247Y-94953333D01*
X166286247Y-94953333D02*
X166238628Y-94905714D01*
X166238628Y-94905714D02*
X166143390Y-94858095D01*
X188367142Y-107824819D02*
X188033809Y-107348628D01*
X187795714Y-107824819D02*
X187795714Y-106824819D01*
X187795714Y-106824819D02*
X188176666Y-106824819D01*
X188176666Y-106824819D02*
X188271904Y-106872438D01*
X188271904Y-106872438D02*
X188319523Y-106920057D01*
X188319523Y-106920057D02*
X188367142Y-107015295D01*
X188367142Y-107015295D02*
X188367142Y-107158152D01*
X188367142Y-107158152D02*
X188319523Y-107253390D01*
X188319523Y-107253390D02*
X188271904Y-107301009D01*
X188271904Y-107301009D02*
X188176666Y-107348628D01*
X188176666Y-107348628D02*
X187795714Y-107348628D01*
X188748095Y-106920057D02*
X188795714Y-106872438D01*
X188795714Y-106872438D02*
X188890952Y-106824819D01*
X188890952Y-106824819D02*
X189129047Y-106824819D01*
X189129047Y-106824819D02*
X189224285Y-106872438D01*
X189224285Y-106872438D02*
X189271904Y-106920057D01*
X189271904Y-106920057D02*
X189319523Y-107015295D01*
X189319523Y-107015295D02*
X189319523Y-107110533D01*
X189319523Y-107110533D02*
X189271904Y-107253390D01*
X189271904Y-107253390D02*
X188700476Y-107824819D01*
X188700476Y-107824819D02*
X189319523Y-107824819D01*
X189652857Y-106824819D02*
X190271904Y-106824819D01*
X190271904Y-106824819D02*
X189938571Y-107205771D01*
X189938571Y-107205771D02*
X190081428Y-107205771D01*
X190081428Y-107205771D02*
X190176666Y-107253390D01*
X190176666Y-107253390D02*
X190224285Y-107301009D01*
X190224285Y-107301009D02*
X190271904Y-107396247D01*
X190271904Y-107396247D02*
X190271904Y-107634342D01*
X190271904Y-107634342D02*
X190224285Y-107729580D01*
X190224285Y-107729580D02*
X190176666Y-107777200D01*
X190176666Y-107777200D02*
X190081428Y-107824819D01*
X190081428Y-107824819D02*
X189795714Y-107824819D01*
X189795714Y-107824819D02*
X189700476Y-107777200D01*
X189700476Y-107777200D02*
X189652857Y-107729580D01*
X163288628Y-92296190D02*
X163764819Y-92296190D01*
X162764819Y-92629523D02*
X163288628Y-92296190D01*
X163288628Y-92296190D02*
X162764819Y-91962857D01*
X163764819Y-91105714D02*
X163764819Y-91677142D01*
X163764819Y-91391428D02*
X162764819Y-91391428D01*
X162764819Y-91391428D02*
X162907676Y-91486666D01*
X162907676Y-91486666D02*
X163002914Y-91581904D01*
X163002914Y-91581904D02*
X163050533Y-91677142D01*
X154914819Y-123058094D02*
X153914819Y-123058094D01*
X153914819Y-123058094D02*
X153914819Y-122819999D01*
X153914819Y-122819999D02*
X153962438Y-122677142D01*
X153962438Y-122677142D02*
X154057676Y-122581904D01*
X154057676Y-122581904D02*
X154152914Y-122534285D01*
X154152914Y-122534285D02*
X154343390Y-122486666D01*
X154343390Y-122486666D02*
X154486247Y-122486666D01*
X154486247Y-122486666D02*
X154676723Y-122534285D01*
X154676723Y-122534285D02*
X154771961Y-122581904D01*
X154771961Y-122581904D02*
X154867200Y-122677142D01*
X154867200Y-122677142D02*
X154914819Y-122819999D01*
X154914819Y-122819999D02*
X154914819Y-123058094D01*
X154343390Y-121915237D02*
X154295771Y-122010475D01*
X154295771Y-122010475D02*
X154248152Y-122058094D01*
X154248152Y-122058094D02*
X154152914Y-122105713D01*
X154152914Y-122105713D02*
X154105295Y-122105713D01*
X154105295Y-122105713D02*
X154010057Y-122058094D01*
X154010057Y-122058094D02*
X153962438Y-122010475D01*
X153962438Y-122010475D02*
X153914819Y-121915237D01*
X153914819Y-121915237D02*
X153914819Y-121724761D01*
X153914819Y-121724761D02*
X153962438Y-121629523D01*
X153962438Y-121629523D02*
X154010057Y-121581904D01*
X154010057Y-121581904D02*
X154105295Y-121534285D01*
X154105295Y-121534285D02*
X154152914Y-121534285D01*
X154152914Y-121534285D02*
X154248152Y-121581904D01*
X154248152Y-121581904D02*
X154295771Y-121629523D01*
X154295771Y-121629523D02*
X154343390Y-121724761D01*
X154343390Y-121724761D02*
X154343390Y-121915237D01*
X154343390Y-121915237D02*
X154391009Y-122010475D01*
X154391009Y-122010475D02*
X154438628Y-122058094D01*
X154438628Y-122058094D02*
X154533866Y-122105713D01*
X154533866Y-122105713D02*
X154724342Y-122105713D01*
X154724342Y-122105713D02*
X154819580Y-122058094D01*
X154819580Y-122058094D02*
X154867200Y-122010475D01*
X154867200Y-122010475D02*
X154914819Y-121915237D01*
X154914819Y-121915237D02*
X154914819Y-121724761D01*
X154914819Y-121724761D02*
X154867200Y-121629523D01*
X154867200Y-121629523D02*
X154819580Y-121581904D01*
X154819580Y-121581904D02*
X154724342Y-121534285D01*
X154724342Y-121534285D02*
X154533866Y-121534285D01*
X154533866Y-121534285D02*
X154438628Y-121581904D01*
X154438628Y-121581904D02*
X154391009Y-121629523D01*
X154391009Y-121629523D02*
X154343390Y-121724761D01*
X154464819Y-122581904D02*
X153464819Y-122581904D01*
X154464819Y-122010476D02*
X153893390Y-122439047D01*
X153464819Y-122010476D02*
X154036247Y-122581904D01*
X187026819Y-92886904D02*
X187836342Y-92886904D01*
X187836342Y-92886904D02*
X187931580Y-92839285D01*
X187931580Y-92839285D02*
X187979200Y-92791666D01*
X187979200Y-92791666D02*
X188026819Y-92696428D01*
X188026819Y-92696428D02*
X188026819Y-92505952D01*
X188026819Y-92505952D02*
X187979200Y-92410714D01*
X187979200Y-92410714D02*
X187931580Y-92363095D01*
X187931580Y-92363095D02*
X187836342Y-92315476D01*
X187836342Y-92315476D02*
X187026819Y-92315476D01*
X187026819Y-91934523D02*
X187026819Y-91267857D01*
X187026819Y-91267857D02*
X188026819Y-91696428D01*
X185267142Y-86624819D02*
X184933809Y-86148628D01*
X184695714Y-86624819D02*
X184695714Y-85624819D01*
X184695714Y-85624819D02*
X185076666Y-85624819D01*
X185076666Y-85624819D02*
X185171904Y-85672438D01*
X185171904Y-85672438D02*
X185219523Y-85720057D01*
X185219523Y-85720057D02*
X185267142Y-85815295D01*
X185267142Y-85815295D02*
X185267142Y-85958152D01*
X185267142Y-85958152D02*
X185219523Y-86053390D01*
X185219523Y-86053390D02*
X185171904Y-86101009D01*
X185171904Y-86101009D02*
X185076666Y-86148628D01*
X185076666Y-86148628D02*
X184695714Y-86148628D01*
X185648095Y-85720057D02*
X185695714Y-85672438D01*
X185695714Y-85672438D02*
X185790952Y-85624819D01*
X185790952Y-85624819D02*
X186029047Y-85624819D01*
X186029047Y-85624819D02*
X186124285Y-85672438D01*
X186124285Y-85672438D02*
X186171904Y-85720057D01*
X186171904Y-85720057D02*
X186219523Y-85815295D01*
X186219523Y-85815295D02*
X186219523Y-85910533D01*
X186219523Y-85910533D02*
X186171904Y-86053390D01*
X186171904Y-86053390D02*
X185600476Y-86624819D01*
X185600476Y-86624819D02*
X186219523Y-86624819D01*
X186695714Y-86624819D02*
X186886190Y-86624819D01*
X186886190Y-86624819D02*
X186981428Y-86577200D01*
X186981428Y-86577200D02*
X187029047Y-86529580D01*
X187029047Y-86529580D02*
X187124285Y-86386723D01*
X187124285Y-86386723D02*
X187171904Y-86196247D01*
X187171904Y-86196247D02*
X187171904Y-85815295D01*
X187171904Y-85815295D02*
X187124285Y-85720057D01*
X187124285Y-85720057D02*
X187076666Y-85672438D01*
X187076666Y-85672438D02*
X186981428Y-85624819D01*
X186981428Y-85624819D02*
X186790952Y-85624819D01*
X186790952Y-85624819D02*
X186695714Y-85672438D01*
X186695714Y-85672438D02*
X186648095Y-85720057D01*
X186648095Y-85720057D02*
X186600476Y-85815295D01*
X186600476Y-85815295D02*
X186600476Y-86053390D01*
X186600476Y-86053390D02*
X186648095Y-86148628D01*
X186648095Y-86148628D02*
X186695714Y-86196247D01*
X186695714Y-86196247D02*
X186790952Y-86243866D01*
X186790952Y-86243866D02*
X186981428Y-86243866D01*
X186981428Y-86243866D02*
X187076666Y-86196247D01*
X187076666Y-86196247D02*
X187124285Y-86148628D01*
X187124285Y-86148628D02*
X187171904Y-86053390D01*
X168141009Y-86400952D02*
X168188628Y-86258095D01*
X168188628Y-86258095D02*
X168236247Y-86210476D01*
X168236247Y-86210476D02*
X168331485Y-86162857D01*
X168331485Y-86162857D02*
X168474342Y-86162857D01*
X168474342Y-86162857D02*
X168569580Y-86210476D01*
X168569580Y-86210476D02*
X168617200Y-86258095D01*
X168617200Y-86258095D02*
X168664819Y-86353333D01*
X168664819Y-86353333D02*
X168664819Y-86734285D01*
X168664819Y-86734285D02*
X167664819Y-86734285D01*
X167664819Y-86734285D02*
X167664819Y-86400952D01*
X167664819Y-86400952D02*
X167712438Y-86305714D01*
X167712438Y-86305714D02*
X167760057Y-86258095D01*
X167760057Y-86258095D02*
X167855295Y-86210476D01*
X167855295Y-86210476D02*
X167950533Y-86210476D01*
X167950533Y-86210476D02*
X168045771Y-86258095D01*
X168045771Y-86258095D02*
X168093390Y-86305714D01*
X168093390Y-86305714D02*
X168141009Y-86400952D01*
X168141009Y-86400952D02*
X168141009Y-86734285D01*
X167664819Y-85829523D02*
X167664819Y-85162857D01*
X167664819Y-85162857D02*
X168664819Y-85829523D01*
X168664819Y-85829523D02*
X168664819Y-85162857D01*
X168664819Y-84258095D02*
X168664819Y-84829523D01*
X168664819Y-84543809D02*
X167664819Y-84543809D01*
X167664819Y-84543809D02*
X167807676Y-84639047D01*
X167807676Y-84639047D02*
X167902914Y-84734285D01*
X167902914Y-84734285D02*
X167950533Y-84829523D01*
X172943866Y-89710951D02*
X172943866Y-88949047D01*
X173324819Y-89329999D02*
X172562914Y-89329999D01*
X192714819Y-103462857D02*
X192238628Y-103796190D01*
X192714819Y-104034285D02*
X191714819Y-104034285D01*
X191714819Y-104034285D02*
X191714819Y-103653333D01*
X191714819Y-103653333D02*
X191762438Y-103558095D01*
X191762438Y-103558095D02*
X191810057Y-103510476D01*
X191810057Y-103510476D02*
X191905295Y-103462857D01*
X191905295Y-103462857D02*
X192048152Y-103462857D01*
X192048152Y-103462857D02*
X192143390Y-103510476D01*
X192143390Y-103510476D02*
X192191009Y-103558095D01*
X192191009Y-103558095D02*
X192238628Y-103653333D01*
X192238628Y-103653333D02*
X192238628Y-104034285D01*
X191714819Y-103129523D02*
X191714819Y-102510476D01*
X191714819Y-102510476D02*
X192095771Y-102843809D01*
X192095771Y-102843809D02*
X192095771Y-102700952D01*
X192095771Y-102700952D02*
X192143390Y-102605714D01*
X192143390Y-102605714D02*
X192191009Y-102558095D01*
X192191009Y-102558095D02*
X192286247Y-102510476D01*
X192286247Y-102510476D02*
X192524342Y-102510476D01*
X192524342Y-102510476D02*
X192619580Y-102558095D01*
X192619580Y-102558095D02*
X192667200Y-102605714D01*
X192667200Y-102605714D02*
X192714819Y-102700952D01*
X192714819Y-102700952D02*
X192714819Y-102986666D01*
X192714819Y-102986666D02*
X192667200Y-103081904D01*
X192667200Y-103081904D02*
X192619580Y-103129523D01*
X191714819Y-101891428D02*
X191714819Y-101796190D01*
X191714819Y-101796190D02*
X191762438Y-101700952D01*
X191762438Y-101700952D02*
X191810057Y-101653333D01*
X191810057Y-101653333D02*
X191905295Y-101605714D01*
X191905295Y-101605714D02*
X192095771Y-101558095D01*
X192095771Y-101558095D02*
X192333866Y-101558095D01*
X192333866Y-101558095D02*
X192524342Y-101605714D01*
X192524342Y-101605714D02*
X192619580Y-101653333D01*
X192619580Y-101653333D02*
X192667200Y-101700952D01*
X192667200Y-101700952D02*
X192714819Y-101796190D01*
X192714819Y-101796190D02*
X192714819Y-101891428D01*
X192714819Y-101891428D02*
X192667200Y-101986666D01*
X192667200Y-101986666D02*
X192619580Y-102034285D01*
X192619580Y-102034285D02*
X192524342Y-102081904D01*
X192524342Y-102081904D02*
X192333866Y-102129523D01*
X192333866Y-102129523D02*
X192095771Y-102129523D01*
X192095771Y-102129523D02*
X191905295Y-102081904D01*
X191905295Y-102081904D02*
X191810057Y-102034285D01*
X191810057Y-102034285D02*
X191762438Y-101986666D01*
X191762438Y-101986666D02*
X191714819Y-101891428D01*
X167414819Y-118962857D02*
X166938628Y-119296190D01*
X167414819Y-119534285D02*
X166414819Y-119534285D01*
X166414819Y-119534285D02*
X166414819Y-119153333D01*
X166414819Y-119153333D02*
X166462438Y-119058095D01*
X166462438Y-119058095D02*
X166510057Y-119010476D01*
X166510057Y-119010476D02*
X166605295Y-118962857D01*
X166605295Y-118962857D02*
X166748152Y-118962857D01*
X166748152Y-118962857D02*
X166843390Y-119010476D01*
X166843390Y-119010476D02*
X166891009Y-119058095D01*
X166891009Y-119058095D02*
X166938628Y-119153333D01*
X166938628Y-119153333D02*
X166938628Y-119534285D01*
X167414819Y-118010476D02*
X167414819Y-118581904D01*
X167414819Y-118296190D02*
X166414819Y-118296190D01*
X166414819Y-118296190D02*
X166557676Y-118391428D01*
X166557676Y-118391428D02*
X166652914Y-118486666D01*
X166652914Y-118486666D02*
X166700533Y-118581904D01*
X166510057Y-117629523D02*
X166462438Y-117581904D01*
X166462438Y-117581904D02*
X166414819Y-117486666D01*
X166414819Y-117486666D02*
X166414819Y-117248571D01*
X166414819Y-117248571D02*
X166462438Y-117153333D01*
X166462438Y-117153333D02*
X166510057Y-117105714D01*
X166510057Y-117105714D02*
X166605295Y-117058095D01*
X166605295Y-117058095D02*
X166700533Y-117058095D01*
X166700533Y-117058095D02*
X166843390Y-117105714D01*
X166843390Y-117105714D02*
X167414819Y-117677142D01*
X167414819Y-117677142D02*
X167414819Y-117058095D01*
X162214819Y-122586666D02*
X161738628Y-122919999D01*
X162214819Y-123158094D02*
X161214819Y-123158094D01*
X161214819Y-123158094D02*
X161214819Y-122777142D01*
X161214819Y-122777142D02*
X161262438Y-122681904D01*
X161262438Y-122681904D02*
X161310057Y-122634285D01*
X161310057Y-122634285D02*
X161405295Y-122586666D01*
X161405295Y-122586666D02*
X161548152Y-122586666D01*
X161548152Y-122586666D02*
X161643390Y-122634285D01*
X161643390Y-122634285D02*
X161691009Y-122681904D01*
X161691009Y-122681904D02*
X161738628Y-122777142D01*
X161738628Y-122777142D02*
X161738628Y-123158094D01*
X161643390Y-122015237D02*
X161595771Y-122110475D01*
X161595771Y-122110475D02*
X161548152Y-122158094D01*
X161548152Y-122158094D02*
X161452914Y-122205713D01*
X161452914Y-122205713D02*
X161405295Y-122205713D01*
X161405295Y-122205713D02*
X161310057Y-122158094D01*
X161310057Y-122158094D02*
X161262438Y-122110475D01*
X161262438Y-122110475D02*
X161214819Y-122015237D01*
X161214819Y-122015237D02*
X161214819Y-121824761D01*
X161214819Y-121824761D02*
X161262438Y-121729523D01*
X161262438Y-121729523D02*
X161310057Y-121681904D01*
X161310057Y-121681904D02*
X161405295Y-121634285D01*
X161405295Y-121634285D02*
X161452914Y-121634285D01*
X161452914Y-121634285D02*
X161548152Y-121681904D01*
X161548152Y-121681904D02*
X161595771Y-121729523D01*
X161595771Y-121729523D02*
X161643390Y-121824761D01*
X161643390Y-121824761D02*
X161643390Y-122015237D01*
X161643390Y-122015237D02*
X161691009Y-122110475D01*
X161691009Y-122110475D02*
X161738628Y-122158094D01*
X161738628Y-122158094D02*
X161833866Y-122205713D01*
X161833866Y-122205713D02*
X162024342Y-122205713D01*
X162024342Y-122205713D02*
X162119580Y-122158094D01*
X162119580Y-122158094D02*
X162167200Y-122110475D01*
X162167200Y-122110475D02*
X162214819Y-122015237D01*
X162214819Y-122015237D02*
X162214819Y-121824761D01*
X162214819Y-121824761D02*
X162167200Y-121729523D01*
X162167200Y-121729523D02*
X162119580Y-121681904D01*
X162119580Y-121681904D02*
X162024342Y-121634285D01*
X162024342Y-121634285D02*
X161833866Y-121634285D01*
X161833866Y-121634285D02*
X161738628Y-121681904D01*
X161738628Y-121681904D02*
X161691009Y-121729523D01*
X161691009Y-121729523D02*
X161643390Y-121824761D01*
X166725476Y-125324819D02*
X166725476Y-126039104D01*
X166725476Y-126039104D02*
X166677857Y-126181961D01*
X166677857Y-126181961D02*
X166582619Y-126277200D01*
X166582619Y-126277200D02*
X166439762Y-126324819D01*
X166439762Y-126324819D02*
X166344524Y-126324819D01*
X167725476Y-126324819D02*
X167154048Y-126324819D01*
X167439762Y-126324819D02*
X167439762Y-125324819D01*
X167439762Y-125324819D02*
X167344524Y-125467676D01*
X167344524Y-125467676D02*
X167249286Y-125562914D01*
X167249286Y-125562914D02*
X167154048Y-125610533D01*
X168344524Y-125324819D02*
X168439762Y-125324819D01*
X168439762Y-125324819D02*
X168535000Y-125372438D01*
X168535000Y-125372438D02*
X168582619Y-125420057D01*
X168582619Y-125420057D02*
X168630238Y-125515295D01*
X168630238Y-125515295D02*
X168677857Y-125705771D01*
X168677857Y-125705771D02*
X168677857Y-125943866D01*
X168677857Y-125943866D02*
X168630238Y-126134342D01*
X168630238Y-126134342D02*
X168582619Y-126229580D01*
X168582619Y-126229580D02*
X168535000Y-126277200D01*
X168535000Y-126277200D02*
X168439762Y-126324819D01*
X168439762Y-126324819D02*
X168344524Y-126324819D01*
X168344524Y-126324819D02*
X168249286Y-126277200D01*
X168249286Y-126277200D02*
X168201667Y-126229580D01*
X168201667Y-126229580D02*
X168154048Y-126134342D01*
X168154048Y-126134342D02*
X168106429Y-125943866D01*
X168106429Y-125943866D02*
X168106429Y-125705771D01*
X168106429Y-125705771D02*
X168154048Y-125515295D01*
X168154048Y-125515295D02*
X168201667Y-125420057D01*
X168201667Y-125420057D02*
X168249286Y-125372438D01*
X168249286Y-125372438D02*
X168344524Y-125324819D01*
X175142142Y-121024819D02*
X174808809Y-120548628D01*
X174570714Y-121024819D02*
X174570714Y-120024819D01*
X174570714Y-120024819D02*
X174951666Y-120024819D01*
X174951666Y-120024819D02*
X175046904Y-120072438D01*
X175046904Y-120072438D02*
X175094523Y-120120057D01*
X175094523Y-120120057D02*
X175142142Y-120215295D01*
X175142142Y-120215295D02*
X175142142Y-120358152D01*
X175142142Y-120358152D02*
X175094523Y-120453390D01*
X175094523Y-120453390D02*
X175046904Y-120501009D01*
X175046904Y-120501009D02*
X174951666Y-120548628D01*
X174951666Y-120548628D02*
X174570714Y-120548628D01*
X176094523Y-121024819D02*
X175523095Y-121024819D01*
X175808809Y-121024819D02*
X175808809Y-120024819D01*
X175808809Y-120024819D02*
X175713571Y-120167676D01*
X175713571Y-120167676D02*
X175618333Y-120262914D01*
X175618333Y-120262914D02*
X175523095Y-120310533D01*
X177046904Y-121024819D02*
X176475476Y-121024819D01*
X176761190Y-121024819D02*
X176761190Y-120024819D01*
X176761190Y-120024819D02*
X176665952Y-120167676D01*
X176665952Y-120167676D02*
X176570714Y-120262914D01*
X176570714Y-120262914D02*
X176475476Y-120310533D01*
X154714819Y-123058094D02*
X153714819Y-123058094D01*
X153714819Y-123058094D02*
X153714819Y-122819999D01*
X153714819Y-122819999D02*
X153762438Y-122677142D01*
X153762438Y-122677142D02*
X153857676Y-122581904D01*
X153857676Y-122581904D02*
X153952914Y-122534285D01*
X153952914Y-122534285D02*
X154143390Y-122486666D01*
X154143390Y-122486666D02*
X154286247Y-122486666D01*
X154286247Y-122486666D02*
X154476723Y-122534285D01*
X154476723Y-122534285D02*
X154571961Y-122581904D01*
X154571961Y-122581904D02*
X154667200Y-122677142D01*
X154667200Y-122677142D02*
X154714819Y-122819999D01*
X154714819Y-122819999D02*
X154714819Y-123058094D01*
X153714819Y-122153332D02*
X153714819Y-121534285D01*
X153714819Y-121534285D02*
X154095771Y-121867618D01*
X154095771Y-121867618D02*
X154095771Y-121724761D01*
X154095771Y-121724761D02*
X154143390Y-121629523D01*
X154143390Y-121629523D02*
X154191009Y-121581904D01*
X154191009Y-121581904D02*
X154286247Y-121534285D01*
X154286247Y-121534285D02*
X154524342Y-121534285D01*
X154524342Y-121534285D02*
X154619580Y-121581904D01*
X154619580Y-121581904D02*
X154667200Y-121629523D01*
X154667200Y-121629523D02*
X154714819Y-121724761D01*
X154714819Y-121724761D02*
X154714819Y-122010475D01*
X154714819Y-122010475D02*
X154667200Y-122105713D01*
X154667200Y-122105713D02*
X154619580Y-122153332D01*
X155164819Y-122581904D02*
X154164819Y-122581904D01*
X155164819Y-122010476D02*
X154593390Y-122439047D01*
X154164819Y-122010476D02*
X154736247Y-122581904D01*
X136593333Y-120559580D02*
X136545714Y-120607200D01*
X136545714Y-120607200D02*
X136402857Y-120654819D01*
X136402857Y-120654819D02*
X136307619Y-120654819D01*
X136307619Y-120654819D02*
X136164762Y-120607200D01*
X136164762Y-120607200D02*
X136069524Y-120511961D01*
X136069524Y-120511961D02*
X136021905Y-120416723D01*
X136021905Y-120416723D02*
X135974286Y-120226247D01*
X135974286Y-120226247D02*
X135974286Y-120083390D01*
X135974286Y-120083390D02*
X136021905Y-119892914D01*
X136021905Y-119892914D02*
X136069524Y-119797676D01*
X136069524Y-119797676D02*
X136164762Y-119702438D01*
X136164762Y-119702438D02*
X136307619Y-119654819D01*
X136307619Y-119654819D02*
X136402857Y-119654819D01*
X136402857Y-119654819D02*
X136545714Y-119702438D01*
X136545714Y-119702438D02*
X136593333Y-119750057D01*
X136926667Y-119654819D02*
X137593333Y-119654819D01*
X137593333Y-119654819D02*
X137164762Y-120654819D01*
X173810057Y-122852738D02*
X173762438Y-122947976D01*
X173762438Y-122947976D02*
X173667200Y-123043214D01*
X173667200Y-123043214D02*
X173524342Y-123186071D01*
X173524342Y-123186071D02*
X173476723Y-123281309D01*
X173476723Y-123281309D02*
X173476723Y-123376547D01*
X173714819Y-123328928D02*
X173667200Y-123424166D01*
X173667200Y-123424166D02*
X173571961Y-123519404D01*
X173571961Y-123519404D02*
X173381485Y-123567023D01*
X173381485Y-123567023D02*
X173048152Y-123567023D01*
X173048152Y-123567023D02*
X172857676Y-123519404D01*
X172857676Y-123519404D02*
X172762438Y-123424166D01*
X172762438Y-123424166D02*
X172714819Y-123328928D01*
X172714819Y-123328928D02*
X172714819Y-123138452D01*
X172714819Y-123138452D02*
X172762438Y-123043214D01*
X172762438Y-123043214D02*
X172857676Y-122947976D01*
X172857676Y-122947976D02*
X173048152Y-122900357D01*
X173048152Y-122900357D02*
X173381485Y-122900357D01*
X173381485Y-122900357D02*
X173571961Y-122947976D01*
X173571961Y-122947976D02*
X173667200Y-123043214D01*
X173667200Y-123043214D02*
X173714819Y-123138452D01*
X173714819Y-123138452D02*
X173714819Y-123328928D01*
X172810057Y-122519404D02*
X172762438Y-122471785D01*
X172762438Y-122471785D02*
X172714819Y-122376547D01*
X172714819Y-122376547D02*
X172714819Y-122138452D01*
X172714819Y-122138452D02*
X172762438Y-122043214D01*
X172762438Y-122043214D02*
X172810057Y-121995595D01*
X172810057Y-121995595D02*
X172905295Y-121947976D01*
X172905295Y-121947976D02*
X173000533Y-121947976D01*
X173000533Y-121947976D02*
X173143390Y-121995595D01*
X173143390Y-121995595D02*
X173714819Y-122567023D01*
X173714819Y-122567023D02*
X173714819Y-121947976D01*
X154714819Y-103458094D02*
X153714819Y-103458094D01*
X153714819Y-103458094D02*
X153714819Y-103219999D01*
X153714819Y-103219999D02*
X153762438Y-103077142D01*
X153762438Y-103077142D02*
X153857676Y-102981904D01*
X153857676Y-102981904D02*
X153952914Y-102934285D01*
X153952914Y-102934285D02*
X154143390Y-102886666D01*
X154143390Y-102886666D02*
X154286247Y-102886666D01*
X154286247Y-102886666D02*
X154476723Y-102934285D01*
X154476723Y-102934285D02*
X154571961Y-102981904D01*
X154571961Y-102981904D02*
X154667200Y-103077142D01*
X154667200Y-103077142D02*
X154714819Y-103219999D01*
X154714819Y-103219999D02*
X154714819Y-103458094D01*
X154714819Y-102410475D02*
X154714819Y-102219999D01*
X154714819Y-102219999D02*
X154667200Y-102124761D01*
X154667200Y-102124761D02*
X154619580Y-102077142D01*
X154619580Y-102077142D02*
X154476723Y-101981904D01*
X154476723Y-101981904D02*
X154286247Y-101934285D01*
X154286247Y-101934285D02*
X153905295Y-101934285D01*
X153905295Y-101934285D02*
X153810057Y-101981904D01*
X153810057Y-101981904D02*
X153762438Y-102029523D01*
X153762438Y-102029523D02*
X153714819Y-102124761D01*
X153714819Y-102124761D02*
X153714819Y-102315237D01*
X153714819Y-102315237D02*
X153762438Y-102410475D01*
X153762438Y-102410475D02*
X153810057Y-102458094D01*
X153810057Y-102458094D02*
X153905295Y-102505713D01*
X153905295Y-102505713D02*
X154143390Y-102505713D01*
X154143390Y-102505713D02*
X154238628Y-102458094D01*
X154238628Y-102458094D02*
X154286247Y-102410475D01*
X154286247Y-102410475D02*
X154333866Y-102315237D01*
X154333866Y-102315237D02*
X154333866Y-102124761D01*
X154333866Y-102124761D02*
X154286247Y-102029523D01*
X154286247Y-102029523D02*
X154238628Y-101981904D01*
X154238628Y-101981904D02*
X154143390Y-101934285D01*
X164314819Y-96562857D02*
X163838628Y-96896190D01*
X164314819Y-97134285D02*
X163314819Y-97134285D01*
X163314819Y-97134285D02*
X163314819Y-96753333D01*
X163314819Y-96753333D02*
X163362438Y-96658095D01*
X163362438Y-96658095D02*
X163410057Y-96610476D01*
X163410057Y-96610476D02*
X163505295Y-96562857D01*
X163505295Y-96562857D02*
X163648152Y-96562857D01*
X163648152Y-96562857D02*
X163743390Y-96610476D01*
X163743390Y-96610476D02*
X163791009Y-96658095D01*
X163791009Y-96658095D02*
X163838628Y-96753333D01*
X163838628Y-96753333D02*
X163838628Y-97134285D01*
X163410057Y-96181904D02*
X163362438Y-96134285D01*
X163362438Y-96134285D02*
X163314819Y-96039047D01*
X163314819Y-96039047D02*
X163314819Y-95800952D01*
X163314819Y-95800952D02*
X163362438Y-95705714D01*
X163362438Y-95705714D02*
X163410057Y-95658095D01*
X163410057Y-95658095D02*
X163505295Y-95610476D01*
X163505295Y-95610476D02*
X163600533Y-95610476D01*
X163600533Y-95610476D02*
X163743390Y-95658095D01*
X163743390Y-95658095D02*
X164314819Y-96229523D01*
X164314819Y-96229523D02*
X164314819Y-95610476D01*
X163314819Y-94753333D02*
X163314819Y-94943809D01*
X163314819Y-94943809D02*
X163362438Y-95039047D01*
X163362438Y-95039047D02*
X163410057Y-95086666D01*
X163410057Y-95086666D02*
X163552914Y-95181904D01*
X163552914Y-95181904D02*
X163743390Y-95229523D01*
X163743390Y-95229523D02*
X164124342Y-95229523D01*
X164124342Y-95229523D02*
X164219580Y-95181904D01*
X164219580Y-95181904D02*
X164267200Y-95134285D01*
X164267200Y-95134285D02*
X164314819Y-95039047D01*
X164314819Y-95039047D02*
X164314819Y-94848571D01*
X164314819Y-94848571D02*
X164267200Y-94753333D01*
X164267200Y-94753333D02*
X164219580Y-94705714D01*
X164219580Y-94705714D02*
X164124342Y-94658095D01*
X164124342Y-94658095D02*
X163886247Y-94658095D01*
X163886247Y-94658095D02*
X163791009Y-94705714D01*
X163791009Y-94705714D02*
X163743390Y-94753333D01*
X163743390Y-94753333D02*
X163695771Y-94848571D01*
X163695771Y-94848571D02*
X163695771Y-95039047D01*
X163695771Y-95039047D02*
X163743390Y-95134285D01*
X163743390Y-95134285D02*
X163791009Y-95181904D01*
X163791009Y-95181904D02*
X163886247Y-95229523D01*
X156969414Y-105037333D02*
X158299264Y-105037333D01*
X158299264Y-105037333D02*
X158455717Y-104959107D01*
X158455717Y-104959107D02*
X158533944Y-104880880D01*
X158533944Y-104880880D02*
X158612170Y-104724427D01*
X158612170Y-104724427D02*
X158612170Y-104411521D01*
X158612170Y-104411521D02*
X158533944Y-104255068D01*
X158533944Y-104255068D02*
X158455717Y-104176842D01*
X158455717Y-104176842D02*
X158299264Y-104098615D01*
X158299264Y-104098615D02*
X156969414Y-104098615D01*
X156969414Y-102534086D02*
X156969414Y-103316351D01*
X156969414Y-103316351D02*
X157751679Y-103394578D01*
X157751679Y-103394578D02*
X157673452Y-103316351D01*
X157673452Y-103316351D02*
X157595226Y-103159898D01*
X157595226Y-103159898D02*
X157595226Y-102768766D01*
X157595226Y-102768766D02*
X157673452Y-102612313D01*
X157673452Y-102612313D02*
X157751679Y-102534086D01*
X157751679Y-102534086D02*
X157908132Y-102455860D01*
X157908132Y-102455860D02*
X158299264Y-102455860D01*
X158299264Y-102455860D02*
X158455717Y-102534086D01*
X158455717Y-102534086D02*
X158533944Y-102612313D01*
X158533944Y-102612313D02*
X158612170Y-102768766D01*
X158612170Y-102768766D02*
X158612170Y-103159898D01*
X158612170Y-103159898D02*
X158533944Y-103316351D01*
X158533944Y-103316351D02*
X158455717Y-103394578D01*
X154660057Y-113591428D02*
X154612438Y-113686666D01*
X154612438Y-113686666D02*
X154517200Y-113781904D01*
X154517200Y-113781904D02*
X154374342Y-113924761D01*
X154374342Y-113924761D02*
X154326723Y-114019999D01*
X154326723Y-114019999D02*
X154326723Y-114115237D01*
X154564819Y-114067618D02*
X154517200Y-114162856D01*
X154517200Y-114162856D02*
X154421961Y-114258094D01*
X154421961Y-114258094D02*
X154231485Y-114305713D01*
X154231485Y-114305713D02*
X153898152Y-114305713D01*
X153898152Y-114305713D02*
X153707676Y-114258094D01*
X153707676Y-114258094D02*
X153612438Y-114162856D01*
X153612438Y-114162856D02*
X153564819Y-114067618D01*
X153564819Y-114067618D02*
X153564819Y-113877142D01*
X153564819Y-113877142D02*
X153612438Y-113781904D01*
X153612438Y-113781904D02*
X153707676Y-113686666D01*
X153707676Y-113686666D02*
X153898152Y-113639047D01*
X153898152Y-113639047D02*
X154231485Y-113639047D01*
X154231485Y-113639047D02*
X154421961Y-113686666D01*
X154421961Y-113686666D02*
X154517200Y-113781904D01*
X154517200Y-113781904D02*
X154564819Y-113877142D01*
X154564819Y-113877142D02*
X154564819Y-114067618D01*
X154564819Y-112686666D02*
X154564819Y-113258094D01*
X154564819Y-112972380D02*
X153564819Y-112972380D01*
X153564819Y-112972380D02*
X153707676Y-113067618D01*
X153707676Y-113067618D02*
X153802914Y-113162856D01*
X153802914Y-113162856D02*
X153850533Y-113258094D01*
X153564819Y-112067618D02*
X153564819Y-111972380D01*
X153564819Y-111972380D02*
X153612438Y-111877142D01*
X153612438Y-111877142D02*
X153660057Y-111829523D01*
X153660057Y-111829523D02*
X153755295Y-111781904D01*
X153755295Y-111781904D02*
X153945771Y-111734285D01*
X153945771Y-111734285D02*
X154183866Y-111734285D01*
X154183866Y-111734285D02*
X154374342Y-111781904D01*
X154374342Y-111781904D02*
X154469580Y-111829523D01*
X154469580Y-111829523D02*
X154517200Y-111877142D01*
X154517200Y-111877142D02*
X154564819Y-111972380D01*
X154564819Y-111972380D02*
X154564819Y-112067618D01*
X154564819Y-112067618D02*
X154517200Y-112162856D01*
X154517200Y-112162856D02*
X154469580Y-112210475D01*
X154469580Y-112210475D02*
X154374342Y-112258094D01*
X154374342Y-112258094D02*
X154183866Y-112305713D01*
X154183866Y-112305713D02*
X153945771Y-112305713D01*
X153945771Y-112305713D02*
X153755295Y-112258094D01*
X153755295Y-112258094D02*
X153660057Y-112210475D01*
X153660057Y-112210475D02*
X153612438Y-112162856D01*
X153612438Y-112162856D02*
X153564819Y-112067618D01*
X168343333Y-94859580D02*
X168295714Y-94907200D01*
X168295714Y-94907200D02*
X168152857Y-94954819D01*
X168152857Y-94954819D02*
X168057619Y-94954819D01*
X168057619Y-94954819D02*
X167914762Y-94907200D01*
X167914762Y-94907200D02*
X167819524Y-94811961D01*
X167819524Y-94811961D02*
X167771905Y-94716723D01*
X167771905Y-94716723D02*
X167724286Y-94526247D01*
X167724286Y-94526247D02*
X167724286Y-94383390D01*
X167724286Y-94383390D02*
X167771905Y-94192914D01*
X167771905Y-94192914D02*
X167819524Y-94097676D01*
X167819524Y-94097676D02*
X167914762Y-94002438D01*
X167914762Y-94002438D02*
X168057619Y-93954819D01*
X168057619Y-93954819D02*
X168152857Y-93954819D01*
X168152857Y-93954819D02*
X168295714Y-94002438D01*
X168295714Y-94002438D02*
X168343333Y-94050057D01*
X169200476Y-94288152D02*
X169200476Y-94954819D01*
X168962381Y-93907200D02*
X168724286Y-94621485D01*
X168724286Y-94621485D02*
X169343333Y-94621485D01*
X167349580Y-88562857D02*
X167397200Y-88610476D01*
X167397200Y-88610476D02*
X167444819Y-88753333D01*
X167444819Y-88753333D02*
X167444819Y-88848571D01*
X167444819Y-88848571D02*
X167397200Y-88991428D01*
X167397200Y-88991428D02*
X167301961Y-89086666D01*
X167301961Y-89086666D02*
X167206723Y-89134285D01*
X167206723Y-89134285D02*
X167016247Y-89181904D01*
X167016247Y-89181904D02*
X166873390Y-89181904D01*
X166873390Y-89181904D02*
X166682914Y-89134285D01*
X166682914Y-89134285D02*
X166587676Y-89086666D01*
X166587676Y-89086666D02*
X166492438Y-88991428D01*
X166492438Y-88991428D02*
X166444819Y-88848571D01*
X166444819Y-88848571D02*
X166444819Y-88753333D01*
X166444819Y-88753333D02*
X166492438Y-88610476D01*
X166492438Y-88610476D02*
X166540057Y-88562857D01*
X167444819Y-87610476D02*
X167444819Y-88181904D01*
X167444819Y-87896190D02*
X166444819Y-87896190D01*
X166444819Y-87896190D02*
X166587676Y-87991428D01*
X166587676Y-87991428D02*
X166682914Y-88086666D01*
X166682914Y-88086666D02*
X166730533Y-88181904D01*
X166540057Y-87229523D02*
X166492438Y-87181904D01*
X166492438Y-87181904D02*
X166444819Y-87086666D01*
X166444819Y-87086666D02*
X166444819Y-86848571D01*
X166444819Y-86848571D02*
X166492438Y-86753333D01*
X166492438Y-86753333D02*
X166540057Y-86705714D01*
X166540057Y-86705714D02*
X166635295Y-86658095D01*
X166635295Y-86658095D02*
X166730533Y-86658095D01*
X166730533Y-86658095D02*
X166873390Y-86705714D01*
X166873390Y-86705714D02*
X167444819Y-87277142D01*
X167444819Y-87277142D02*
X167444819Y-86658095D01*
X174014819Y-93662857D02*
X173538628Y-93996190D01*
X174014819Y-94234285D02*
X173014819Y-94234285D01*
X173014819Y-94234285D02*
X173014819Y-93853333D01*
X173014819Y-93853333D02*
X173062438Y-93758095D01*
X173062438Y-93758095D02*
X173110057Y-93710476D01*
X173110057Y-93710476D02*
X173205295Y-93662857D01*
X173205295Y-93662857D02*
X173348152Y-93662857D01*
X173348152Y-93662857D02*
X173443390Y-93710476D01*
X173443390Y-93710476D02*
X173491009Y-93758095D01*
X173491009Y-93758095D02*
X173538628Y-93853333D01*
X173538628Y-93853333D02*
X173538628Y-94234285D01*
X173348152Y-92805714D02*
X174014819Y-92805714D01*
X172967200Y-93043809D02*
X173681485Y-93281904D01*
X173681485Y-93281904D02*
X173681485Y-92662857D01*
X173014819Y-92091428D02*
X173014819Y-91996190D01*
X173014819Y-91996190D02*
X173062438Y-91900952D01*
X173062438Y-91900952D02*
X173110057Y-91853333D01*
X173110057Y-91853333D02*
X173205295Y-91805714D01*
X173205295Y-91805714D02*
X173395771Y-91758095D01*
X173395771Y-91758095D02*
X173633866Y-91758095D01*
X173633866Y-91758095D02*
X173824342Y-91805714D01*
X173824342Y-91805714D02*
X173919580Y-91853333D01*
X173919580Y-91853333D02*
X173967200Y-91900952D01*
X173967200Y-91900952D02*
X174014819Y-91996190D01*
X174014819Y-91996190D02*
X174014819Y-92091428D01*
X174014819Y-92091428D02*
X173967200Y-92186666D01*
X173967200Y-92186666D02*
X173919580Y-92234285D01*
X173919580Y-92234285D02*
X173824342Y-92281904D01*
X173824342Y-92281904D02*
X173633866Y-92329523D01*
X173633866Y-92329523D02*
X173395771Y-92329523D01*
X173395771Y-92329523D02*
X173205295Y-92281904D01*
X173205295Y-92281904D02*
X173110057Y-92234285D01*
X173110057Y-92234285D02*
X173062438Y-92186666D01*
X173062438Y-92186666D02*
X173014819Y-92091428D01*
X200849580Y-90812857D02*
X200897200Y-90860476D01*
X200897200Y-90860476D02*
X200944819Y-91003333D01*
X200944819Y-91003333D02*
X200944819Y-91098571D01*
X200944819Y-91098571D02*
X200897200Y-91241428D01*
X200897200Y-91241428D02*
X200801961Y-91336666D01*
X200801961Y-91336666D02*
X200706723Y-91384285D01*
X200706723Y-91384285D02*
X200516247Y-91431904D01*
X200516247Y-91431904D02*
X200373390Y-91431904D01*
X200373390Y-91431904D02*
X200182914Y-91384285D01*
X200182914Y-91384285D02*
X200087676Y-91336666D01*
X200087676Y-91336666D02*
X199992438Y-91241428D01*
X199992438Y-91241428D02*
X199944819Y-91098571D01*
X199944819Y-91098571D02*
X199944819Y-91003333D01*
X199944819Y-91003333D02*
X199992438Y-90860476D01*
X199992438Y-90860476D02*
X200040057Y-90812857D01*
X200944819Y-89860476D02*
X200944819Y-90431904D01*
X200944819Y-90146190D02*
X199944819Y-90146190D01*
X199944819Y-90146190D02*
X200087676Y-90241428D01*
X200087676Y-90241428D02*
X200182914Y-90336666D01*
X200182914Y-90336666D02*
X200230533Y-90431904D01*
X199944819Y-88955714D02*
X199944819Y-89431904D01*
X199944819Y-89431904D02*
X200421009Y-89479523D01*
X200421009Y-89479523D02*
X200373390Y-89431904D01*
X200373390Y-89431904D02*
X200325771Y-89336666D01*
X200325771Y-89336666D02*
X200325771Y-89098571D01*
X200325771Y-89098571D02*
X200373390Y-89003333D01*
X200373390Y-89003333D02*
X200421009Y-88955714D01*
X200421009Y-88955714D02*
X200516247Y-88908095D01*
X200516247Y-88908095D02*
X200754342Y-88908095D01*
X200754342Y-88908095D02*
X200849580Y-88955714D01*
X200849580Y-88955714D02*
X200897200Y-89003333D01*
X200897200Y-89003333D02*
X200944819Y-89098571D01*
X200944819Y-89098571D02*
X200944819Y-89336666D01*
X200944819Y-89336666D02*
X200897200Y-89431904D01*
X200897200Y-89431904D02*
X200849580Y-89479523D01*
X169914819Y-100862857D02*
X169438628Y-101196190D01*
X169914819Y-101434285D02*
X168914819Y-101434285D01*
X168914819Y-101434285D02*
X168914819Y-101053333D01*
X168914819Y-101053333D02*
X168962438Y-100958095D01*
X168962438Y-100958095D02*
X169010057Y-100910476D01*
X169010057Y-100910476D02*
X169105295Y-100862857D01*
X169105295Y-100862857D02*
X169248152Y-100862857D01*
X169248152Y-100862857D02*
X169343390Y-100910476D01*
X169343390Y-100910476D02*
X169391009Y-100958095D01*
X169391009Y-100958095D02*
X169438628Y-101053333D01*
X169438628Y-101053333D02*
X169438628Y-101434285D01*
X169914819Y-99910476D02*
X169914819Y-100481904D01*
X169914819Y-100196190D02*
X168914819Y-100196190D01*
X168914819Y-100196190D02*
X169057676Y-100291428D01*
X169057676Y-100291428D02*
X169152914Y-100386666D01*
X169152914Y-100386666D02*
X169200533Y-100481904D01*
X169914819Y-99434285D02*
X169914819Y-99243809D01*
X169914819Y-99243809D02*
X169867200Y-99148571D01*
X169867200Y-99148571D02*
X169819580Y-99100952D01*
X169819580Y-99100952D02*
X169676723Y-99005714D01*
X169676723Y-99005714D02*
X169486247Y-98958095D01*
X169486247Y-98958095D02*
X169105295Y-98958095D01*
X169105295Y-98958095D02*
X169010057Y-99005714D01*
X169010057Y-99005714D02*
X168962438Y-99053333D01*
X168962438Y-99053333D02*
X168914819Y-99148571D01*
X168914819Y-99148571D02*
X168914819Y-99339047D01*
X168914819Y-99339047D02*
X168962438Y-99434285D01*
X168962438Y-99434285D02*
X169010057Y-99481904D01*
X169010057Y-99481904D02*
X169105295Y-99529523D01*
X169105295Y-99529523D02*
X169343390Y-99529523D01*
X169343390Y-99529523D02*
X169438628Y-99481904D01*
X169438628Y-99481904D02*
X169486247Y-99434285D01*
X169486247Y-99434285D02*
X169533866Y-99339047D01*
X169533866Y-99339047D02*
X169533866Y-99148571D01*
X169533866Y-99148571D02*
X169486247Y-99053333D01*
X169486247Y-99053333D02*
X169438628Y-99005714D01*
X169438628Y-99005714D02*
X169343390Y-98958095D01*
X172514819Y-118900357D02*
X172038628Y-119233690D01*
X172514819Y-119471785D02*
X171514819Y-119471785D01*
X171514819Y-119471785D02*
X171514819Y-119090833D01*
X171514819Y-119090833D02*
X171562438Y-118995595D01*
X171562438Y-118995595D02*
X171610057Y-118947976D01*
X171610057Y-118947976D02*
X171705295Y-118900357D01*
X171705295Y-118900357D02*
X171848152Y-118900357D01*
X171848152Y-118900357D02*
X171943390Y-118947976D01*
X171943390Y-118947976D02*
X171991009Y-118995595D01*
X171991009Y-118995595D02*
X172038628Y-119090833D01*
X172038628Y-119090833D02*
X172038628Y-119471785D01*
X172514819Y-117947976D02*
X172514819Y-118519404D01*
X172514819Y-118233690D02*
X171514819Y-118233690D01*
X171514819Y-118233690D02*
X171657676Y-118328928D01*
X171657676Y-118328928D02*
X171752914Y-118424166D01*
X171752914Y-118424166D02*
X171800533Y-118519404D01*
X171514819Y-117043214D02*
X171514819Y-117519404D01*
X171514819Y-117519404D02*
X171991009Y-117567023D01*
X171991009Y-117567023D02*
X171943390Y-117519404D01*
X171943390Y-117519404D02*
X171895771Y-117424166D01*
X171895771Y-117424166D02*
X171895771Y-117186071D01*
X171895771Y-117186071D02*
X171943390Y-117090833D01*
X171943390Y-117090833D02*
X171991009Y-117043214D01*
X171991009Y-117043214D02*
X172086247Y-116995595D01*
X172086247Y-116995595D02*
X172324342Y-116995595D01*
X172324342Y-116995595D02*
X172419580Y-117043214D01*
X172419580Y-117043214D02*
X172467200Y-117090833D01*
X172467200Y-117090833D02*
X172514819Y-117186071D01*
X172514819Y-117186071D02*
X172514819Y-117424166D01*
X172514819Y-117424166D02*
X172467200Y-117519404D01*
X172467200Y-117519404D02*
X172419580Y-117567023D01*
X186095714Y-96824819D02*
X186095714Y-95824819D01*
X186095714Y-95824819D02*
X186333809Y-95824819D01*
X186333809Y-95824819D02*
X186476666Y-95872438D01*
X186476666Y-95872438D02*
X186571904Y-95967676D01*
X186571904Y-95967676D02*
X186619523Y-96062914D01*
X186619523Y-96062914D02*
X186667142Y-96253390D01*
X186667142Y-96253390D02*
X186667142Y-96396247D01*
X186667142Y-96396247D02*
X186619523Y-96586723D01*
X186619523Y-96586723D02*
X186571904Y-96681961D01*
X186571904Y-96681961D02*
X186476666Y-96777200D01*
X186476666Y-96777200D02*
X186333809Y-96824819D01*
X186333809Y-96824819D02*
X186095714Y-96824819D01*
X187619523Y-96824819D02*
X187048095Y-96824819D01*
X187333809Y-96824819D02*
X187333809Y-95824819D01*
X187333809Y-95824819D02*
X187238571Y-95967676D01*
X187238571Y-95967676D02*
X187143333Y-96062914D01*
X187143333Y-96062914D02*
X187048095Y-96110533D01*
X187952857Y-95824819D02*
X188571904Y-95824819D01*
X188571904Y-95824819D02*
X188238571Y-96205771D01*
X188238571Y-96205771D02*
X188381428Y-96205771D01*
X188381428Y-96205771D02*
X188476666Y-96253390D01*
X188476666Y-96253390D02*
X188524285Y-96301009D01*
X188524285Y-96301009D02*
X188571904Y-96396247D01*
X188571904Y-96396247D02*
X188571904Y-96634342D01*
X188571904Y-96634342D02*
X188524285Y-96729580D01*
X188524285Y-96729580D02*
X188476666Y-96777200D01*
X188476666Y-96777200D02*
X188381428Y-96824819D01*
X188381428Y-96824819D02*
X188095714Y-96824819D01*
X188095714Y-96824819D02*
X188000476Y-96777200D01*
X188000476Y-96777200D02*
X187952857Y-96729580D01*
X159714819Y-96575357D02*
X159238628Y-96908690D01*
X159714819Y-97146785D02*
X158714819Y-97146785D01*
X158714819Y-97146785D02*
X158714819Y-96765833D01*
X158714819Y-96765833D02*
X158762438Y-96670595D01*
X158762438Y-96670595D02*
X158810057Y-96622976D01*
X158810057Y-96622976D02*
X158905295Y-96575357D01*
X158905295Y-96575357D02*
X159048152Y-96575357D01*
X159048152Y-96575357D02*
X159143390Y-96622976D01*
X159143390Y-96622976D02*
X159191009Y-96670595D01*
X159191009Y-96670595D02*
X159238628Y-96765833D01*
X159238628Y-96765833D02*
X159238628Y-97146785D01*
X158810057Y-96194404D02*
X158762438Y-96146785D01*
X158762438Y-96146785D02*
X158714819Y-96051547D01*
X158714819Y-96051547D02*
X158714819Y-95813452D01*
X158714819Y-95813452D02*
X158762438Y-95718214D01*
X158762438Y-95718214D02*
X158810057Y-95670595D01*
X158810057Y-95670595D02*
X158905295Y-95622976D01*
X158905295Y-95622976D02*
X159000533Y-95622976D01*
X159000533Y-95622976D02*
X159143390Y-95670595D01*
X159143390Y-95670595D02*
X159714819Y-96242023D01*
X159714819Y-96242023D02*
X159714819Y-95622976D01*
X159714819Y-94670595D02*
X159714819Y-95242023D01*
X159714819Y-94956309D02*
X158714819Y-94956309D01*
X158714819Y-94956309D02*
X158857676Y-95051547D01*
X158857676Y-95051547D02*
X158952914Y-95146785D01*
X158952914Y-95146785D02*
X159000533Y-95242023D01*
X185414819Y-114762857D02*
X184938628Y-115096190D01*
X185414819Y-115334285D02*
X184414819Y-115334285D01*
X184414819Y-115334285D02*
X184414819Y-114953333D01*
X184414819Y-114953333D02*
X184462438Y-114858095D01*
X184462438Y-114858095D02*
X184510057Y-114810476D01*
X184510057Y-114810476D02*
X184605295Y-114762857D01*
X184605295Y-114762857D02*
X184748152Y-114762857D01*
X184748152Y-114762857D02*
X184843390Y-114810476D01*
X184843390Y-114810476D02*
X184891009Y-114858095D01*
X184891009Y-114858095D02*
X184938628Y-114953333D01*
X184938628Y-114953333D02*
X184938628Y-115334285D01*
X185414819Y-113810476D02*
X185414819Y-114381904D01*
X185414819Y-114096190D02*
X184414819Y-114096190D01*
X184414819Y-114096190D02*
X184557676Y-114191428D01*
X184557676Y-114191428D02*
X184652914Y-114286666D01*
X184652914Y-114286666D02*
X184700533Y-114381904D01*
X184414819Y-112953333D02*
X184414819Y-113143809D01*
X184414819Y-113143809D02*
X184462438Y-113239047D01*
X184462438Y-113239047D02*
X184510057Y-113286666D01*
X184510057Y-113286666D02*
X184652914Y-113381904D01*
X184652914Y-113381904D02*
X184843390Y-113429523D01*
X184843390Y-113429523D02*
X185224342Y-113429523D01*
X185224342Y-113429523D02*
X185319580Y-113381904D01*
X185319580Y-113381904D02*
X185367200Y-113334285D01*
X185367200Y-113334285D02*
X185414819Y-113239047D01*
X185414819Y-113239047D02*
X185414819Y-113048571D01*
X185414819Y-113048571D02*
X185367200Y-112953333D01*
X185367200Y-112953333D02*
X185319580Y-112905714D01*
X185319580Y-112905714D02*
X185224342Y-112858095D01*
X185224342Y-112858095D02*
X184986247Y-112858095D01*
X184986247Y-112858095D02*
X184891009Y-112905714D01*
X184891009Y-112905714D02*
X184843390Y-112953333D01*
X184843390Y-112953333D02*
X184795771Y-113048571D01*
X184795771Y-113048571D02*
X184795771Y-113239047D01*
X184795771Y-113239047D02*
X184843390Y-113334285D01*
X184843390Y-113334285D02*
X184891009Y-113381904D01*
X184891009Y-113381904D02*
X184986247Y-113429523D01*
D12*
X162024429Y-93318351D02*
X162024429Y-93573319D01*
X162024429Y-93573319D02*
X162039427Y-93603315D01*
X162039427Y-93603315D02*
X162054426Y-93618314D01*
X162054426Y-93618314D02*
X162084422Y-93633312D01*
X162084422Y-93633312D02*
X162144414Y-93633312D01*
X162144414Y-93633312D02*
X162174411Y-93618314D01*
X162174411Y-93618314D02*
X162189409Y-93603315D01*
X162189409Y-93603315D02*
X162204407Y-93573319D01*
X162204407Y-93573319D02*
X162204407Y-93318351D01*
X162399383Y-93453334D02*
X162369386Y-93438336D01*
X162369386Y-93438336D02*
X162354388Y-93423338D01*
X162354388Y-93423338D02*
X162339390Y-93393341D01*
X162339390Y-93393341D02*
X162339390Y-93378343D01*
X162339390Y-93378343D02*
X162354388Y-93348347D01*
X162354388Y-93348347D02*
X162369386Y-93333349D01*
X162369386Y-93333349D02*
X162399383Y-93318351D01*
X162399383Y-93318351D02*
X162459375Y-93318351D01*
X162459375Y-93318351D02*
X162489372Y-93333349D01*
X162489372Y-93333349D02*
X162504370Y-93348347D01*
X162504370Y-93348347D02*
X162519368Y-93378343D01*
X162519368Y-93378343D02*
X162519368Y-93393341D01*
X162519368Y-93393341D02*
X162504370Y-93423338D01*
X162504370Y-93423338D02*
X162489372Y-93438336D01*
X162489372Y-93438336D02*
X162459375Y-93453334D01*
X162459375Y-93453334D02*
X162399383Y-93453334D01*
X162399383Y-93453334D02*
X162369386Y-93468332D01*
X162369386Y-93468332D02*
X162354388Y-93483330D01*
X162354388Y-93483330D02*
X162339390Y-93513327D01*
X162339390Y-93513327D02*
X162339390Y-93573319D01*
X162339390Y-93573319D02*
X162354388Y-93603315D01*
X162354388Y-93603315D02*
X162369386Y-93618314D01*
X162369386Y-93618314D02*
X162399383Y-93633312D01*
X162399383Y-93633312D02*
X162459375Y-93633312D01*
X162459375Y-93633312D02*
X162489372Y-93618314D01*
X162489372Y-93618314D02*
X162504370Y-93603315D01*
X162504370Y-93603315D02*
X162519368Y-93573319D01*
X162519368Y-93573319D02*
X162519368Y-93513327D01*
X162519368Y-93513327D02*
X162504370Y-93483330D01*
X162504370Y-93483330D02*
X162489372Y-93468332D01*
X162489372Y-93468332D02*
X162459375Y-93453334D01*
D10*
X181995714Y-96824819D02*
X181995714Y-95824819D01*
X181995714Y-95824819D02*
X182233809Y-95824819D01*
X182233809Y-95824819D02*
X182376666Y-95872438D01*
X182376666Y-95872438D02*
X182471904Y-95967676D01*
X182471904Y-95967676D02*
X182519523Y-96062914D01*
X182519523Y-96062914D02*
X182567142Y-96253390D01*
X182567142Y-96253390D02*
X182567142Y-96396247D01*
X182567142Y-96396247D02*
X182519523Y-96586723D01*
X182519523Y-96586723D02*
X182471904Y-96681961D01*
X182471904Y-96681961D02*
X182376666Y-96777200D01*
X182376666Y-96777200D02*
X182233809Y-96824819D01*
X182233809Y-96824819D02*
X181995714Y-96824819D01*
X183519523Y-96824819D02*
X182948095Y-96824819D01*
X183233809Y-96824819D02*
X183233809Y-95824819D01*
X183233809Y-95824819D02*
X183138571Y-95967676D01*
X183138571Y-95967676D02*
X183043333Y-96062914D01*
X183043333Y-96062914D02*
X182948095Y-96110533D01*
X184376666Y-96158152D02*
X184376666Y-96824819D01*
X184138571Y-95777200D02*
X183900476Y-96491485D01*
X183900476Y-96491485D02*
X184519523Y-96491485D01*
X166714819Y-89034285D02*
X165714819Y-89034285D01*
X165714819Y-89034285D02*
X165714819Y-88796190D01*
X165714819Y-88796190D02*
X165762438Y-88653333D01*
X165762438Y-88653333D02*
X165857676Y-88558095D01*
X165857676Y-88558095D02*
X165952914Y-88510476D01*
X165952914Y-88510476D02*
X166143390Y-88462857D01*
X166143390Y-88462857D02*
X166286247Y-88462857D01*
X166286247Y-88462857D02*
X166476723Y-88510476D01*
X166476723Y-88510476D02*
X166571961Y-88558095D01*
X166571961Y-88558095D02*
X166667200Y-88653333D01*
X166667200Y-88653333D02*
X166714819Y-88796190D01*
X166714819Y-88796190D02*
X166714819Y-89034285D01*
X166714819Y-87510476D02*
X166714819Y-88081904D01*
X166714819Y-87796190D02*
X165714819Y-87796190D01*
X165714819Y-87796190D02*
X165857676Y-87891428D01*
X165857676Y-87891428D02*
X165952914Y-87986666D01*
X165952914Y-87986666D02*
X166000533Y-88081904D01*
X165714819Y-86891428D02*
X165714819Y-86796190D01*
X165714819Y-86796190D02*
X165762438Y-86700952D01*
X165762438Y-86700952D02*
X165810057Y-86653333D01*
X165810057Y-86653333D02*
X165905295Y-86605714D01*
X165905295Y-86605714D02*
X166095771Y-86558095D01*
X166095771Y-86558095D02*
X166333866Y-86558095D01*
X166333866Y-86558095D02*
X166524342Y-86605714D01*
X166524342Y-86605714D02*
X166619580Y-86653333D01*
X166619580Y-86653333D02*
X166667200Y-86700952D01*
X166667200Y-86700952D02*
X166714819Y-86796190D01*
X166714819Y-86796190D02*
X166714819Y-86891428D01*
X166714819Y-86891428D02*
X166667200Y-86986666D01*
X166667200Y-86986666D02*
X166619580Y-87034285D01*
X166619580Y-87034285D02*
X166524342Y-87081904D01*
X166524342Y-87081904D02*
X166333866Y-87129523D01*
X166333866Y-87129523D02*
X166095771Y-87129523D01*
X166095771Y-87129523D02*
X165905295Y-87081904D01*
X165905295Y-87081904D02*
X165810057Y-87034285D01*
X165810057Y-87034285D02*
X165762438Y-86986666D01*
X165762438Y-86986666D02*
X165714819Y-86891428D01*
X166264819Y-88081904D02*
X165264819Y-88081904D01*
X166264819Y-87510476D02*
X165693390Y-87939047D01*
X165264819Y-87510476D02*
X165836247Y-88081904D01*
X159000476Y-78874819D02*
X159000476Y-79589104D01*
X159000476Y-79589104D02*
X158952857Y-79731961D01*
X158952857Y-79731961D02*
X158857619Y-79827200D01*
X158857619Y-79827200D02*
X158714762Y-79874819D01*
X158714762Y-79874819D02*
X158619524Y-79874819D01*
X160000476Y-79874819D02*
X159429048Y-79874819D01*
X159714762Y-79874819D02*
X159714762Y-78874819D01*
X159714762Y-78874819D02*
X159619524Y-79017676D01*
X159619524Y-79017676D02*
X159524286Y-79112914D01*
X159524286Y-79112914D02*
X159429048Y-79160533D01*
X160571905Y-79303390D02*
X160476667Y-79255771D01*
X160476667Y-79255771D02*
X160429048Y-79208152D01*
X160429048Y-79208152D02*
X160381429Y-79112914D01*
X160381429Y-79112914D02*
X160381429Y-79065295D01*
X160381429Y-79065295D02*
X160429048Y-78970057D01*
X160429048Y-78970057D02*
X160476667Y-78922438D01*
X160476667Y-78922438D02*
X160571905Y-78874819D01*
X160571905Y-78874819D02*
X160762381Y-78874819D01*
X160762381Y-78874819D02*
X160857619Y-78922438D01*
X160857619Y-78922438D02*
X160905238Y-78970057D01*
X160905238Y-78970057D02*
X160952857Y-79065295D01*
X160952857Y-79065295D02*
X160952857Y-79112914D01*
X160952857Y-79112914D02*
X160905238Y-79208152D01*
X160905238Y-79208152D02*
X160857619Y-79255771D01*
X160857619Y-79255771D02*
X160762381Y-79303390D01*
X160762381Y-79303390D02*
X160571905Y-79303390D01*
X160571905Y-79303390D02*
X160476667Y-79351009D01*
X160476667Y-79351009D02*
X160429048Y-79398628D01*
X160429048Y-79398628D02*
X160381429Y-79493866D01*
X160381429Y-79493866D02*
X160381429Y-79684342D01*
X160381429Y-79684342D02*
X160429048Y-79779580D01*
X160429048Y-79779580D02*
X160476667Y-79827200D01*
X160476667Y-79827200D02*
X160571905Y-79874819D01*
X160571905Y-79874819D02*
X160762381Y-79874819D01*
X160762381Y-79874819D02*
X160857619Y-79827200D01*
X160857619Y-79827200D02*
X160905238Y-79779580D01*
X160905238Y-79779580D02*
X160952857Y-79684342D01*
X160952857Y-79684342D02*
X160952857Y-79493866D01*
X160952857Y-79493866D02*
X160905238Y-79398628D01*
X160905238Y-79398628D02*
X160857619Y-79351009D01*
X160857619Y-79351009D02*
X160762381Y-79303390D01*
X158500476Y-87374819D02*
X158500476Y-88089104D01*
X158500476Y-88089104D02*
X158452857Y-88231961D01*
X158452857Y-88231961D02*
X158357619Y-88327200D01*
X158357619Y-88327200D02*
X158214762Y-88374819D01*
X158214762Y-88374819D02*
X158119524Y-88374819D01*
X159500476Y-88374819D02*
X158929048Y-88374819D01*
X159214762Y-88374819D02*
X159214762Y-87374819D01*
X159214762Y-87374819D02*
X159119524Y-87517676D01*
X159119524Y-87517676D02*
X159024286Y-87612914D01*
X159024286Y-87612914D02*
X158929048Y-87660533D01*
X160405238Y-87374819D02*
X159929048Y-87374819D01*
X159929048Y-87374819D02*
X159881429Y-87851009D01*
X159881429Y-87851009D02*
X159929048Y-87803390D01*
X159929048Y-87803390D02*
X160024286Y-87755771D01*
X160024286Y-87755771D02*
X160262381Y-87755771D01*
X160262381Y-87755771D02*
X160357619Y-87803390D01*
X160357619Y-87803390D02*
X160405238Y-87851009D01*
X160405238Y-87851009D02*
X160452857Y-87946247D01*
X160452857Y-87946247D02*
X160452857Y-88184342D01*
X160452857Y-88184342D02*
X160405238Y-88279580D01*
X160405238Y-88279580D02*
X160357619Y-88327200D01*
X160357619Y-88327200D02*
X160262381Y-88374819D01*
X160262381Y-88374819D02*
X160024286Y-88374819D01*
X160024286Y-88374819D02*
X159929048Y-88327200D01*
X159929048Y-88327200D02*
X159881429Y-88279580D01*
X144000476Y-125174819D02*
X144000476Y-125889104D01*
X144000476Y-125889104D02*
X143952857Y-126031961D01*
X143952857Y-126031961D02*
X143857619Y-126127200D01*
X143857619Y-126127200D02*
X143714762Y-126174819D01*
X143714762Y-126174819D02*
X143619524Y-126174819D01*
X145000476Y-126174819D02*
X144429048Y-126174819D01*
X144714762Y-126174819D02*
X144714762Y-125174819D01*
X144714762Y-125174819D02*
X144619524Y-125317676D01*
X144619524Y-125317676D02*
X144524286Y-125412914D01*
X144524286Y-125412914D02*
X144429048Y-125460533D01*
X145476667Y-126174819D02*
X145667143Y-126174819D01*
X145667143Y-126174819D02*
X145762381Y-126127200D01*
X145762381Y-126127200D02*
X145810000Y-126079580D01*
X145810000Y-126079580D02*
X145905238Y-125936723D01*
X145905238Y-125936723D02*
X145952857Y-125746247D01*
X145952857Y-125746247D02*
X145952857Y-125365295D01*
X145952857Y-125365295D02*
X145905238Y-125270057D01*
X145905238Y-125270057D02*
X145857619Y-125222438D01*
X145857619Y-125222438D02*
X145762381Y-125174819D01*
X145762381Y-125174819D02*
X145571905Y-125174819D01*
X145571905Y-125174819D02*
X145476667Y-125222438D01*
X145476667Y-125222438D02*
X145429048Y-125270057D01*
X145429048Y-125270057D02*
X145381429Y-125365295D01*
X145381429Y-125365295D02*
X145381429Y-125603390D01*
X145381429Y-125603390D02*
X145429048Y-125698628D01*
X145429048Y-125698628D02*
X145476667Y-125746247D01*
X145476667Y-125746247D02*
X145571905Y-125793866D01*
X145571905Y-125793866D02*
X145762381Y-125793866D01*
X145762381Y-125793866D02*
X145857619Y-125746247D01*
X145857619Y-125746247D02*
X145905238Y-125698628D01*
X145905238Y-125698628D02*
X145952857Y-125603390D01*
X221954819Y-122608333D02*
X222669104Y-122608333D01*
X222669104Y-122608333D02*
X222811961Y-122655952D01*
X222811961Y-122655952D02*
X222907200Y-122751190D01*
X222907200Y-122751190D02*
X222954819Y-122894047D01*
X222954819Y-122894047D02*
X222954819Y-122989285D01*
X221954819Y-122227380D02*
X221954819Y-121560714D01*
X221954819Y-121560714D02*
X222954819Y-121989285D01*
X154967142Y-114024819D02*
X154633809Y-113548628D01*
X154395714Y-114024819D02*
X154395714Y-113024819D01*
X154395714Y-113024819D02*
X154776666Y-113024819D01*
X154776666Y-113024819D02*
X154871904Y-113072438D01*
X154871904Y-113072438D02*
X154919523Y-113120057D01*
X154919523Y-113120057D02*
X154967142Y-113215295D01*
X154967142Y-113215295D02*
X154967142Y-113358152D01*
X154967142Y-113358152D02*
X154919523Y-113453390D01*
X154919523Y-113453390D02*
X154871904Y-113501009D01*
X154871904Y-113501009D02*
X154776666Y-113548628D01*
X154776666Y-113548628D02*
X154395714Y-113548628D01*
X155919523Y-114024819D02*
X155348095Y-114024819D01*
X155633809Y-114024819D02*
X155633809Y-113024819D01*
X155633809Y-113024819D02*
X155538571Y-113167676D01*
X155538571Y-113167676D02*
X155443333Y-113262914D01*
X155443333Y-113262914D02*
X155348095Y-113310533D01*
X156538571Y-113024819D02*
X156633809Y-113024819D01*
X156633809Y-113024819D02*
X156729047Y-113072438D01*
X156729047Y-113072438D02*
X156776666Y-113120057D01*
X156776666Y-113120057D02*
X156824285Y-113215295D01*
X156824285Y-113215295D02*
X156871904Y-113405771D01*
X156871904Y-113405771D02*
X156871904Y-113643866D01*
X156871904Y-113643866D02*
X156824285Y-113834342D01*
X156824285Y-113834342D02*
X156776666Y-113929580D01*
X156776666Y-113929580D02*
X156729047Y-113977200D01*
X156729047Y-113977200D02*
X156633809Y-114024819D01*
X156633809Y-114024819D02*
X156538571Y-114024819D01*
X156538571Y-114024819D02*
X156443333Y-113977200D01*
X156443333Y-113977200D02*
X156395714Y-113929580D01*
X156395714Y-113929580D02*
X156348095Y-113834342D01*
X156348095Y-113834342D02*
X156300476Y-113643866D01*
X156300476Y-113643866D02*
X156300476Y-113405771D01*
X156300476Y-113405771D02*
X156348095Y-113215295D01*
X156348095Y-113215295D02*
X156395714Y-113120057D01*
X156395714Y-113120057D02*
X156443333Y-113072438D01*
X156443333Y-113072438D02*
X156538571Y-113024819D01*
X169714819Y-97062857D02*
X169238628Y-97396190D01*
X169714819Y-97634285D02*
X168714819Y-97634285D01*
X168714819Y-97634285D02*
X168714819Y-97253333D01*
X168714819Y-97253333D02*
X168762438Y-97158095D01*
X168762438Y-97158095D02*
X168810057Y-97110476D01*
X168810057Y-97110476D02*
X168905295Y-97062857D01*
X168905295Y-97062857D02*
X169048152Y-97062857D01*
X169048152Y-97062857D02*
X169143390Y-97110476D01*
X169143390Y-97110476D02*
X169191009Y-97158095D01*
X169191009Y-97158095D02*
X169238628Y-97253333D01*
X169238628Y-97253333D02*
X169238628Y-97634285D01*
X169714819Y-96110476D02*
X169714819Y-96681904D01*
X169714819Y-96396190D02*
X168714819Y-96396190D01*
X168714819Y-96396190D02*
X168857676Y-96491428D01*
X168857676Y-96491428D02*
X168952914Y-96586666D01*
X168952914Y-96586666D02*
X169000533Y-96681904D01*
X168714819Y-95777142D02*
X168714819Y-95110476D01*
X168714819Y-95110476D02*
X169714819Y-95539047D01*
X162014819Y-96575357D02*
X161538628Y-96908690D01*
X162014819Y-97146785D02*
X161014819Y-97146785D01*
X161014819Y-97146785D02*
X161014819Y-96765833D01*
X161014819Y-96765833D02*
X161062438Y-96670595D01*
X161062438Y-96670595D02*
X161110057Y-96622976D01*
X161110057Y-96622976D02*
X161205295Y-96575357D01*
X161205295Y-96575357D02*
X161348152Y-96575357D01*
X161348152Y-96575357D02*
X161443390Y-96622976D01*
X161443390Y-96622976D02*
X161491009Y-96670595D01*
X161491009Y-96670595D02*
X161538628Y-96765833D01*
X161538628Y-96765833D02*
X161538628Y-97146785D01*
X161110057Y-96194404D02*
X161062438Y-96146785D01*
X161062438Y-96146785D02*
X161014819Y-96051547D01*
X161014819Y-96051547D02*
X161014819Y-95813452D01*
X161014819Y-95813452D02*
X161062438Y-95718214D01*
X161062438Y-95718214D02*
X161110057Y-95670595D01*
X161110057Y-95670595D02*
X161205295Y-95622976D01*
X161205295Y-95622976D02*
X161300533Y-95622976D01*
X161300533Y-95622976D02*
X161443390Y-95670595D01*
X161443390Y-95670595D02*
X162014819Y-96242023D01*
X162014819Y-96242023D02*
X162014819Y-95622976D01*
X161014819Y-95003928D02*
X161014819Y-94908690D01*
X161014819Y-94908690D02*
X161062438Y-94813452D01*
X161062438Y-94813452D02*
X161110057Y-94765833D01*
X161110057Y-94765833D02*
X161205295Y-94718214D01*
X161205295Y-94718214D02*
X161395771Y-94670595D01*
X161395771Y-94670595D02*
X161633866Y-94670595D01*
X161633866Y-94670595D02*
X161824342Y-94718214D01*
X161824342Y-94718214D02*
X161919580Y-94765833D01*
X161919580Y-94765833D02*
X161967200Y-94813452D01*
X161967200Y-94813452D02*
X162014819Y-94908690D01*
X162014819Y-94908690D02*
X162014819Y-95003928D01*
X162014819Y-95003928D02*
X161967200Y-95099166D01*
X161967200Y-95099166D02*
X161919580Y-95146785D01*
X161919580Y-95146785D02*
X161824342Y-95194404D01*
X161824342Y-95194404D02*
X161633866Y-95242023D01*
X161633866Y-95242023D02*
X161395771Y-95242023D01*
X161395771Y-95242023D02*
X161205295Y-95194404D01*
X161205295Y-95194404D02*
X161110057Y-95146785D01*
X161110057Y-95146785D02*
X161062438Y-95099166D01*
X161062438Y-95099166D02*
X161014819Y-95003928D01*
X182319580Y-104862857D02*
X182367200Y-104910476D01*
X182367200Y-104910476D02*
X182414819Y-105053333D01*
X182414819Y-105053333D02*
X182414819Y-105148571D01*
X182414819Y-105148571D02*
X182367200Y-105291428D01*
X182367200Y-105291428D02*
X182271961Y-105386666D01*
X182271961Y-105386666D02*
X182176723Y-105434285D01*
X182176723Y-105434285D02*
X181986247Y-105481904D01*
X181986247Y-105481904D02*
X181843390Y-105481904D01*
X181843390Y-105481904D02*
X181652914Y-105434285D01*
X181652914Y-105434285D02*
X181557676Y-105386666D01*
X181557676Y-105386666D02*
X181462438Y-105291428D01*
X181462438Y-105291428D02*
X181414819Y-105148571D01*
X181414819Y-105148571D02*
X181414819Y-105053333D01*
X181414819Y-105053333D02*
X181462438Y-104910476D01*
X181462438Y-104910476D02*
X181510057Y-104862857D01*
X182414819Y-103910476D02*
X182414819Y-104481904D01*
X182414819Y-104196190D02*
X181414819Y-104196190D01*
X181414819Y-104196190D02*
X181557676Y-104291428D01*
X181557676Y-104291428D02*
X181652914Y-104386666D01*
X181652914Y-104386666D02*
X181700533Y-104481904D01*
X181414819Y-103577142D02*
X181414819Y-102910476D01*
X181414819Y-102910476D02*
X182414819Y-103339047D01*
X177414819Y-122886666D02*
X176938628Y-123219999D01*
X177414819Y-123458094D02*
X176414819Y-123458094D01*
X176414819Y-123458094D02*
X176414819Y-123077142D01*
X176414819Y-123077142D02*
X176462438Y-122981904D01*
X176462438Y-122981904D02*
X176510057Y-122934285D01*
X176510057Y-122934285D02*
X176605295Y-122886666D01*
X176605295Y-122886666D02*
X176748152Y-122886666D01*
X176748152Y-122886666D02*
X176843390Y-122934285D01*
X176843390Y-122934285D02*
X176891009Y-122981904D01*
X176891009Y-122981904D02*
X176938628Y-123077142D01*
X176938628Y-123077142D02*
X176938628Y-123458094D01*
X177414819Y-122410475D02*
X177414819Y-122219999D01*
X177414819Y-122219999D02*
X177367200Y-122124761D01*
X177367200Y-122124761D02*
X177319580Y-122077142D01*
X177319580Y-122077142D02*
X177176723Y-121981904D01*
X177176723Y-121981904D02*
X176986247Y-121934285D01*
X176986247Y-121934285D02*
X176605295Y-121934285D01*
X176605295Y-121934285D02*
X176510057Y-121981904D01*
X176510057Y-121981904D02*
X176462438Y-122029523D01*
X176462438Y-122029523D02*
X176414819Y-122124761D01*
X176414819Y-122124761D02*
X176414819Y-122315237D01*
X176414819Y-122315237D02*
X176462438Y-122410475D01*
X176462438Y-122410475D02*
X176510057Y-122458094D01*
X176510057Y-122458094D02*
X176605295Y-122505713D01*
X176605295Y-122505713D02*
X176843390Y-122505713D01*
X176843390Y-122505713D02*
X176938628Y-122458094D01*
X176938628Y-122458094D02*
X176986247Y-122410475D01*
X176986247Y-122410475D02*
X177033866Y-122315237D01*
X177033866Y-122315237D02*
X177033866Y-122124761D01*
X177033866Y-122124761D02*
X176986247Y-122029523D01*
X176986247Y-122029523D02*
X176938628Y-121981904D01*
X176938628Y-121981904D02*
X176843390Y-121934285D01*
X221954819Y-73648333D02*
X222669104Y-73648333D01*
X222669104Y-73648333D02*
X222811961Y-73695952D01*
X222811961Y-73695952D02*
X222907200Y-73791190D01*
X222907200Y-73791190D02*
X222954819Y-73934047D01*
X222954819Y-73934047D02*
X222954819Y-74029285D01*
X221954819Y-73267380D02*
X221954819Y-72648333D01*
X221954819Y-72648333D02*
X222335771Y-72981666D01*
X222335771Y-72981666D02*
X222335771Y-72838809D01*
X222335771Y-72838809D02*
X222383390Y-72743571D01*
X222383390Y-72743571D02*
X222431009Y-72695952D01*
X222431009Y-72695952D02*
X222526247Y-72648333D01*
X222526247Y-72648333D02*
X222764342Y-72648333D01*
X222764342Y-72648333D02*
X222859580Y-72695952D01*
X222859580Y-72695952D02*
X222907200Y-72743571D01*
X222907200Y-72743571D02*
X222954819Y-72838809D01*
X222954819Y-72838809D02*
X222954819Y-73124523D01*
X222954819Y-73124523D02*
X222907200Y-73219761D01*
X222907200Y-73219761D02*
X222859580Y-73267380D01*
X197664819Y-93631904D02*
X198474342Y-93631904D01*
X198474342Y-93631904D02*
X198569580Y-93584285D01*
X198569580Y-93584285D02*
X198617200Y-93536666D01*
X198617200Y-93536666D02*
X198664819Y-93441428D01*
X198664819Y-93441428D02*
X198664819Y-93250952D01*
X198664819Y-93250952D02*
X198617200Y-93155714D01*
X198617200Y-93155714D02*
X198569580Y-93108095D01*
X198569580Y-93108095D02*
X198474342Y-93060476D01*
X198474342Y-93060476D02*
X197664819Y-93060476D01*
X197664819Y-92679523D02*
X197664819Y-92060476D01*
X197664819Y-92060476D02*
X198045771Y-92393809D01*
X198045771Y-92393809D02*
X198045771Y-92250952D01*
X198045771Y-92250952D02*
X198093390Y-92155714D01*
X198093390Y-92155714D02*
X198141009Y-92108095D01*
X198141009Y-92108095D02*
X198236247Y-92060476D01*
X198236247Y-92060476D02*
X198474342Y-92060476D01*
X198474342Y-92060476D02*
X198569580Y-92108095D01*
X198569580Y-92108095D02*
X198617200Y-92155714D01*
X198617200Y-92155714D02*
X198664819Y-92250952D01*
X198664819Y-92250952D02*
X198664819Y-92536666D01*
X198664819Y-92536666D02*
X198617200Y-92631904D01*
X198617200Y-92631904D02*
X198569580Y-92679523D01*
X179519580Y-104862857D02*
X179567200Y-104910476D01*
X179567200Y-104910476D02*
X179614819Y-105053333D01*
X179614819Y-105053333D02*
X179614819Y-105148571D01*
X179614819Y-105148571D02*
X179567200Y-105291428D01*
X179567200Y-105291428D02*
X179471961Y-105386666D01*
X179471961Y-105386666D02*
X179376723Y-105434285D01*
X179376723Y-105434285D02*
X179186247Y-105481904D01*
X179186247Y-105481904D02*
X179043390Y-105481904D01*
X179043390Y-105481904D02*
X178852914Y-105434285D01*
X178852914Y-105434285D02*
X178757676Y-105386666D01*
X178757676Y-105386666D02*
X178662438Y-105291428D01*
X178662438Y-105291428D02*
X178614819Y-105148571D01*
X178614819Y-105148571D02*
X178614819Y-105053333D01*
X178614819Y-105053333D02*
X178662438Y-104910476D01*
X178662438Y-104910476D02*
X178710057Y-104862857D01*
X179614819Y-103910476D02*
X179614819Y-104481904D01*
X179614819Y-104196190D02*
X178614819Y-104196190D01*
X178614819Y-104196190D02*
X178757676Y-104291428D01*
X178757676Y-104291428D02*
X178852914Y-104386666D01*
X178852914Y-104386666D02*
X178900533Y-104481904D01*
X179043390Y-103339047D02*
X178995771Y-103434285D01*
X178995771Y-103434285D02*
X178948152Y-103481904D01*
X178948152Y-103481904D02*
X178852914Y-103529523D01*
X178852914Y-103529523D02*
X178805295Y-103529523D01*
X178805295Y-103529523D02*
X178710057Y-103481904D01*
X178710057Y-103481904D02*
X178662438Y-103434285D01*
X178662438Y-103434285D02*
X178614819Y-103339047D01*
X178614819Y-103339047D02*
X178614819Y-103148571D01*
X178614819Y-103148571D02*
X178662438Y-103053333D01*
X178662438Y-103053333D02*
X178710057Y-103005714D01*
X178710057Y-103005714D02*
X178805295Y-102958095D01*
X178805295Y-102958095D02*
X178852914Y-102958095D01*
X178852914Y-102958095D02*
X178948152Y-103005714D01*
X178948152Y-103005714D02*
X178995771Y-103053333D01*
X178995771Y-103053333D02*
X179043390Y-103148571D01*
X179043390Y-103148571D02*
X179043390Y-103339047D01*
X179043390Y-103339047D02*
X179091009Y-103434285D01*
X179091009Y-103434285D02*
X179138628Y-103481904D01*
X179138628Y-103481904D02*
X179233866Y-103529523D01*
X179233866Y-103529523D02*
X179424342Y-103529523D01*
X179424342Y-103529523D02*
X179519580Y-103481904D01*
X179519580Y-103481904D02*
X179567200Y-103434285D01*
X179567200Y-103434285D02*
X179614819Y-103339047D01*
X179614819Y-103339047D02*
X179614819Y-103148571D01*
X179614819Y-103148571D02*
X179567200Y-103053333D01*
X179567200Y-103053333D02*
X179519580Y-103005714D01*
X179519580Y-103005714D02*
X179424342Y-102958095D01*
X179424342Y-102958095D02*
X179233866Y-102958095D01*
X179233866Y-102958095D02*
X179138628Y-103005714D01*
X179138628Y-103005714D02*
X179091009Y-103053333D01*
X179091009Y-103053333D02*
X179043390Y-103148571D01*
X181049580Y-108486666D02*
X181097200Y-108534285D01*
X181097200Y-108534285D02*
X181144819Y-108677142D01*
X181144819Y-108677142D02*
X181144819Y-108772380D01*
X181144819Y-108772380D02*
X181097200Y-108915237D01*
X181097200Y-108915237D02*
X181001961Y-109010475D01*
X181001961Y-109010475D02*
X180906723Y-109058094D01*
X180906723Y-109058094D02*
X180716247Y-109105713D01*
X180716247Y-109105713D02*
X180573390Y-109105713D01*
X180573390Y-109105713D02*
X180382914Y-109058094D01*
X180382914Y-109058094D02*
X180287676Y-109010475D01*
X180287676Y-109010475D02*
X180192438Y-108915237D01*
X180192438Y-108915237D02*
X180144819Y-108772380D01*
X180144819Y-108772380D02*
X180144819Y-108677142D01*
X180144819Y-108677142D02*
X180192438Y-108534285D01*
X180192438Y-108534285D02*
X180240057Y-108486666D01*
X180573390Y-107915237D02*
X180525771Y-108010475D01*
X180525771Y-108010475D02*
X180478152Y-108058094D01*
X180478152Y-108058094D02*
X180382914Y-108105713D01*
X180382914Y-108105713D02*
X180335295Y-108105713D01*
X180335295Y-108105713D02*
X180240057Y-108058094D01*
X180240057Y-108058094D02*
X180192438Y-108010475D01*
X180192438Y-108010475D02*
X180144819Y-107915237D01*
X180144819Y-107915237D02*
X180144819Y-107724761D01*
X180144819Y-107724761D02*
X180192438Y-107629523D01*
X180192438Y-107629523D02*
X180240057Y-107581904D01*
X180240057Y-107581904D02*
X180335295Y-107534285D01*
X180335295Y-107534285D02*
X180382914Y-107534285D01*
X180382914Y-107534285D02*
X180478152Y-107581904D01*
X180478152Y-107581904D02*
X180525771Y-107629523D01*
X180525771Y-107629523D02*
X180573390Y-107724761D01*
X180573390Y-107724761D02*
X180573390Y-107915237D01*
X180573390Y-107915237D02*
X180621009Y-108010475D01*
X180621009Y-108010475D02*
X180668628Y-108058094D01*
X180668628Y-108058094D02*
X180763866Y-108105713D01*
X180763866Y-108105713D02*
X180954342Y-108105713D01*
X180954342Y-108105713D02*
X181049580Y-108058094D01*
X181049580Y-108058094D02*
X181097200Y-108010475D01*
X181097200Y-108010475D02*
X181144819Y-107915237D01*
X181144819Y-107915237D02*
X181144819Y-107724761D01*
X181144819Y-107724761D02*
X181097200Y-107629523D01*
X181097200Y-107629523D02*
X181049580Y-107581904D01*
X181049580Y-107581904D02*
X180954342Y-107534285D01*
X180954342Y-107534285D02*
X180763866Y-107534285D01*
X180763866Y-107534285D02*
X180668628Y-107581904D01*
X180668628Y-107581904D02*
X180621009Y-107629523D01*
X180621009Y-107629523D02*
X180573390Y-107724761D01*
X143500476Y-109974819D02*
X143500476Y-110689104D01*
X143500476Y-110689104D02*
X143452857Y-110831961D01*
X143452857Y-110831961D02*
X143357619Y-110927200D01*
X143357619Y-110927200D02*
X143214762Y-110974819D01*
X143214762Y-110974819D02*
X143119524Y-110974819D01*
X144500476Y-110974819D02*
X143929048Y-110974819D01*
X144214762Y-110974819D02*
X144214762Y-109974819D01*
X144214762Y-109974819D02*
X144119524Y-110117676D01*
X144119524Y-110117676D02*
X144024286Y-110212914D01*
X144024286Y-110212914D02*
X143929048Y-110260533D01*
X145357619Y-109974819D02*
X145167143Y-109974819D01*
X145167143Y-109974819D02*
X145071905Y-110022438D01*
X145071905Y-110022438D02*
X145024286Y-110070057D01*
X145024286Y-110070057D02*
X144929048Y-110212914D01*
X144929048Y-110212914D02*
X144881429Y-110403390D01*
X144881429Y-110403390D02*
X144881429Y-110784342D01*
X144881429Y-110784342D02*
X144929048Y-110879580D01*
X144929048Y-110879580D02*
X144976667Y-110927200D01*
X144976667Y-110927200D02*
X145071905Y-110974819D01*
X145071905Y-110974819D02*
X145262381Y-110974819D01*
X145262381Y-110974819D02*
X145357619Y-110927200D01*
X145357619Y-110927200D02*
X145405238Y-110879580D01*
X145405238Y-110879580D02*
X145452857Y-110784342D01*
X145452857Y-110784342D02*
X145452857Y-110546247D01*
X145452857Y-110546247D02*
X145405238Y-110451009D01*
X145405238Y-110451009D02*
X145357619Y-110403390D01*
X145357619Y-110403390D02*
X145262381Y-110355771D01*
X145262381Y-110355771D02*
X145071905Y-110355771D01*
X145071905Y-110355771D02*
X144976667Y-110403390D01*
X144976667Y-110403390D02*
X144929048Y-110451009D01*
X144929048Y-110451009D02*
X144881429Y-110546247D01*
X188367142Y-110024819D02*
X188033809Y-109548628D01*
X187795714Y-110024819D02*
X187795714Y-109024819D01*
X187795714Y-109024819D02*
X188176666Y-109024819D01*
X188176666Y-109024819D02*
X188271904Y-109072438D01*
X188271904Y-109072438D02*
X188319523Y-109120057D01*
X188319523Y-109120057D02*
X188367142Y-109215295D01*
X188367142Y-109215295D02*
X188367142Y-109358152D01*
X188367142Y-109358152D02*
X188319523Y-109453390D01*
X188319523Y-109453390D02*
X188271904Y-109501009D01*
X188271904Y-109501009D02*
X188176666Y-109548628D01*
X188176666Y-109548628D02*
X187795714Y-109548628D01*
X188748095Y-109120057D02*
X188795714Y-109072438D01*
X188795714Y-109072438D02*
X188890952Y-109024819D01*
X188890952Y-109024819D02*
X189129047Y-109024819D01*
X189129047Y-109024819D02*
X189224285Y-109072438D01*
X189224285Y-109072438D02*
X189271904Y-109120057D01*
X189271904Y-109120057D02*
X189319523Y-109215295D01*
X189319523Y-109215295D02*
X189319523Y-109310533D01*
X189319523Y-109310533D02*
X189271904Y-109453390D01*
X189271904Y-109453390D02*
X188700476Y-110024819D01*
X188700476Y-110024819D02*
X189319523Y-110024819D01*
X190176666Y-109358152D02*
X190176666Y-110024819D01*
X189938571Y-108977200D02*
X189700476Y-109691485D01*
X189700476Y-109691485D02*
X190319523Y-109691485D01*
X168343333Y-92759580D02*
X168295714Y-92807200D01*
X168295714Y-92807200D02*
X168152857Y-92854819D01*
X168152857Y-92854819D02*
X168057619Y-92854819D01*
X168057619Y-92854819D02*
X167914762Y-92807200D01*
X167914762Y-92807200D02*
X167819524Y-92711961D01*
X167819524Y-92711961D02*
X167771905Y-92616723D01*
X167771905Y-92616723D02*
X167724286Y-92426247D01*
X167724286Y-92426247D02*
X167724286Y-92283390D01*
X167724286Y-92283390D02*
X167771905Y-92092914D01*
X167771905Y-92092914D02*
X167819524Y-91997676D01*
X167819524Y-91997676D02*
X167914762Y-91902438D01*
X167914762Y-91902438D02*
X168057619Y-91854819D01*
X168057619Y-91854819D02*
X168152857Y-91854819D01*
X168152857Y-91854819D02*
X168295714Y-91902438D01*
X168295714Y-91902438D02*
X168343333Y-91950057D01*
X168819524Y-92854819D02*
X169010000Y-92854819D01*
X169010000Y-92854819D02*
X169105238Y-92807200D01*
X169105238Y-92807200D02*
X169152857Y-92759580D01*
X169152857Y-92759580D02*
X169248095Y-92616723D01*
X169248095Y-92616723D02*
X169295714Y-92426247D01*
X169295714Y-92426247D02*
X169295714Y-92045295D01*
X169295714Y-92045295D02*
X169248095Y-91950057D01*
X169248095Y-91950057D02*
X169200476Y-91902438D01*
X169200476Y-91902438D02*
X169105238Y-91854819D01*
X169105238Y-91854819D02*
X168914762Y-91854819D01*
X168914762Y-91854819D02*
X168819524Y-91902438D01*
X168819524Y-91902438D02*
X168771905Y-91950057D01*
X168771905Y-91950057D02*
X168724286Y-92045295D01*
X168724286Y-92045295D02*
X168724286Y-92283390D01*
X168724286Y-92283390D02*
X168771905Y-92378628D01*
X168771905Y-92378628D02*
X168819524Y-92426247D01*
X168819524Y-92426247D02*
X168914762Y-92473866D01*
X168914762Y-92473866D02*
X169105238Y-92473866D01*
X169105238Y-92473866D02*
X169200476Y-92426247D01*
X169200476Y-92426247D02*
X169248095Y-92378628D01*
X169248095Y-92378628D02*
X169295714Y-92283390D01*
X162014819Y-115062857D02*
X161538628Y-115396190D01*
X162014819Y-115634285D02*
X161014819Y-115634285D01*
X161014819Y-115634285D02*
X161014819Y-115253333D01*
X161014819Y-115253333D02*
X161062438Y-115158095D01*
X161062438Y-115158095D02*
X161110057Y-115110476D01*
X161110057Y-115110476D02*
X161205295Y-115062857D01*
X161205295Y-115062857D02*
X161348152Y-115062857D01*
X161348152Y-115062857D02*
X161443390Y-115110476D01*
X161443390Y-115110476D02*
X161491009Y-115158095D01*
X161491009Y-115158095D02*
X161538628Y-115253333D01*
X161538628Y-115253333D02*
X161538628Y-115634285D01*
X161014819Y-114729523D02*
X161014819Y-114110476D01*
X161014819Y-114110476D02*
X161395771Y-114443809D01*
X161395771Y-114443809D02*
X161395771Y-114300952D01*
X161395771Y-114300952D02*
X161443390Y-114205714D01*
X161443390Y-114205714D02*
X161491009Y-114158095D01*
X161491009Y-114158095D02*
X161586247Y-114110476D01*
X161586247Y-114110476D02*
X161824342Y-114110476D01*
X161824342Y-114110476D02*
X161919580Y-114158095D01*
X161919580Y-114158095D02*
X161967200Y-114205714D01*
X161967200Y-114205714D02*
X162014819Y-114300952D01*
X162014819Y-114300952D02*
X162014819Y-114586666D01*
X162014819Y-114586666D02*
X161967200Y-114681904D01*
X161967200Y-114681904D02*
X161919580Y-114729523D01*
X161014819Y-113205714D02*
X161014819Y-113681904D01*
X161014819Y-113681904D02*
X161491009Y-113729523D01*
X161491009Y-113729523D02*
X161443390Y-113681904D01*
X161443390Y-113681904D02*
X161395771Y-113586666D01*
X161395771Y-113586666D02*
X161395771Y-113348571D01*
X161395771Y-113348571D02*
X161443390Y-113253333D01*
X161443390Y-113253333D02*
X161491009Y-113205714D01*
X161491009Y-113205714D02*
X161586247Y-113158095D01*
X161586247Y-113158095D02*
X161824342Y-113158095D01*
X161824342Y-113158095D02*
X161919580Y-113205714D01*
X161919580Y-113205714D02*
X161967200Y-113253333D01*
X161967200Y-113253333D02*
X162014819Y-113348571D01*
X162014819Y-113348571D02*
X162014819Y-113586666D01*
X162014819Y-113586666D02*
X161967200Y-113681904D01*
X161967200Y-113681904D02*
X161919580Y-113729523D01*
X158014819Y-107162857D02*
X157538628Y-107496190D01*
X158014819Y-107734285D02*
X157014819Y-107734285D01*
X157014819Y-107734285D02*
X157014819Y-107353333D01*
X157014819Y-107353333D02*
X157062438Y-107258095D01*
X157062438Y-107258095D02*
X157110057Y-107210476D01*
X157110057Y-107210476D02*
X157205295Y-107162857D01*
X157205295Y-107162857D02*
X157348152Y-107162857D01*
X157348152Y-107162857D02*
X157443390Y-107210476D01*
X157443390Y-107210476D02*
X157491009Y-107258095D01*
X157491009Y-107258095D02*
X157538628Y-107353333D01*
X157538628Y-107353333D02*
X157538628Y-107734285D01*
X157014819Y-106829523D02*
X157014819Y-106210476D01*
X157014819Y-106210476D02*
X157395771Y-106543809D01*
X157395771Y-106543809D02*
X157395771Y-106400952D01*
X157395771Y-106400952D02*
X157443390Y-106305714D01*
X157443390Y-106305714D02*
X157491009Y-106258095D01*
X157491009Y-106258095D02*
X157586247Y-106210476D01*
X157586247Y-106210476D02*
X157824342Y-106210476D01*
X157824342Y-106210476D02*
X157919580Y-106258095D01*
X157919580Y-106258095D02*
X157967200Y-106305714D01*
X157967200Y-106305714D02*
X158014819Y-106400952D01*
X158014819Y-106400952D02*
X158014819Y-106686666D01*
X158014819Y-106686666D02*
X157967200Y-106781904D01*
X157967200Y-106781904D02*
X157919580Y-106829523D01*
X157014819Y-105877142D02*
X157014819Y-105210476D01*
X157014819Y-105210476D02*
X158014819Y-105639047D01*
X159614761Y-117370057D02*
X159519523Y-117322438D01*
X159519523Y-117322438D02*
X159424285Y-117227200D01*
X159424285Y-117227200D02*
X159281428Y-117084342D01*
X159281428Y-117084342D02*
X159186190Y-117036723D01*
X159186190Y-117036723D02*
X159090952Y-117036723D01*
X159138571Y-117274819D02*
X159043333Y-117227200D01*
X159043333Y-117227200D02*
X158948095Y-117131961D01*
X158948095Y-117131961D02*
X158900476Y-116941485D01*
X158900476Y-116941485D02*
X158900476Y-116608152D01*
X158900476Y-116608152D02*
X158948095Y-116417676D01*
X158948095Y-116417676D02*
X159043333Y-116322438D01*
X159043333Y-116322438D02*
X159138571Y-116274819D01*
X159138571Y-116274819D02*
X159329047Y-116274819D01*
X159329047Y-116274819D02*
X159424285Y-116322438D01*
X159424285Y-116322438D02*
X159519523Y-116417676D01*
X159519523Y-116417676D02*
X159567142Y-116608152D01*
X159567142Y-116608152D02*
X159567142Y-116941485D01*
X159567142Y-116941485D02*
X159519523Y-117131961D01*
X159519523Y-117131961D02*
X159424285Y-117227200D01*
X159424285Y-117227200D02*
X159329047Y-117274819D01*
X159329047Y-117274819D02*
X159138571Y-117274819D01*
X160424285Y-116274819D02*
X160233809Y-116274819D01*
X160233809Y-116274819D02*
X160138571Y-116322438D01*
X160138571Y-116322438D02*
X160090952Y-116370057D01*
X160090952Y-116370057D02*
X159995714Y-116512914D01*
X159995714Y-116512914D02*
X159948095Y-116703390D01*
X159948095Y-116703390D02*
X159948095Y-117084342D01*
X159948095Y-117084342D02*
X159995714Y-117179580D01*
X159995714Y-117179580D02*
X160043333Y-117227200D01*
X160043333Y-117227200D02*
X160138571Y-117274819D01*
X160138571Y-117274819D02*
X160329047Y-117274819D01*
X160329047Y-117274819D02*
X160424285Y-117227200D01*
X160424285Y-117227200D02*
X160471904Y-117179580D01*
X160471904Y-117179580D02*
X160519523Y-117084342D01*
X160519523Y-117084342D02*
X160519523Y-116846247D01*
X160519523Y-116846247D02*
X160471904Y-116751009D01*
X160471904Y-116751009D02*
X160424285Y-116703390D01*
X160424285Y-116703390D02*
X160329047Y-116655771D01*
X160329047Y-116655771D02*
X160138571Y-116655771D01*
X160138571Y-116655771D02*
X160043333Y-116703390D01*
X160043333Y-116703390D02*
X159995714Y-116751009D01*
X159995714Y-116751009D02*
X159948095Y-116846247D01*
X164114819Y-115258094D02*
X163114819Y-115258094D01*
X163114819Y-115258094D02*
X163114819Y-115019999D01*
X163114819Y-115019999D02*
X163162438Y-114877142D01*
X163162438Y-114877142D02*
X163257676Y-114781904D01*
X163257676Y-114781904D02*
X163352914Y-114734285D01*
X163352914Y-114734285D02*
X163543390Y-114686666D01*
X163543390Y-114686666D02*
X163686247Y-114686666D01*
X163686247Y-114686666D02*
X163876723Y-114734285D01*
X163876723Y-114734285D02*
X163971961Y-114781904D01*
X163971961Y-114781904D02*
X164067200Y-114877142D01*
X164067200Y-114877142D02*
X164114819Y-115019999D01*
X164114819Y-115019999D02*
X164114819Y-115258094D01*
X163448152Y-113829523D02*
X164114819Y-113829523D01*
X163067200Y-114067618D02*
X163781485Y-114305713D01*
X163781485Y-114305713D02*
X163781485Y-113686666D01*
X177877261Y-117070057D02*
X177782023Y-117022438D01*
X177782023Y-117022438D02*
X177686785Y-116927200D01*
X177686785Y-116927200D02*
X177543928Y-116784342D01*
X177543928Y-116784342D02*
X177448690Y-116736723D01*
X177448690Y-116736723D02*
X177353452Y-116736723D01*
X177401071Y-116974819D02*
X177305833Y-116927200D01*
X177305833Y-116927200D02*
X177210595Y-116831961D01*
X177210595Y-116831961D02*
X177162976Y-116641485D01*
X177162976Y-116641485D02*
X177162976Y-116308152D01*
X177162976Y-116308152D02*
X177210595Y-116117676D01*
X177210595Y-116117676D02*
X177305833Y-116022438D01*
X177305833Y-116022438D02*
X177401071Y-115974819D01*
X177401071Y-115974819D02*
X177591547Y-115974819D01*
X177591547Y-115974819D02*
X177686785Y-116022438D01*
X177686785Y-116022438D02*
X177782023Y-116117676D01*
X177782023Y-116117676D02*
X177829642Y-116308152D01*
X177829642Y-116308152D02*
X177829642Y-116641485D01*
X177829642Y-116641485D02*
X177782023Y-116831961D01*
X177782023Y-116831961D02*
X177686785Y-116927200D01*
X177686785Y-116927200D02*
X177591547Y-116974819D01*
X177591547Y-116974819D02*
X177401071Y-116974819D01*
X178162976Y-115974819D02*
X178829642Y-115974819D01*
X178829642Y-115974819D02*
X178401071Y-116974819D01*
X158660057Y-115677738D02*
X158612438Y-115772976D01*
X158612438Y-115772976D02*
X158517200Y-115868214D01*
X158517200Y-115868214D02*
X158374342Y-116011071D01*
X158374342Y-116011071D02*
X158326723Y-116106309D01*
X158326723Y-116106309D02*
X158326723Y-116201547D01*
X158564819Y-116153928D02*
X158517200Y-116249166D01*
X158517200Y-116249166D02*
X158421961Y-116344404D01*
X158421961Y-116344404D02*
X158231485Y-116392023D01*
X158231485Y-116392023D02*
X157898152Y-116392023D01*
X157898152Y-116392023D02*
X157707676Y-116344404D01*
X157707676Y-116344404D02*
X157612438Y-116249166D01*
X157612438Y-116249166D02*
X157564819Y-116153928D01*
X157564819Y-116153928D02*
X157564819Y-115963452D01*
X157564819Y-115963452D02*
X157612438Y-115868214D01*
X157612438Y-115868214D02*
X157707676Y-115772976D01*
X157707676Y-115772976D02*
X157898152Y-115725357D01*
X157898152Y-115725357D02*
X158231485Y-115725357D01*
X158231485Y-115725357D02*
X158421961Y-115772976D01*
X158421961Y-115772976D02*
X158517200Y-115868214D01*
X158517200Y-115868214D02*
X158564819Y-115963452D01*
X158564819Y-115963452D02*
X158564819Y-116153928D01*
X157898152Y-114868214D02*
X158564819Y-114868214D01*
X157517200Y-115106309D02*
X158231485Y-115344404D01*
X158231485Y-115344404D02*
X158231485Y-114725357D01*
X221954819Y-98128333D02*
X222669104Y-98128333D01*
X222669104Y-98128333D02*
X222811961Y-98175952D01*
X222811961Y-98175952D02*
X222907200Y-98271190D01*
X222907200Y-98271190D02*
X222954819Y-98414047D01*
X222954819Y-98414047D02*
X222954819Y-98509285D01*
X221954819Y-97175952D02*
X221954819Y-97652142D01*
X221954819Y-97652142D02*
X222431009Y-97699761D01*
X222431009Y-97699761D02*
X222383390Y-97652142D01*
X222383390Y-97652142D02*
X222335771Y-97556904D01*
X222335771Y-97556904D02*
X222335771Y-97318809D01*
X222335771Y-97318809D02*
X222383390Y-97223571D01*
X222383390Y-97223571D02*
X222431009Y-97175952D01*
X222431009Y-97175952D02*
X222526247Y-97128333D01*
X222526247Y-97128333D02*
X222764342Y-97128333D01*
X222764342Y-97128333D02*
X222859580Y-97175952D01*
X222859580Y-97175952D02*
X222907200Y-97223571D01*
X222907200Y-97223571D02*
X222954819Y-97318809D01*
X222954819Y-97318809D02*
X222954819Y-97556904D01*
X222954819Y-97556904D02*
X222907200Y-97652142D01*
X222907200Y-97652142D02*
X222859580Y-97699761D01*
D13*
%TO.C,J5*%
X197400000Y-71900000D02*
X206400000Y-71900000D01*
X206400000Y-71900000D02*
X206400000Y-86300000D01*
X197400000Y-86300000D02*
X197400000Y-85150000D01*
X206400000Y-86300000D02*
X204550000Y-86300000D01*
X197400000Y-80050000D02*
X197400000Y-71900000D01*
X199350000Y-86300000D02*
X197400000Y-86300000D01*
D14*
X202100000Y-87600000D02*
G75*
G02*
X201700000Y-87600000I-200000J0D01*
G01*
X201700000Y-87600000D02*
G75*
G02*
X202100000Y-87600000I200000J0D01*
G01*
D15*
%TO.C,U2*%
X128290000Y-90550000D02*
X134705000Y-90550000D01*
X128290000Y-108790000D02*
X128290000Y-90550000D01*
X128290000Y-108790000D02*
X134705000Y-108790000D01*
X134705000Y-108790000D02*
X134705000Y-109170000D01*
X153250000Y-90550000D02*
X154030000Y-90550000D01*
X153250000Y-108790000D02*
X154030000Y-108790000D01*
X154030000Y-90550000D02*
X154030000Y-91550000D01*
X154030000Y-108790000D02*
X154030000Y-107790000D01*
%TO.C,J2*%
X181495000Y-129560000D02*
X181495000Y-128110000D01*
X181495000Y-128110000D02*
X179695000Y-128110000D01*
X177325000Y-128110000D02*
X177325000Y-127120000D01*
X176795000Y-132380000D02*
X180225000Y-132380000D01*
X175525000Y-129560000D02*
X175525000Y-128110000D01*
X175525000Y-128110000D02*
X177325000Y-128110000D01*
%TO.C,SW2*%
X135710000Y-82320000D02*
X135710000Y-81320000D01*
X135760000Y-74320000D02*
X135760000Y-80120000D01*
X136710000Y-82320000D02*
X135710000Y-82320000D01*
X137710000Y-74120000D02*
X140310000Y-74120000D01*
X137710000Y-80320000D02*
X140310000Y-80320000D01*
X142260000Y-74220000D02*
X142260000Y-80220000D01*
%TO.C,C13*%
X181675000Y-108058748D02*
X181675000Y-108581252D01*
X183145000Y-108058748D02*
X183145000Y-108581252D01*
%TO.C,R38*%
X172175000Y-118484564D02*
X172175000Y-118030436D01*
X173645000Y-118484564D02*
X173645000Y-118030436D01*
%TO.C,D2*%
X177850000Y-117320000D02*
X177850000Y-120005000D01*
X177850000Y-120005000D02*
X179770000Y-120005000D01*
X179770000Y-120005000D02*
X179770000Y-117320000D01*
%TO.C,R32*%
X182982936Y-100085000D02*
X183437064Y-100085000D01*
X182982936Y-101555000D02*
X183437064Y-101555000D01*
%TO.C,J12*%
X181220000Y-77230000D02*
X179420000Y-77230000D01*
X181220000Y-75780000D02*
X181220000Y-77230000D01*
X179950000Y-72960000D02*
X175270000Y-72960000D01*
X179420000Y-77230000D02*
X179420000Y-78220000D01*
X174000000Y-77230000D02*
X175800000Y-77230000D01*
X174000000Y-75780000D02*
X174000000Y-77230000D01*
%TO.C,JP2*%
X171010000Y-108970000D02*
X171010000Y-107570000D01*
X171710000Y-106870000D02*
X172310000Y-106870000D01*
X172310000Y-109670000D02*
X171710000Y-109670000D01*
X173010000Y-107570000D02*
X173010000Y-108970000D01*
X171010000Y-107570000D02*
G75*
G02*
X171710000Y-106870000I700000J0D01*
G01*
X171710000Y-109670000D02*
G75*
G02*
X171010000Y-108970000I-1J699999D01*
G01*
X172310000Y-106870000D02*
G75*
G02*
X173010000Y-107570000I0J-700000D01*
G01*
X173010000Y-108970000D02*
G75*
G02*
X172310000Y-109670000I-699999J-1D01*
G01*
%TO.C,J9*%
X188895000Y-77230000D02*
X187095000Y-77230000D01*
X188895000Y-75780000D02*
X188895000Y-77230000D01*
X187625000Y-72960000D02*
X184195000Y-72960000D01*
X187095000Y-77230000D02*
X187095000Y-78220000D01*
X182925000Y-77230000D02*
X184725000Y-77230000D01*
X182925000Y-75780000D02*
X182925000Y-77230000D01*
%TO.C,J4*%
X209210000Y-84825000D02*
X209210000Y-95175000D01*
X209210000Y-95175000D02*
X210160000Y-95175000D01*
X209910000Y-95675000D02*
X211810000Y-95675000D01*
X210160000Y-95175000D02*
X209910000Y-95675000D01*
X211610000Y-95175000D02*
X217010000Y-95175000D01*
X211810000Y-95675000D02*
X211860000Y-95675000D01*
X211860000Y-95675000D02*
X211610000Y-95175000D01*
X216710000Y-95675000D02*
X221810000Y-95675000D01*
X217010000Y-95175000D02*
X216710000Y-95675000D01*
X221810000Y-84825000D02*
X209210000Y-84825000D01*
X221810000Y-95675000D02*
X221810000Y-84825000D01*
%TO.C,C5*%
X136448748Y-111085000D02*
X136971252Y-111085000D01*
X136448748Y-112555000D02*
X136971252Y-112555000D01*
%TO.C,C2*%
X185175000Y-109558748D02*
X185175000Y-110081252D01*
X186645000Y-109558748D02*
X186645000Y-110081252D01*
%TO.C,R14*%
X167275000Y-118030436D02*
X167275000Y-118484564D01*
X168745000Y-118030436D02*
X168745000Y-118484564D01*
%TO.C,R22*%
X174175000Y-93392936D02*
X174175000Y-93847064D01*
X175645000Y-93392936D02*
X175645000Y-93847064D01*
%TO.C,F1*%
X190000000Y-84017936D02*
X190000000Y-85222064D01*
X191820000Y-84017936D02*
X191820000Y-85222064D01*
%TO.C,L1*%
X182850000Y-103920378D02*
X182850000Y-104719622D01*
X183970000Y-103920378D02*
X183970000Y-104719622D01*
%TO.C,R31*%
X187082936Y-100085000D02*
X187537064Y-100085000D01*
X187082936Y-101555000D02*
X187537064Y-101555000D01*
%TO.C,D5*%
X167050000Y-113457500D02*
X167050000Y-116142500D01*
X167050000Y-116142500D02*
X168970000Y-116142500D01*
X168970000Y-116142500D02*
X168970000Y-113457500D01*
%TO.C,C6*%
X136971252Y-114385000D02*
X136448748Y-114385000D01*
X136971252Y-115855000D02*
X136448748Y-115855000D01*
%TO.C,SW1*%
X147710000Y-82420000D02*
X147710000Y-81420000D01*
X147760000Y-74420000D02*
X147760000Y-80220000D01*
X148710000Y-82420000D02*
X147710000Y-82420000D01*
X149710000Y-74220000D02*
X152310000Y-74220000D01*
X149710000Y-80420000D02*
X152310000Y-80420000D01*
X154260000Y-74320000D02*
X154260000Y-80320000D01*
%TO.C,Q3*%
X181400000Y-122757500D02*
X181400000Y-122107500D01*
X181400000Y-122757500D02*
X181400000Y-123407500D01*
X184520000Y-122757500D02*
X184520000Y-121082500D01*
X184520000Y-122757500D02*
X184520000Y-123407500D01*
%TO.C,J8*%
X159395000Y-129560000D02*
X159395000Y-128110000D01*
X159395000Y-128110000D02*
X157595000Y-128110000D01*
X155225000Y-128110000D02*
X155225000Y-127120000D01*
X154695000Y-132380000D02*
X158125000Y-132380000D01*
X153425000Y-129560000D02*
X153425000Y-128110000D01*
X153425000Y-128110000D02*
X155225000Y-128110000D01*
%TO.C,D7*%
X169450000Y-113457500D02*
X169450000Y-116142500D01*
X169450000Y-116142500D02*
X171370000Y-116142500D01*
X171370000Y-116142500D02*
X171370000Y-113457500D01*
%TO.C,R36*%
X158975000Y-122192936D02*
X158975000Y-122647064D01*
X160445000Y-122192936D02*
X160445000Y-122647064D01*
%TO.C,Q8*%
X172250000Y-114357500D02*
X172250000Y-113707500D01*
X172250000Y-114357500D02*
X172250000Y-115007500D01*
X175370000Y-114357500D02*
X175370000Y-112682500D01*
X175370000Y-114357500D02*
X175370000Y-115007500D01*
%TO.C,C21*%
X171275000Y-103992936D02*
X171275000Y-104447064D01*
X172745000Y-103992936D02*
X172745000Y-104447064D01*
%TO.C,D6*%
X184810000Y-82480000D02*
X187495000Y-82480000D01*
X187495000Y-80560000D02*
X184810000Y-80560000D01*
X187495000Y-82480000D02*
X187495000Y-80560000D01*
%TO.C,C10*%
X156348748Y-98585000D02*
X156871252Y-98585000D01*
X156348748Y-100055000D02*
X156871252Y-100055000D01*
%TO.C,J1*%
X136040000Y-86450000D02*
X136040000Y-85120000D01*
X137370000Y-86450000D02*
X136040000Y-86450000D01*
X138640000Y-83790000D02*
X151400000Y-83790000D01*
X138640000Y-86450000D02*
X138640000Y-83790000D01*
X138640000Y-86450000D02*
X151400000Y-86450000D01*
X151400000Y-86450000D02*
X151400000Y-83790000D01*
%TO.C,R41*%
X151575000Y-117347064D02*
X151575000Y-116892936D01*
X153045000Y-117347064D02*
X153045000Y-116892936D01*
%TO.C,R6*%
X174275000Y-122847064D02*
X174275000Y-122392936D01*
X175745000Y-122847064D02*
X175745000Y-122392936D01*
%TO.C,C14*%
X191448748Y-104985000D02*
X191971252Y-104985000D01*
X191448748Y-106455000D02*
X191971252Y-106455000D01*
%TO.C,C20*%
X187575000Y-93981252D02*
X187575000Y-93458748D01*
X189045000Y-93981252D02*
X189045000Y-93458748D01*
%TO.C,D12*%
X180550000Y-112435000D02*
X180550000Y-115120000D01*
X182470000Y-112435000D02*
X180550000Y-112435000D01*
X182470000Y-115120000D02*
X182470000Y-112435000D01*
%TO.C,R25*%
X192975000Y-103047064D02*
X192975000Y-102592936D01*
X194445000Y-103047064D02*
X194445000Y-102592936D01*
D16*
%TO.C,U9*%
X200483000Y-88493000D02*
X200483000Y-109147000D01*
X200483000Y-109147000D02*
X207737000Y-109147000D01*
X205886600Y-88493000D02*
X200483000Y-88493000D01*
X207737000Y-88493000D02*
X207033400Y-88493000D01*
X207737000Y-109147000D02*
X207737000Y-88493000D01*
D15*
%TO.C,Q9*%
X167910000Y-94660000D02*
X166235000Y-94660000D01*
X167910000Y-94660000D02*
X168560000Y-94660000D01*
X167910000Y-97780000D02*
X167260000Y-97780000D01*
X167910000Y-97780000D02*
X168560000Y-97780000D01*
%TO.C,C3*%
X144275000Y-76458748D02*
X144275000Y-76981252D01*
X145745000Y-76458748D02*
X145745000Y-76981252D01*
%TO.C,R13*%
X187275000Y-84592936D02*
X187275000Y-85047064D01*
X188745000Y-84592936D02*
X188745000Y-85047064D01*
%TO.C,C19*%
X174075000Y-103992936D02*
X174075000Y-104447064D01*
X175545000Y-103992936D02*
X175545000Y-104447064D01*
%TO.C,R5*%
X165975000Y-122192936D02*
X165975000Y-122647064D01*
X167445000Y-122192936D02*
X167445000Y-122647064D01*
D13*
%TO.C,U1*%
X185460000Y-103420000D02*
X185540000Y-103420000D01*
X185460000Y-103925000D02*
X185460000Y-103420000D01*
X185460000Y-106420000D02*
X185460000Y-105915000D01*
X185540000Y-106420000D02*
X185460000Y-106420000D01*
X187880000Y-103420000D02*
X187960000Y-103420000D01*
X187880000Y-106420000D02*
X187960000Y-106420000D01*
X187960000Y-103420000D02*
X187960000Y-103725000D01*
X187960000Y-106420000D02*
X187960000Y-106115000D01*
D17*
X188810000Y-106070000D02*
G75*
G02*
X188610000Y-106070000I-100000J0D01*
G01*
X188610000Y-106070000D02*
G75*
G02*
X188810000Y-106070000I100000J0D01*
G01*
D15*
%TO.C,C1*%
X174875000Y-108058748D02*
X174875000Y-108581252D01*
X176345000Y-108058748D02*
X176345000Y-108581252D01*
%TO.C,J17*%
X172320000Y-77230000D02*
X170520000Y-77230000D01*
X172320000Y-75780000D02*
X172320000Y-77230000D01*
X171050000Y-72960000D02*
X166370000Y-72960000D01*
X170520000Y-77230000D02*
X170520000Y-78220000D01*
X165100000Y-77230000D02*
X166900000Y-77230000D01*
X165100000Y-75780000D02*
X165100000Y-77230000D01*
%TO.C,Q5*%
X184810000Y-83260000D02*
X183135000Y-83260000D01*
X184810000Y-83260000D02*
X185460000Y-83260000D01*
X184810000Y-86380000D02*
X184160000Y-86380000D01*
X184810000Y-86380000D02*
X185460000Y-86380000D01*
D13*
%TO.C,U6*%
X175345000Y-96265000D02*
X173245000Y-96265000D01*
X175345000Y-98675000D02*
X173245000Y-98675000D01*
D17*
X176340000Y-98220000D02*
G75*
G02*
X176140000Y-98220000I-100000J0D01*
G01*
X176140000Y-98220000D02*
G75*
G02*
X176340000Y-98220000I100000J0D01*
G01*
D15*
%TO.C,D11*%
X148550000Y-120535000D02*
X148550000Y-123220000D01*
X150470000Y-120535000D02*
X148550000Y-120535000D01*
X150470000Y-123220000D02*
X150470000Y-120535000D01*
%TO.C,R1*%
X144275000Y-80592936D02*
X144275000Y-81047064D01*
X145745000Y-80592936D02*
X145745000Y-81047064D01*
%TO.C,J14*%
X176300000Y-92910000D02*
X176300000Y-95410000D01*
X176600000Y-93210000D02*
X176600000Y-100930000D01*
X176600000Y-100930000D02*
X180620000Y-100930000D01*
X178100000Y-93210000D02*
X178100000Y-94210000D01*
X178100000Y-94210000D02*
X176600000Y-94210000D01*
X178100000Y-99930000D02*
X176600000Y-99930000D01*
X178100000Y-100930000D02*
X178100000Y-99930000D01*
X178800000Y-92910000D02*
X176300000Y-92910000D01*
X178910000Y-93210000D02*
X178910000Y-93710000D01*
X178910000Y-93710000D02*
X180120000Y-93710000D01*
X178910000Y-100430000D02*
X178910000Y-100930000D01*
X180120000Y-93710000D02*
X180120000Y-100430000D01*
X180120000Y-100430000D02*
X178910000Y-100430000D01*
X180620000Y-93210000D02*
X176600000Y-93210000D01*
X180620000Y-100930000D02*
X180620000Y-93210000D01*
%TO.C,D1*%
X183050000Y-112435000D02*
X183050000Y-115120000D01*
X184970000Y-112435000D02*
X183050000Y-112435000D01*
X184970000Y-115120000D02*
X184970000Y-112435000D01*
%TO.C,J6*%
X209210000Y-109305000D02*
X209210000Y-119655000D01*
X209210000Y-119655000D02*
X210160000Y-119655000D01*
X209910000Y-120155000D02*
X211810000Y-120155000D01*
X210160000Y-119655000D02*
X209910000Y-120155000D01*
X211610000Y-119655000D02*
X217010000Y-119655000D01*
X211810000Y-120155000D02*
X211860000Y-120155000D01*
X211860000Y-120155000D02*
X211610000Y-119655000D01*
X216710000Y-120155000D02*
X221810000Y-120155000D01*
X217010000Y-119655000D02*
X216710000Y-120155000D01*
X221810000Y-109305000D02*
X209210000Y-109305000D01*
X221810000Y-120155000D02*
X221810000Y-109305000D01*
%TO.C,R39*%
X163875000Y-95892936D02*
X163875000Y-96347064D01*
X165345000Y-95892936D02*
X165345000Y-96347064D01*
%TO.C,R23*%
X188782936Y-108285000D02*
X189237064Y-108285000D01*
X188782936Y-109755000D02*
X189237064Y-109755000D01*
%TO.C,Y1*%
X164435000Y-92495000D02*
X164435000Y-91145000D01*
X166185000Y-92495000D02*
X166185000Y-91145000D01*
%TO.C,D8*%
X155150000Y-121320000D02*
X155150000Y-124005000D01*
X155150000Y-124005000D02*
X157070000Y-124005000D01*
X157070000Y-124005000D02*
X157070000Y-121320000D01*
D17*
%TO.C,U7*%
X186815000Y-88475000D02*
G75*
G02*
X186615000Y-88475000I-100000J0D01*
G01*
X186615000Y-88475000D02*
G75*
G02*
X186815000Y-88475000I100000J0D01*
G01*
D13*
X186760000Y-90920000D02*
X186760000Y-94920000D01*
X181660000Y-90920000D02*
X181660000Y-94920000D01*
D15*
%TO.C,R29*%
X185682936Y-87085000D02*
X186137064Y-87085000D01*
X185682936Y-88555000D02*
X186137064Y-88555000D01*
%TO.C,BZ1*%
X181510000Y-85520000D02*
G75*
G02*
X169310000Y-85520000I-6100000J0D01*
G01*
X169310000Y-85520000D02*
G75*
G02*
X181510000Y-85520000I6100000J0D01*
G01*
%TO.C,R30*%
X191345000Y-102592936D02*
X191345000Y-103047064D01*
X189875000Y-102592936D02*
X189875000Y-103047064D01*
%TO.C,R12*%
X164575000Y-118092936D02*
X164575000Y-118547064D01*
X166045000Y-118092936D02*
X166045000Y-118547064D01*
%TO.C,R8*%
X162675000Y-122647064D02*
X162675000Y-122192936D01*
X164145000Y-122647064D02*
X164145000Y-122192936D01*
%TO.C,J10*%
X170520000Y-129510000D02*
X170520000Y-128060000D01*
X170520000Y-128060000D02*
X168720000Y-128060000D01*
X166350000Y-128060000D02*
X166350000Y-127070000D01*
X165820000Y-132330000D02*
X169250000Y-132330000D01*
X164550000Y-129510000D02*
X164550000Y-128060000D01*
X164550000Y-128060000D02*
X166350000Y-128060000D01*
%TO.C,R11*%
X176012064Y-118185000D02*
X175557936Y-118185000D01*
X176012064Y-119655000D02*
X175557936Y-119655000D01*
%TO.C,D3*%
X151650000Y-120635000D02*
X151650000Y-123320000D01*
X153570000Y-120635000D02*
X151650000Y-120635000D01*
X153570000Y-123320000D02*
X153570000Y-120635000D01*
%TO.C,C7*%
X137021252Y-117785000D02*
X136498748Y-117785000D01*
X137021252Y-119255000D02*
X136498748Y-119255000D01*
%TO.C,Q2*%
X169300000Y-122757500D02*
X169300000Y-122107500D01*
X169300000Y-122757500D02*
X169300000Y-123407500D01*
X172420000Y-122757500D02*
X172420000Y-121082500D01*
X172420000Y-122757500D02*
X172420000Y-123407500D01*
%TO.C,D9*%
X154950000Y-101720000D02*
X154950000Y-104405000D01*
X154950000Y-104405000D02*
X156870000Y-104405000D01*
X156870000Y-104405000D02*
X156870000Y-101720000D01*
%TO.C,R26*%
X161475000Y-95692936D02*
X161475000Y-96147064D01*
X162945000Y-95692936D02*
X162945000Y-96147064D01*
D16*
%TO.C,U5*%
X158977600Y-100510000D02*
X158977600Y-104624800D01*
X158977600Y-104624800D02*
X158977600Y-108130000D01*
X169442400Y-108130000D02*
X169442400Y-100510000D01*
X158952200Y-104015200D02*
G75*
G02*
X158977600Y-104624800I12700J-304800D01*
G01*
D15*
%TO.C,Q10*%
X150150000Y-113020000D02*
X150150000Y-112370000D01*
X150150000Y-113020000D02*
X150150000Y-113670000D01*
X153270000Y-113020000D02*
X153270000Y-111345000D01*
X153270000Y-113020000D02*
X153270000Y-113670000D01*
%TO.C,C4*%
X168771252Y-92085000D02*
X168248748Y-92085000D01*
X168771252Y-93555000D02*
X168248748Y-93555000D01*
%TO.C,C12*%
X164575000Y-87658748D02*
X164575000Y-88181252D01*
X166045000Y-87658748D02*
X166045000Y-88181252D01*
%TO.C,R40*%
X171175000Y-92792936D02*
X171175000Y-93247064D01*
X172645000Y-92792936D02*
X172645000Y-93247064D01*
%TO.C,C15*%
X198075000Y-89908748D02*
X198075000Y-90431252D01*
X199545000Y-89908748D02*
X199545000Y-90431252D01*
%TO.C,R19*%
X170375000Y-100447064D02*
X170375000Y-99992936D01*
X171845000Y-100447064D02*
X171845000Y-99992936D01*
%TO.C,R15*%
X169675000Y-118030436D02*
X169675000Y-118484564D01*
X171145000Y-118030436D02*
X171145000Y-118484564D01*
D16*
%TO.C,K1*%
X200283000Y-111493000D02*
X200283000Y-132147000D01*
X200283000Y-132147000D02*
X207537000Y-132147000D01*
X205686600Y-111493000D02*
X200283000Y-111493000D01*
X207537000Y-111493000D02*
X206833400Y-111493000D01*
X207537000Y-132147000D02*
X207537000Y-111493000D01*
D15*
%TO.C,D13*%
X185625000Y-97060000D02*
X185625000Y-98980000D01*
X185625000Y-98980000D02*
X188310000Y-98980000D01*
X188310000Y-97060000D02*
X185625000Y-97060000D01*
%TO.C,R21*%
X156875000Y-95705436D02*
X156875000Y-96159564D01*
X158345000Y-95705436D02*
X158345000Y-96159564D01*
%TO.C,R16*%
X185875000Y-114347064D02*
X185875000Y-113892936D01*
X187345000Y-114347064D02*
X187345000Y-113892936D01*
D16*
%TO.C,U8*%
X157676400Y-93061600D02*
X161943600Y-93061600D01*
X161943600Y-87778400D02*
X157676400Y-87778400D01*
D15*
%TO.C,D14*%
X181525000Y-97060000D02*
X181525000Y-98980000D01*
X181525000Y-98980000D02*
X184210000Y-98980000D01*
X184210000Y-97060000D02*
X181525000Y-97060000D01*
%TO.C,D10*%
X166950000Y-86820000D02*
X166950000Y-89505000D01*
X166950000Y-89505000D02*
X168870000Y-89505000D01*
X168870000Y-89505000D02*
X168870000Y-86820000D01*
%TO.C,J18*%
X163420000Y-77230000D02*
X161620000Y-77230000D01*
X163420000Y-75780000D02*
X163420000Y-77230000D01*
X162150000Y-72960000D02*
X157470000Y-72960000D01*
X161620000Y-77230000D02*
X161620000Y-78220000D01*
X156200000Y-77230000D02*
X158000000Y-77230000D01*
X156200000Y-75780000D02*
X156200000Y-77230000D01*
%TO.C,J15*%
X163545000Y-83660000D02*
X163545000Y-82060000D01*
X163545000Y-82060000D02*
X161745000Y-82060000D01*
X162275000Y-86530000D02*
X156345000Y-86530000D01*
X161745000Y-82060000D02*
X161745000Y-81120000D01*
X155075000Y-83660000D02*
X155075000Y-82060000D01*
X155075000Y-82060000D02*
X156875000Y-82060000D01*
%TO.C,J19*%
X147795000Y-129360000D02*
X147795000Y-127910000D01*
X147795000Y-127910000D02*
X145995000Y-127910000D01*
X143625000Y-127910000D02*
X143625000Y-126920000D01*
X143095000Y-132180000D02*
X146525000Y-132180000D01*
X141825000Y-129360000D02*
X141825000Y-127910000D01*
X141825000Y-127910000D02*
X143625000Y-127910000D01*
%TO.C,J7*%
X209210000Y-121545000D02*
X209210000Y-131895000D01*
X209210000Y-131895000D02*
X210160000Y-131895000D01*
X209910000Y-132395000D02*
X211810000Y-132395000D01*
X210160000Y-131895000D02*
X209910000Y-132395000D01*
X211610000Y-131895000D02*
X217010000Y-131895000D01*
X211810000Y-132395000D02*
X211860000Y-132395000D01*
X211860000Y-132395000D02*
X211610000Y-131895000D01*
X216710000Y-132395000D02*
X221810000Y-132395000D01*
X217010000Y-131895000D02*
X216710000Y-132395000D01*
X221810000Y-121545000D02*
X209210000Y-121545000D01*
X221810000Y-132395000D02*
X221810000Y-121545000D01*
%TO.C,R10*%
X155837064Y-111185000D02*
X155382936Y-111185000D01*
X155837064Y-112655000D02*
X155382936Y-112655000D01*
%TO.C,R17*%
X170175000Y-96647064D02*
X170175000Y-96192936D01*
X171645000Y-96647064D02*
X171645000Y-96192936D01*
%TO.C,R20*%
X159175000Y-95705436D02*
X159175000Y-96159564D01*
X160645000Y-95705436D02*
X160645000Y-96159564D01*
%TO.C,C17*%
X179575000Y-103992936D02*
X179575000Y-104447064D01*
X181045000Y-103992936D02*
X181045000Y-104447064D01*
%TO.C,R9*%
X177875000Y-122947064D02*
X177875000Y-122492936D01*
X179345000Y-122947064D02*
X179345000Y-122492936D01*
%TO.C,J3*%
X209210000Y-72585000D02*
X209210000Y-82935000D01*
X209210000Y-82935000D02*
X210160000Y-82935000D01*
X209910000Y-83435000D02*
X211810000Y-83435000D01*
X210160000Y-82935000D02*
X209910000Y-83435000D01*
X211610000Y-82935000D02*
X217010000Y-82935000D01*
X211810000Y-83435000D02*
X211860000Y-83435000D01*
X211860000Y-83435000D02*
X211610000Y-82935000D01*
X216710000Y-83435000D02*
X221810000Y-83435000D01*
X217010000Y-82935000D02*
X216710000Y-83435000D01*
X221810000Y-72585000D02*
X209210000Y-72585000D01*
X221810000Y-83435000D02*
X221810000Y-72585000D01*
%TO.C,U3*%
X190300000Y-91020000D02*
X190300000Y-94780000D01*
X190300000Y-94780000D02*
X191560000Y-94780000D01*
X197120000Y-88770000D02*
X197120000Y-94780000D01*
X197120000Y-94780000D02*
X195860000Y-94780000D01*
%TO.C,C18*%
X176775000Y-103992936D02*
X176775000Y-104447064D01*
X178245000Y-103992936D02*
X178245000Y-104447064D01*
%TO.C,C8*%
X178275000Y-108058748D02*
X178275000Y-108581252D01*
X179745000Y-108058748D02*
X179745000Y-108581252D01*
%TO.C,J16*%
X149170000Y-116380000D02*
X147370000Y-116380000D01*
X149170000Y-114780000D02*
X149170000Y-116380000D01*
X141250000Y-116380000D02*
X141250000Y-117320000D01*
X140720000Y-111910000D02*
X147900000Y-111910000D01*
X139450000Y-116380000D02*
X141250000Y-116380000D01*
X139450000Y-114780000D02*
X139450000Y-116380000D01*
%TO.C,R24*%
X188782936Y-110485000D02*
X189237064Y-110485000D01*
X188782936Y-111955000D02*
X189237064Y-111955000D01*
%TO.C,C9*%
X168771252Y-89985000D02*
X168248748Y-89985000D01*
X168771252Y-91455000D02*
X168248748Y-91455000D01*
%TO.C,R35*%
X162475000Y-114647064D02*
X162475000Y-114192936D01*
X163945000Y-114647064D02*
X163945000Y-114192936D01*
%TO.C,R37*%
X155175000Y-106292936D02*
X155175000Y-106747064D01*
X156645000Y-106292936D02*
X156645000Y-106747064D01*
%TO.C,Q6*%
X159710000Y-112860000D02*
X159060000Y-112860000D01*
X159710000Y-112860000D02*
X160360000Y-112860000D01*
X159710000Y-115980000D02*
X159060000Y-115980000D01*
X159710000Y-115980000D02*
X161385000Y-115980000D01*
%TO.C,D4*%
X164350000Y-113520000D02*
X164350000Y-116205000D01*
X164350000Y-116205000D02*
X166270000Y-116205000D01*
X166270000Y-116205000D02*
X166270000Y-113520000D01*
%TO.C,Q7*%
X177972500Y-112560000D02*
X177322500Y-112560000D01*
X177972500Y-112560000D02*
X178622500Y-112560000D01*
X177972500Y-115680000D02*
X177322500Y-115680000D01*
X177972500Y-115680000D02*
X179647500Y-115680000D01*
%TO.C,Q4*%
X154150000Y-115582500D02*
X154150000Y-114932500D01*
X154150000Y-115582500D02*
X154150000Y-116232500D01*
X157270000Y-115582500D02*
X157270000Y-113907500D01*
X157270000Y-115582500D02*
X157270000Y-116232500D01*
%TO.C,C16*%
X198075000Y-94531252D02*
X198075000Y-94008748D01*
X199545000Y-94531252D02*
X199545000Y-94008748D01*
%TO.C,J5*%
X209210000Y-97065000D02*
X209210000Y-107415000D01*
X209210000Y-107415000D02*
X210160000Y-107415000D01*
X209910000Y-107915000D02*
X211810000Y-107915000D01*
X210160000Y-107415000D02*
X209910000Y-107915000D01*
X211610000Y-107415000D02*
X217010000Y-107415000D01*
X211810000Y-107915000D02*
X211860000Y-107915000D01*
X211860000Y-107915000D02*
X211610000Y-107415000D01*
X216710000Y-107915000D02*
X221810000Y-107915000D01*
X217010000Y-107415000D02*
X216710000Y-107915000D01*
X221810000Y-97065000D02*
X209210000Y-97065000D01*
X221810000Y-107915000D02*
X221810000Y-97065000D01*
%TD*%
M02*
