%TF.GenerationSoftware,KiCad,Pcbnew,8.0.3*%
%TF.CreationDate,2024-06-22T21:39:14+05:00*%
%TF.ProjectId,Capibator_PCB,43617069-6261-4746-9f72-5f5043422e6b,1.1*%
%TF.SameCoordinates,Original*%
%TF.FileFunction,Copper,L1,Top*%
%TF.FilePolarity,Positive*%
%FSLAX46Y46*%
G04 Gerber Fmt 4.6, Leading zero omitted, Abs format (unit mm)*
G04 Created by KiCad (PCBNEW 8.0.3) date 2024-06-22 21:39:14*
%MOMM*%
%LPD*%
G01*
G04 APERTURE LIST*
G04 Aperture macros list*
%AMRoundRect*
0 Rectangle with rounded corners*
0 $1 Rounding radius*
0 $2 $3 $4 $5 $6 $7 $8 $9 X,Y pos of 4 corners*
0 Add a 4 corners polygon primitive as box body*
4,1,4,$2,$3,$4,$5,$6,$7,$8,$9,$2,$3,0*
0 Add four circle primitives for the rounded corners*
1,1,$1+$1,$2,$3*
1,1,$1+$1,$4,$5*
1,1,$1+$1,$6,$7*
1,1,$1+$1,$8,$9*
0 Add four rect primitives between the rounded corners*
20,1,$1+$1,$2,$3,$4,$5,0*
20,1,$1+$1,$4,$5,$6,$7,0*
20,1,$1+$1,$6,$7,$8,$9,0*
20,1,$1+$1,$8,$9,$2,$3,0*%
%AMFreePoly0*
4,1,19,0.500000,-0.750000,0.000000,-0.750000,0.000000,-0.744911,-0.071157,-0.744911,-0.207708,-0.704816,-0.327430,-0.627875,-0.420627,-0.520320,-0.479746,-0.390866,-0.500000,-0.250000,-0.500000,0.250000,-0.479746,0.390866,-0.420627,0.520320,-0.327430,0.627875,-0.207708,0.704816,-0.071157,0.744911,0.000000,0.744911,0.000000,0.750000,0.500000,0.750000,0.500000,-0.750000,0.500000,-0.750000,
$1*%
%AMFreePoly1*
4,1,19,0.000000,0.744911,0.071157,0.744911,0.207708,0.704816,0.327430,0.627875,0.420627,0.520320,0.479746,0.390866,0.500000,0.250000,0.500000,-0.250000,0.479746,-0.390866,0.420627,-0.520320,0.327430,-0.627875,0.207708,-0.704816,0.071157,-0.744911,0.000000,-0.744911,0.000000,-0.750000,-0.500000,-0.750000,-0.500000,0.750000,0.000000,0.750000,0.000000,0.744911,0.000000,0.744911,
$1*%
G04 Aperture macros list end*
%TA.AperFunction,EtchedComponent*%
%ADD10C,0.000000*%
%TD*%
%TA.AperFunction,ComponentPad*%
%ADD11O,5.000000X2.500000*%
%TD*%
%TA.AperFunction,ComponentPad*%
%ADD12O,4.500000X2.250000*%
%TD*%
%TA.AperFunction,ComponentPad*%
%ADD13O,2.250000X4.500000*%
%TD*%
%TA.AperFunction,SMDPad,CuDef*%
%ADD14R,0.900000X1.500000*%
%TD*%
%TA.AperFunction,SMDPad,CuDef*%
%ADD15R,1.500000X0.900000*%
%TD*%
%TA.AperFunction,SMDPad,CuDef*%
%ADD16R,1.050000X1.050000*%
%TD*%
%TA.AperFunction,HeatsinkPad*%
%ADD17C,0.600000*%
%TD*%
%TA.AperFunction,SMDPad,CuDef*%
%ADD18R,4.200000X4.200000*%
%TD*%
%TA.AperFunction,SMDPad,CuDef*%
%ADD19RoundRect,0.250000X-0.250000X-1.100000X0.250000X-1.100000X0.250000X1.100000X-0.250000X1.100000X0*%
%TD*%
%TA.AperFunction,SMDPad,CuDef*%
%ADD20RoundRect,0.150000X-0.150000X-0.700000X0.150000X-0.700000X0.150000X0.700000X-0.150000X0.700000X0*%
%TD*%
%TA.AperFunction,SMDPad,CuDef*%
%ADD21R,1.400000X1.600000*%
%TD*%
%TA.AperFunction,SMDPad,CuDef*%
%ADD22RoundRect,0.250000X-0.475000X0.250000X-0.475000X-0.250000X0.475000X-0.250000X0.475000X0.250000X0*%
%TD*%
%TA.AperFunction,SMDPad,CuDef*%
%ADD23RoundRect,0.250000X0.450000X-0.262500X0.450000X0.262500X-0.450000X0.262500X-0.450000X-0.262500X0*%
%TD*%
%TA.AperFunction,SMDPad,CuDef*%
%ADD24RoundRect,0.243750X0.456250X-0.243750X0.456250X0.243750X-0.456250X0.243750X-0.456250X-0.243750X0*%
%TD*%
%TA.AperFunction,SMDPad,CuDef*%
%ADD25RoundRect,0.250000X-0.262500X-0.450000X0.262500X-0.450000X0.262500X0.450000X-0.262500X0.450000X0*%
%TD*%
%TA.AperFunction,SMDPad,CuDef*%
%ADD26RoundRect,0.250000X0.250000X1.100000X-0.250000X1.100000X-0.250000X-1.100000X0.250000X-1.100000X0*%
%TD*%
%TA.AperFunction,SMDPad,CuDef*%
%ADD27RoundRect,0.150000X0.150000X0.700000X-0.150000X0.700000X-0.150000X-0.700000X0.150000X-0.700000X0*%
%TD*%
%TA.AperFunction,SMDPad,CuDef*%
%ADD28FreePoly0,90.000000*%
%TD*%
%TA.AperFunction,SMDPad,CuDef*%
%ADD29FreePoly1,90.000000*%
%TD*%
%TA.AperFunction,ComponentPad*%
%ADD30R,3.960000X1.980000*%
%TD*%
%TA.AperFunction,ComponentPad*%
%ADD31O,3.960000X1.980000*%
%TD*%
%TA.AperFunction,SMDPad,CuDef*%
%ADD32RoundRect,0.250000X-0.250000X-0.475000X0.250000X-0.475000X0.250000X0.475000X-0.250000X0.475000X0*%
%TD*%
%TA.AperFunction,SMDPad,CuDef*%
%ADD33RoundRect,0.250000X-0.450000X0.262500X-0.450000X-0.262500X0.450000X-0.262500X0.450000X0.262500X0*%
%TD*%
%TA.AperFunction,SMDPad,CuDef*%
%ADD34RoundRect,0.250000X-0.625000X0.375000X-0.625000X-0.375000X0.625000X-0.375000X0.625000X0.375000X0*%
%TD*%
%TA.AperFunction,SMDPad,CuDef*%
%ADD35RoundRect,0.218750X-0.381250X0.218750X-0.381250X-0.218750X0.381250X-0.218750X0.381250X0.218750X0*%
%TD*%
%TA.AperFunction,SMDPad,CuDef*%
%ADD36RoundRect,0.250000X0.250000X0.475000X-0.250000X0.475000X-0.250000X-0.475000X0.250000X-0.475000X0*%
%TD*%
%TA.AperFunction,SMDPad,CuDef*%
%ADD37RoundRect,0.150000X-0.150000X0.587500X-0.150000X-0.587500X0.150000X-0.587500X0.150000X0.587500X0*%
%TD*%
%TA.AperFunction,SMDPad,CuDef*%
%ADD38RoundRect,0.243750X0.243750X0.456250X-0.243750X0.456250X-0.243750X-0.456250X0.243750X-0.456250X0*%
%TD*%
%TA.AperFunction,ComponentPad*%
%ADD39R,1.700000X1.700000*%
%TD*%
%TA.AperFunction,ComponentPad*%
%ADD40O,1.700000X1.700000*%
%TD*%
%TA.AperFunction,SMDPad,CuDef*%
%ADD41RoundRect,0.250000X0.475000X-0.250000X0.475000X0.250000X-0.475000X0.250000X-0.475000X-0.250000X0*%
%TD*%
%TA.AperFunction,SMDPad,CuDef*%
%ADD42RoundRect,0.243750X-0.456250X0.243750X-0.456250X-0.243750X0.456250X-0.243750X0.456250X0.243750X0*%
%TD*%
%TA.AperFunction,ComponentPad*%
%ADD43C,1.608000*%
%TD*%
%TA.AperFunction,SMDPad,CuDef*%
%ADD44RoundRect,0.150000X-0.587500X-0.150000X0.587500X-0.150000X0.587500X0.150000X-0.587500X0.150000X0*%
%TD*%
%TA.AperFunction,SMDPad,CuDef*%
%ADD45RoundRect,0.002500X0.297500X0.122500X-0.297500X0.122500X-0.297500X-0.122500X0.297500X-0.122500X0*%
%TD*%
%TA.AperFunction,SMDPad,CuDef*%
%ADD46RoundRect,0.002500X0.122500X0.297500X-0.122500X0.297500X-0.122500X-0.297500X0.122500X-0.297500X0*%
%TD*%
%TA.AperFunction,SMDPad,CuDef*%
%ADD47RoundRect,0.014000X0.411000X0.336000X-0.411000X0.336000X-0.411000X-0.336000X0.411000X-0.336000X0*%
%TD*%
%TA.AperFunction,SMDPad,CuDef*%
%ADD48RoundRect,0.003500X0.721500X0.171500X-0.721500X0.171500X-0.721500X-0.171500X0.721500X-0.171500X0*%
%TD*%
%TA.AperFunction,SMDPad,CuDef*%
%ADD49RoundRect,0.003500X0.896500X0.171500X-0.896500X0.171500X-0.896500X-0.171500X0.896500X-0.171500X0*%
%TD*%
%TA.AperFunction,SMDPad,CuDef*%
%ADD50RoundRect,0.008100X0.371900X0.126900X-0.371900X0.126900X-0.371900X-0.126900X0.371900X-0.126900X0*%
%TD*%
%TA.AperFunction,SMDPad,CuDef*%
%ADD51R,0.900000X1.300000*%
%TD*%
%TA.AperFunction,ComponentPad*%
%ADD52RoundRect,0.250000X-0.750000X0.600000X-0.750000X-0.600000X0.750000X-0.600000X0.750000X0.600000X0*%
%TD*%
%TA.AperFunction,ComponentPad*%
%ADD53O,2.000000X1.700000*%
%TD*%
%TA.AperFunction,SMDPad,CuDef*%
%ADD54R,1.800000X1.000000*%
%TD*%
%TA.AperFunction,SMDPad,CuDef*%
%ADD55R,3.302000X2.413000*%
%TD*%
%TA.AperFunction,SMDPad,CuDef*%
%ADD56RoundRect,0.042000X-0.258000X0.943000X-0.258000X-0.943000X0.258000X-0.943000X0.258000X0.943000X0*%
%TD*%
%TA.AperFunction,ComponentPad*%
%ADD57R,2.000000X2.000000*%
%TD*%
%TA.AperFunction,ComponentPad*%
%ADD58C,2.000000*%
%TD*%
%TA.AperFunction,SMDPad,CuDef*%
%ADD59RoundRect,0.250000X0.262500X0.450000X-0.262500X0.450000X-0.262500X-0.450000X0.262500X-0.450000X0*%
%TD*%
%TA.AperFunction,SMDPad,CuDef*%
%ADD60R,0.558800X2.286000*%
%TD*%
%TA.AperFunction,SMDPad,CuDef*%
%ADD61RoundRect,0.243750X-0.243750X-0.456250X0.243750X-0.456250X0.243750X0.456250X-0.243750X0.456250X0*%
%TD*%
%TA.AperFunction,SMDPad,CuDef*%
%ADD62R,1.981200X0.533400*%
%TD*%
%TA.AperFunction,SMDPad,CuDef*%
%ADD63RoundRect,0.250000X0.250000X1.150000X-0.250000X1.150000X-0.250000X-1.150000X0.250000X-1.150000X0*%
%TD*%
%TA.AperFunction,SMDPad,CuDef*%
%ADD64R,1.500000X2.000000*%
%TD*%
%TA.AperFunction,SMDPad,CuDef*%
%ADD65R,3.800000X2.000000*%
%TD*%
%TA.AperFunction,SMDPad,CuDef*%
%ADD66RoundRect,0.250000X-0.250000X-1.150000X0.250000X-1.150000X0.250000X1.150000X-0.250000X1.150000X0*%
%TD*%
%TA.AperFunction,SMDPad,CuDef*%
%ADD67RoundRect,0.150000X0.587500X0.150000X-0.587500X0.150000X-0.587500X-0.150000X0.587500X-0.150000X0*%
%TD*%
%TA.AperFunction,ViaPad*%
%ADD68C,0.800000*%
%TD*%
%TA.AperFunction,Conductor*%
%ADD69C,1.000000*%
%TD*%
%TA.AperFunction,Conductor*%
%ADD70C,0.250000*%
%TD*%
%TA.AperFunction,Conductor*%
%ADD71C,0.500000*%
%TD*%
G04 APERTURE END LIST*
D10*
%TA.AperFunction,EtchedComponent*%
%TO.C,JP2*%
G36*
X172310000Y-108520000D02*
G01*
X171710000Y-108520000D01*
X171710000Y-108020000D01*
X172310000Y-108020000D01*
X172310000Y-108520000D01*
G37*
%TD.AperFunction*%
%TD*%
D11*
%TO.P,J5,1*%
%TO.N,Net-(F1-Pad1)*%
X201900000Y-85600000D03*
D12*
%TO.P,J5,2*%
%TO.N,GND*%
X201900000Y-79600000D03*
D13*
%TO.P,J5,3*%
X197200000Y-82600000D03*
%TD*%
D14*
%TO.P,U2,1,GND*%
%TO.N,GND*%
X135900000Y-108420000D03*
%TO.P,U2,2,VDD*%
%TO.N,+3.3V*%
X137170000Y-108420000D03*
%TO.P,U2,3,EN*%
%TO.N,/MCU/RESET*%
X138440000Y-108420000D03*
%TO.P,U2,4,SENSOR_VP*%
%TO.N,/MCU/GPIO36*%
X139710000Y-108420000D03*
%TO.P,U2,5,SENSOR_VN*%
%TO.N,/MCU/GPIO37*%
X140980000Y-108420000D03*
%TO.P,U2,6,IO34*%
%TO.N,/MCU/ROTARY_CLK*%
X142250000Y-108420000D03*
%TO.P,U2,7,IO35*%
%TO.N,/MCU/ROT_SW*%
X143520000Y-108420000D03*
%TO.P,U2,8,IO32*%
%TO.N,/MCU/ROTARY_DATA*%
X144790000Y-108420000D03*
%TO.P,U2,9,IO33*%
%TO.N,/MCU/heater*%
X146060000Y-108420000D03*
%TO.P,U2,10,IO25*%
%TO.N,/MCU/WATER_PUMP_PIN*%
X147330000Y-108420000D03*
%TO.P,U2,11,IO26*%
%TO.N,/MCU/FAN_EXHAUST_PIN*%
X148600000Y-108420000D03*
%TO.P,U2,12,IO27*%
%TO.N,/MCU/MIST_PIN*%
X149870000Y-108420000D03*
%TO.P,U2,13,IO14*%
%TO.N,/MCU/turner*%
X151140000Y-108420000D03*
%TO.P,U2,14,IO12*%
%TO.N,/MCU/GPIO12*%
X152410000Y-108420000D03*
D15*
%TO.P,U2,15,GND*%
%TO.N,GND*%
X153660000Y-105380000D03*
%TO.P,U2,16,IO13*%
%TO.N,/MCU/IO_LED*%
X153660000Y-104110000D03*
%TO.P,U2,17,SHD/SD2*%
%TO.N,unconnected-(U2-SHD{slash}SD2-Pad17)*%
X153660000Y-102840000D03*
%TO.P,U2,18,SWP/SD3*%
%TO.N,unconnected-(U2-SWP{slash}SD3-Pad18)*%
X153660000Y-101570000D03*
%TO.P,U2,19,SCS/CMD*%
%TO.N,unconnected-(U2-SCS{slash}CMD-Pad19)*%
X153660000Y-100300000D03*
%TO.P,U2,20,SCK/CLK*%
%TO.N,unconnected-(U2-SCK{slash}CLK-Pad20)*%
X153660000Y-99030000D03*
%TO.P,U2,21,SDO/SD0*%
%TO.N,unconnected-(U2-SDO{slash}SD0-Pad21)*%
X153660000Y-97760000D03*
%TO.P,U2,22,SDI/SD1*%
%TO.N,unconnected-(U2-SDI{slash}SD1-Pad22)*%
X153660000Y-96490000D03*
%TO.P,U2,23,IO15*%
%TO.N,12V_status*%
X153660000Y-95220000D03*
%TO.P,U2,24,IO2*%
%TO.N,/MCU/GPIO2*%
X153660000Y-93950000D03*
D14*
%TO.P,U2,25,IO0*%
%TO.N,/MCU/GPIO0*%
X152410000Y-90920000D03*
%TO.P,U2,26,IO4*%
%TO.N,unconnected-(U2-IO4-Pad26)*%
X151140000Y-90920000D03*
%TO.P,U2,27,IO16*%
%TO.N,/MCU/GPIO16*%
X149870000Y-90920000D03*
%TO.P,U2,28,IO17*%
%TO.N,/MCU/GPIO17*%
X148600000Y-90920000D03*
%TO.P,U2,29,IO5*%
%TO.N,/MCU/WATER_LEVEL_DATA*%
X147330000Y-90920000D03*
%TO.P,U2,30,IO18*%
%TO.N,/MCU/TEMP1_DATA*%
X146060000Y-90920000D03*
%TO.P,U2,31,IO19*%
%TO.N,/MCU/TEMP2_DATA*%
X144790000Y-90920000D03*
%TO.P,U2,32,NC*%
%TO.N,unconnected-(U2-NC-Pad32)*%
X143520000Y-90920000D03*
%TO.P,U2,33,IO21*%
%TO.N,/MCU/SDA*%
X142250000Y-90920000D03*
%TO.P,U2,34,RXD0/IO3*%
%TO.N,/MCU/RX*%
X140980000Y-90920000D03*
%TO.P,U2,35,TXD0/IO1*%
%TO.N,/MCU/TX*%
X139710000Y-90920000D03*
%TO.P,U2,36,IO22*%
%TO.N,/MCU/SCL*%
X138440000Y-90920000D03*
%TO.P,U2,37,IO23*%
%TO.N,unconnected-(U2-IO23-Pad37)*%
X137170000Y-90920000D03*
%TO.P,U2,38,GND*%
%TO.N,GND*%
X135900000Y-90920000D03*
D16*
%TO.P,U2,39,GND*%
X141715000Y-101875000D03*
D17*
X142477500Y-101875000D03*
D16*
X143240000Y-101875000D03*
D17*
X144002500Y-101875000D03*
D16*
X144765000Y-101875000D03*
D17*
X141715000Y-101112500D03*
X143240000Y-101112500D03*
X144765000Y-101112500D03*
D16*
X141715000Y-100350000D03*
D17*
X142477500Y-100350000D03*
D16*
X143240000Y-100350000D03*
D18*
X143240000Y-100350000D03*
D17*
X144002500Y-100350000D03*
D16*
X144765000Y-100350000D03*
D17*
X141715000Y-99587500D03*
X143240000Y-99587500D03*
X144765000Y-99587500D03*
D16*
X141715000Y-98825000D03*
D17*
X142477500Y-98825000D03*
D16*
X143240000Y-98825000D03*
D17*
X144002500Y-98825000D03*
D16*
X144765000Y-98825000D03*
%TD*%
D19*
%TO.P,J2,MP*%
%TO.N,N/C*%
X180985000Y-131170000D03*
X176035000Y-131170000D03*
D20*
%TO.P,J2,2,Pin_2*%
%TO.N,Net-(J2-Pin_2)*%
X179135000Y-127970000D03*
%TO.P,J2,1,Pin_1*%
%TO.N,+12V*%
X177885000Y-127970000D03*
%TD*%
D21*
%TO.P,SW2,1,1*%
%TO.N,GND*%
X136760000Y-81220000D03*
X136760000Y-73220000D03*
%TO.P,SW2,2,2*%
%TO.N,/MCU/RESET*%
X141260000Y-81220000D03*
X141260000Y-73220000D03*
%TD*%
D22*
%TO.P,C13,1*%
%TO.N,/MCU/TPS_VIN*%
X182410000Y-107370000D03*
%TO.P,C13,2*%
%TO.N,GND*%
X182410000Y-109270000D03*
%TD*%
D23*
%TO.P,R38,1*%
%TO.N,GND*%
X172910000Y-119170000D03*
%TO.P,R38,2*%
%TO.N,/MCU/LED_PIN*%
X172910000Y-117345000D03*
%TD*%
D24*
%TO.P,D2,1,K*%
%TO.N,Net-(D2-K)*%
X178810000Y-119257500D03*
%TO.P,D2,2,A*%
%TO.N,+12V*%
X178810000Y-117382500D03*
%TD*%
D25*
%TO.P,R32,1*%
%TO.N,Net-(D14-A)*%
X182297500Y-100820000D03*
%TO.P,R32,2*%
%TO.N,+3.3V*%
X184122500Y-100820000D03*
%TD*%
D26*
%TO.P,J12,MP*%
%TO.N,N/C*%
X174510000Y-74170000D03*
X180710000Y-74170000D03*
D27*
%TO.P,J12,3,Pin_3*%
%TO.N,/MCU/WATER_LEVEL_DATA*%
X176360000Y-77370000D03*
%TO.P,J12,2,Pin_2*%
%TO.N,+3.3V*%
X177610000Y-77370000D03*
%TO.P,J12,1,Pin_1*%
%TO.N,GND*%
X178860000Y-77370000D03*
%TD*%
D28*
%TO.P,JP2,1,A*%
%TO.N,Buck_In*%
X172010000Y-108920000D03*
D29*
%TO.P,JP2,2,B*%
%TO.N,/MCU/TPS_VIN*%
X172010000Y-107620000D03*
%TD*%
D26*
%TO.P,J9,MP*%
%TO.N,N/C*%
X183435000Y-74170000D03*
X188385000Y-74170000D03*
D27*
%TO.P,J9,2,Pin_2*%
%TO.N,Net-(D6-A)*%
X185285000Y-77370000D03*
%TO.P,J9,1,Pin_1*%
%TO.N,+12V*%
X186535000Y-77370000D03*
%TD*%
D30*
%TO.P,J4,1,Pin_1*%
%TO.N,Net-(J4-Pin_1)*%
X215510000Y-87475000D03*
D31*
%TO.P,J4,2,Pin_2*%
X215510000Y-92475000D03*
%TD*%
D32*
%TO.P,C5,1*%
%TO.N,GND*%
X135760000Y-111820000D03*
%TO.P,C5,2*%
%TO.N,+3.3V*%
X137660000Y-111820000D03*
%TD*%
D22*
%TO.P,C2,1*%
%TO.N,/MCU/TPS_VIN*%
X185910000Y-108870000D03*
%TO.P,C2,2*%
%TO.N,GND*%
X185910000Y-110770000D03*
%TD*%
D33*
%TO.P,R14,1*%
%TO.N,Net-(D5-K)*%
X168010000Y-117345000D03*
%TO.P,R14,2*%
%TO.N,GND*%
X168010000Y-119170000D03*
%TD*%
%TO.P,R22,1*%
%TO.N,+3.3V*%
X174910000Y-92707500D03*
%TO.P,R22,2*%
%TO.N,Net-(U6-~{ALERT})*%
X174910000Y-94532500D03*
%TD*%
D34*
%TO.P,F1,1*%
%TO.N,Net-(F1-Pad1)*%
X190910000Y-83220000D03*
%TO.P,F1,2*%
%TO.N,+12V*%
X190910000Y-86020000D03*
%TD*%
D35*
%TO.P,L1,1,1*%
%TO.N,Net-(U1-L2)*%
X183410000Y-103257500D03*
%TO.P,L1,2,2*%
%TO.N,Net-(U1-L1)*%
X183410000Y-105382500D03*
%TD*%
D25*
%TO.P,R31,1*%
%TO.N,+3.3V*%
X186397500Y-100820000D03*
%TO.P,R31,2*%
%TO.N,Net-(D13-A)*%
X188222500Y-100820000D03*
%TD*%
D24*
%TO.P,D5,1,K*%
%TO.N,Net-(D5-K)*%
X168010000Y-115395000D03*
%TO.P,D5,2,A*%
%TO.N,/MCU/BUSY_LED*%
X168010000Y-113520000D03*
%TD*%
D36*
%TO.P,C6,1*%
%TO.N,+3.3V*%
X137660000Y-115120000D03*
%TO.P,C6,2*%
%TO.N,GND*%
X135760000Y-115120000D03*
%TD*%
D21*
%TO.P,SW1,1,1*%
%TO.N,GND*%
X148760000Y-81320000D03*
X148760000Y-73320000D03*
%TO.P,SW1,2,2*%
%TO.N,/MCU/GPIO0*%
X153260000Y-81320000D03*
X153260000Y-73320000D03*
%TD*%
D37*
%TO.P,Q3,1,D*%
%TO.N,Net-(Q3-D)*%
X183910000Y-121820000D03*
%TO.P,Q3,2,G*%
%TO.N,/MCU/turner*%
X182010000Y-121820000D03*
%TO.P,Q3,3,S*%
%TO.N,Net-(Q3-S)*%
X182960000Y-123695000D03*
%TD*%
D19*
%TO.P,J8,MP*%
%TO.N,N/C*%
X158885000Y-131170000D03*
X153935000Y-131170000D03*
D20*
%TO.P,J8,2,Pin_2*%
%TO.N,Net-(D3-A)*%
X157035000Y-127970000D03*
%TO.P,J8,1,Pin_1*%
%TO.N,+12V*%
X155785000Y-127970000D03*
%TD*%
D24*
%TO.P,D7,1,K*%
%TO.N,Net-(D7-K)*%
X170410000Y-115395000D03*
%TO.P,D7,2,A*%
%TO.N,/MCU/CON_LED*%
X170410000Y-113520000D03*
%TD*%
D33*
%TO.P,R36,1*%
%TO.N,Net-(D8-A)*%
X159710000Y-121507500D03*
%TO.P,R36,2*%
%TO.N,Net-(J10-Pin_2)*%
X159710000Y-123332500D03*
%TD*%
D37*
%TO.P,Q8,1,D*%
%TO.N,Net-(J2-Pin_2)*%
X174760000Y-113420000D03*
%TO.P,Q8,2,G*%
%TO.N,/MCU/LED_PIN*%
X172860000Y-113420000D03*
%TO.P,Q8,3,S*%
%TO.N,GND*%
X173810000Y-115295000D03*
%TD*%
D33*
%TO.P,C21,1*%
%TO.N,+3.3V*%
X172010000Y-103307500D03*
%TO.P,C21,2*%
%TO.N,GND*%
X172010000Y-105132500D03*
%TD*%
D38*
%TO.P,D6,1,K*%
%TO.N,+12V*%
X186747500Y-81520000D03*
%TO.P,D6,2,A*%
%TO.N,Net-(D6-A)*%
X184872500Y-81520000D03*
%TD*%
D32*
%TO.P,C10,1*%
%TO.N,GND*%
X155660000Y-99320000D03*
%TO.P,C10,2*%
%TO.N,+3.3V*%
X157560000Y-99320000D03*
%TD*%
D39*
%TO.P,J1,1,Pin_1*%
%TO.N,/MCU/GPIO0*%
X137370000Y-85120000D03*
D40*
%TO.P,J1,2,Pin_2*%
%TO.N,/MCU/TX*%
X139910000Y-85120000D03*
%TO.P,J1,3,Pin_3*%
%TO.N,/MCU/RX*%
X142450000Y-85120000D03*
%TO.P,J1,4,Pin_4*%
%TO.N,+3.3V*%
X144990000Y-85120000D03*
%TO.P,J1,5,Pin_5*%
%TO.N,/MCU/RESET*%
X147530000Y-85120000D03*
%TO.P,J1,6,Pin_6*%
%TO.N,GND*%
X150070000Y-85120000D03*
%TD*%
D23*
%TO.P,R41,1*%
%TO.N,GND*%
X152310000Y-118032500D03*
%TO.P,R41,2*%
%TO.N,/MCU/WATER_PUMP_PIN*%
X152310000Y-116207500D03*
%TD*%
%TO.P,R6,1*%
%TO.N,/MCU/turner*%
X175010000Y-123532500D03*
%TO.P,R6,2*%
%TO.N,GND*%
X175010000Y-121707500D03*
%TD*%
D32*
%TO.P,C14,1*%
%TO.N,/MCU/TPS_VAUX*%
X190760000Y-105720000D03*
%TO.P,C14,2*%
%TO.N,GND*%
X192660000Y-105720000D03*
%TD*%
D41*
%TO.P,C20,1*%
%TO.N,+5V*%
X188310000Y-94670000D03*
%TO.P,C20,2*%
%TO.N,GND*%
X188310000Y-92770000D03*
%TD*%
D42*
%TO.P,D12,1,K*%
%TO.N,Buck_In*%
X181510000Y-113182500D03*
%TO.P,D12,2,A*%
%TO.N,+12V*%
X181510000Y-115057500D03*
%TD*%
D23*
%TO.P,R25,1*%
%TO.N,/MCU/TPS_FB*%
X193710000Y-103732500D03*
%TO.P,R25,2*%
%TO.N,GND*%
X193710000Y-101907500D03*
%TD*%
D43*
%TO.P,U9,1,1*%
%TO.N,Net-(Q3-D)*%
X206460000Y-107970000D03*
%TO.P,U9,2,2*%
%TO.N,Net-(J3-Pin_2)*%
X206460000Y-96470000D03*
%TO.P,U9,3,3*%
%TO.N,Net-(J3-Pin_1)*%
X206460000Y-89470000D03*
%TO.P,U9,4,4*%
%TO.N,+12V*%
X201760000Y-107970000D03*
%TD*%
D44*
%TO.P,Q9,1,D*%
%TO.N,Net-(Q9-D)*%
X166972500Y-95270000D03*
%TO.P,Q9,2,G*%
%TO.N,/MCU/BUZ_PIN*%
X166972500Y-97170000D03*
%TO.P,Q9,3,S*%
%TO.N,GND*%
X168847500Y-96220000D03*
%TD*%
D22*
%TO.P,C3,1*%
%TO.N,GND*%
X145010000Y-75770000D03*
%TO.P,C3,2*%
%TO.N,/MCU/RESET*%
X145010000Y-77670000D03*
%TD*%
D33*
%TO.P,R13,1*%
%TO.N,GND*%
X188010000Y-83907500D03*
%TO.P,R13,2*%
%TO.N,/MCU/FAN_CON_PIN*%
X188010000Y-85732500D03*
%TD*%
%TO.P,C19,1*%
%TO.N,+3.3V*%
X174810000Y-103307500D03*
%TO.P,C19,2*%
%TO.N,GND*%
X174810000Y-105132500D03*
%TD*%
%TO.P,R5,1*%
%TO.N,/MCU/heater*%
X166710000Y-121507500D03*
%TO.P,R5,2*%
%TO.N,GND*%
X166710000Y-123332500D03*
%TD*%
D45*
%TO.P,U1,1,PS/SYNC*%
%TO.N,/MCU/PS*%
X187860000Y-105670000D03*
%TO.P,U1,2,PG*%
%TO.N,GND*%
X187860000Y-105170000D03*
%TO.P,U1,3,VAUX*%
%TO.N,/MCU/TPS_VAUX*%
X187860000Y-104670000D03*
%TO.P,U1,4,GND*%
%TO.N,GND*%
X187860000Y-104170000D03*
D46*
%TO.P,U1,5,FB*%
%TO.N,/MCU/TPS_FB*%
X187435000Y-103520000D03*
%TO.P,U1,6,FB2*%
%TO.N,GND*%
X186935000Y-103520000D03*
D47*
%TO.P,U1,7_8,VOUT*%
%TO.N,+3.3V*%
X186185000Y-103520000D03*
D48*
%TO.P,U1,9,L2*%
%TO.N,Net-(U1-L2)*%
X185935000Y-104420000D03*
D49*
%TO.P,U1,10,PGND*%
%TO.N,GND*%
X186110000Y-104920000D03*
D48*
%TO.P,U1,11,L1*%
%TO.N,Net-(U1-L1)*%
X185935000Y-105420000D03*
D47*
%TO.P,U1,12_13,VIN*%
%TO.N,/MCU/TPS_VIN*%
X186185000Y-106320000D03*
D46*
%TO.P,U1,14,EN*%
%TO.N,/MCU/EN*%
X186935000Y-106320000D03*
%TO.P,U1,15,VSEL*%
%TO.N,GND*%
X187435000Y-106320000D03*
%TD*%
D22*
%TO.P,C1,1*%
%TO.N,/MCU/TPS_VIN*%
X175610000Y-107370000D03*
%TO.P,C1,2*%
%TO.N,GND*%
X175610000Y-109270000D03*
%TD*%
D26*
%TO.P,J17,MP*%
%TO.N,N/C*%
X165610000Y-74170000D03*
X171810000Y-74170000D03*
D27*
%TO.P,J17,3,Pin_3*%
%TO.N,/MCU/TEMP1_DATA*%
X167460000Y-77370000D03*
%TO.P,J17,2,Pin_2*%
%TO.N,+3.3V*%
X168710000Y-77370000D03*
%TO.P,J17,1,Pin_1*%
%TO.N,GND*%
X169960000Y-77370000D03*
%TD*%
D44*
%TO.P,Q5,1,D*%
%TO.N,Net-(D6-A)*%
X183872500Y-83870000D03*
%TO.P,Q5,2,G*%
%TO.N,/MCU/FAN_CON_PIN*%
X183872500Y-85770000D03*
%TO.P,Q5,3,S*%
%TO.N,GND*%
X185747500Y-84820000D03*
%TD*%
D50*
%TO.P,U6,1,CTG*%
%TO.N,GND*%
X175280000Y-98220000D03*
%TO.P,U6,2,CELL*%
%TO.N,MCU_BAT*%
X175280000Y-97720000D03*
%TO.P,U6,3,VDD*%
X175280000Y-97220000D03*
%TO.P,U6,4,GND*%
%TO.N,GND*%
X175280000Y-96720000D03*
%TO.P,U6,5,~{ALERT}*%
%TO.N,Net-(U6-~{ALERT})*%
X173310000Y-96720000D03*
%TO.P,U6,6,QSTRT*%
%TO.N,Net-(U6-QSTRT)*%
X173310000Y-97220000D03*
%TO.P,U6,7,SCL*%
%TO.N,/MCU/SCL*%
X173310000Y-97720000D03*
%TO.P,U6,8,SDA*%
%TO.N,/MCU/SDA*%
X173310000Y-98220000D03*
D51*
%TO.P,U6,9,EP*%
%TO.N,GND*%
X174295000Y-97470000D03*
%TD*%
D42*
%TO.P,D11,1,K*%
%TO.N,+12V*%
X149510000Y-121282500D03*
%TO.P,D11,2,A*%
%TO.N,Net-(D11-A)*%
X149510000Y-123157500D03*
%TD*%
D33*
%TO.P,R1,1*%
%TO.N,/MCU/RESET*%
X145010000Y-79907500D03*
%TO.P,R1,2*%
%TO.N,+3.3V*%
X145010000Y-81732500D03*
%TD*%
D52*
%TO.P,J14,1*%
%TO.N,GND*%
X178910000Y-95820000D03*
D53*
%TO.P,J14,2*%
%TO.N,MCU_BAT*%
X178910000Y-98320000D03*
%TD*%
D42*
%TO.P,D1,1,K*%
%TO.N,Buck_In*%
X184010000Y-113182500D03*
%TO.P,D1,2,A*%
%TO.N,+12V*%
X184010000Y-115057500D03*
%TD*%
D30*
%TO.P,J6,1,Pin_1*%
%TO.N,Net-(J6-Pin_1)*%
X215510000Y-111955000D03*
D31*
%TO.P,J6,2,Pin_2*%
X215510000Y-116955000D03*
%TD*%
D33*
%TO.P,R39,1*%
%TO.N,GND*%
X164610000Y-95207500D03*
%TO.P,R39,2*%
%TO.N,/MCU/BUZ_PIN*%
X164610000Y-97032500D03*
%TD*%
D25*
%TO.P,R23,1*%
%TO.N,/MCU/TPS_VIN*%
X188097500Y-109020000D03*
%TO.P,R23,2*%
%TO.N,/MCU/EN*%
X189922500Y-109020000D03*
%TD*%
D54*
%TO.P,Y1,1,1*%
%TO.N,Net-(U8-X2)*%
X165310000Y-90570000D03*
%TO.P,Y1,2,2*%
%TO.N,Net-(U8-X1)*%
X165310000Y-93070000D03*
%TD*%
D24*
%TO.P,D8,1,K*%
%TO.N,+12V*%
X156110000Y-123257500D03*
%TO.P,D8,2,A*%
%TO.N,Net-(D8-A)*%
X156110000Y-121382500D03*
%TD*%
D55*
%TO.P,U7,9*%
%TO.N,N/C*%
X184210000Y-92920000D03*
D56*
%TO.P,U7,8,CE*%
%TO.N,+5V*%
X186115000Y-95395000D03*
%TO.P,U7,7,CHRG*%
%TO.N,Net-(D13-K)*%
X184845000Y-95395000D03*
%TO.P,U7,6,STDBY*%
%TO.N,Net-(D14-K)*%
X183575000Y-95395000D03*
%TO.P,U7,5,BAT*%
%TO.N,MCU_BAT*%
X182305000Y-95395000D03*
%TO.P,U7,4,VCC*%
%TO.N,+5V*%
X182305000Y-90445000D03*
%TO.P,U7,3,GND*%
%TO.N,GND*%
X183575000Y-90445000D03*
%TO.P,U7,2,PROG*%
%TO.N,Net-(U7-PROG)*%
X184845000Y-90445000D03*
%TO.P,U7,1,Temp1*%
%TO.N,GND*%
X186115000Y-90445000D03*
%TD*%
D25*
%TO.P,R29,1*%
%TO.N,Net-(U7-PROG)*%
X184997500Y-87820000D03*
%TO.P,R29,2*%
%TO.N,GND*%
X186822500Y-87820000D03*
%TD*%
D57*
%TO.P,BZ1,1,-*%
%TO.N,+12V*%
X175410000Y-89320000D03*
D58*
%TO.P,BZ1,2,+*%
%TO.N,Net-(BZ1-+)*%
X175410000Y-81720000D03*
%TD*%
D33*
%TO.P,R30,1*%
%TO.N,+3.3V*%
X190610000Y-101907500D03*
%TO.P,R30,2*%
%TO.N,/MCU/TPS_FB*%
X190610000Y-103732500D03*
%TD*%
%TO.P,R12,1*%
%TO.N,Net-(D4-K)*%
X165310000Y-117407500D03*
%TO.P,R12,2*%
%TO.N,GND*%
X165310000Y-119232500D03*
%TD*%
D23*
%TO.P,R8,1*%
%TO.N,Net-(Q2-S)*%
X163410000Y-123332500D03*
%TO.P,R8,2*%
%TO.N,GND*%
X163410000Y-121507500D03*
%TD*%
D19*
%TO.P,J10,MP*%
%TO.N,N/C*%
X170010000Y-131120000D03*
X165060000Y-131120000D03*
D20*
%TO.P,J10,2,Pin_2*%
%TO.N,Net-(J10-Pin_2)*%
X168160000Y-127920000D03*
%TO.P,J10,1,Pin_1*%
%TO.N,+12V*%
X166910000Y-127920000D03*
%TD*%
D59*
%TO.P,R11,1*%
%TO.N,Net-(D2-K)*%
X176697500Y-118920000D03*
%TO.P,R11,2*%
%TO.N,GND*%
X174872500Y-118920000D03*
%TD*%
D42*
%TO.P,D3,1,K*%
%TO.N,+12V*%
X152610000Y-121382500D03*
%TO.P,D3,2,A*%
%TO.N,Net-(D3-A)*%
X152610000Y-123257500D03*
%TD*%
D36*
%TO.P,C7,1*%
%TO.N,+3.3V*%
X137710000Y-118520000D03*
%TO.P,C7,2*%
%TO.N,GND*%
X135810000Y-118520000D03*
%TD*%
D37*
%TO.P,Q2,1,D*%
%TO.N,Net-(Q2-D)*%
X171810000Y-121820000D03*
%TO.P,Q2,2,G*%
%TO.N,/MCU/heater*%
X169910000Y-121820000D03*
%TO.P,Q2,3,S*%
%TO.N,Net-(Q2-S)*%
X170860000Y-123695000D03*
%TD*%
D24*
%TO.P,D9,1,K*%
%TO.N,Net-(D9-K)*%
X155910000Y-103657500D03*
%TO.P,D9,2,A*%
%TO.N,/MCU/IO_LED*%
X155910000Y-101782500D03*
%TD*%
D33*
%TO.P,R26,1*%
%TO.N,+3.3V*%
X162210000Y-95007500D03*
%TO.P,R26,2*%
%TO.N,Net-(U5-~{INT})*%
X162210000Y-96832500D03*
%TD*%
D60*
%TO.P,U5,1,A0*%
%TO.N,GND*%
X159765000Y-108841200D03*
%TO.P,U5,2,A1*%
X161035000Y-108841200D03*
%TO.P,U5,3,A2*%
X162305000Y-108841200D03*
%TO.P,U5,4,P0*%
%TO.N,/MCU/FAULT_LED*%
X163575000Y-108841200D03*
%TO.P,U5,5,P1*%
%TO.N,/MCU/BUSY_LED*%
X164845000Y-108841200D03*
%TO.P,U5,6,P2*%
%TO.N,/MCU/CON_LED*%
X166115000Y-108841200D03*
%TO.P,U5,7,P3*%
%TO.N,/MCU/LED_PIN*%
X167385000Y-108841200D03*
%TO.P,U5,8,VSS*%
%TO.N,GND*%
X168655000Y-108841200D03*
%TO.P,U5,9,P4*%
%TO.N,/MCU/BUZ_PIN*%
X168655000Y-99798800D03*
%TO.P,U5,10,P5*%
%TO.N,/MCU/P_IO_7*%
X167385000Y-99798800D03*
%TO.P,U5,11,P6*%
%TO.N,/MCU/P_IO_5*%
X166115000Y-99798800D03*
%TO.P,U5,12,P7*%
%TO.N,/MCU/FAN_CON_PIN*%
X164845000Y-99798800D03*
%TO.P,U5,13,~{INT}*%
%TO.N,Net-(U5-~{INT})*%
X163575000Y-99798800D03*
%TO.P,U5,14,SCL*%
%TO.N,/MCU/SCL*%
X162305000Y-99798800D03*
%TO.P,U5,15,SDA*%
%TO.N,/MCU/SDA*%
X161035000Y-99798800D03*
%TO.P,U5,16,VDD*%
%TO.N,+3.3V*%
X159765000Y-99798800D03*
%TD*%
D37*
%TO.P,Q10,1,D*%
%TO.N,Net-(D11-A)*%
X152660000Y-112082500D03*
%TO.P,Q10,2,G*%
%TO.N,/MCU/WATER_PUMP_PIN*%
X150760000Y-112082500D03*
%TO.P,Q10,3,S*%
%TO.N,GND*%
X151710000Y-113957500D03*
%TD*%
D36*
%TO.P,C4,1*%
%TO.N,Net-(C4-Pad1)*%
X169460000Y-92820000D03*
%TO.P,C4,2*%
%TO.N,Net-(U8-X1)*%
X167560000Y-92820000D03*
%TD*%
D22*
%TO.P,C12,1*%
%TO.N,GND*%
X165310000Y-86970000D03*
%TO.P,C12,2*%
%TO.N,+3.3V*%
X165310000Y-88870000D03*
%TD*%
D33*
%TO.P,R40,1*%
%TO.N,Net-(BZ1-+)*%
X171910000Y-92107500D03*
%TO.P,R40,2*%
%TO.N,Net-(Q9-D)*%
X171910000Y-93932500D03*
%TD*%
D22*
%TO.P,C15,1*%
%TO.N,+12V*%
X198810000Y-89220000D03*
%TO.P,C15,2*%
%TO.N,GND*%
X198810000Y-91120000D03*
%TD*%
D23*
%TO.P,R19,1*%
%TO.N,+3.3V*%
X171110000Y-101132500D03*
%TO.P,R19,2*%
%TO.N,/MCU/SCL*%
X171110000Y-99307500D03*
%TD*%
D33*
%TO.P,R15,1*%
%TO.N,Net-(D7-K)*%
X170410000Y-117345000D03*
%TO.P,R15,2*%
%TO.N,GND*%
X170410000Y-119170000D03*
%TD*%
D43*
%TO.P,K1,1,1*%
%TO.N,Net-(Q2-D)*%
X206260000Y-130970000D03*
%TO.P,K1,2,2*%
%TO.N,Net-(J4-Pin_1)*%
X206260000Y-119470000D03*
%TO.P,K1,3,3*%
%TO.N,Net-(J6-Pin_1)*%
X206260000Y-112470000D03*
%TO.P,K1,4,4*%
%TO.N,+12V*%
X201560000Y-130970000D03*
%TD*%
D61*
%TO.P,D13,1,K*%
%TO.N,Net-(D13-K)*%
X186372500Y-98020000D03*
%TO.P,D13,2,A*%
%TO.N,Net-(D13-A)*%
X188247500Y-98020000D03*
%TD*%
D33*
%TO.P,R21,1*%
%TO.N,+3.3V*%
X157610000Y-95020000D03*
%TO.P,R21,2*%
%TO.N,/MCU/SDA*%
X157610000Y-96845000D03*
%TD*%
D23*
%TO.P,R16,1*%
%TO.N,+12V*%
X186610000Y-115032500D03*
%TO.P,R16,2*%
%TO.N,GND*%
X186610000Y-113207500D03*
%TD*%
D62*
%TO.P,U8,1,X1*%
%TO.N,Net-(U8-X1)*%
X162273800Y-92325000D03*
%TO.P,U8,2,X2*%
%TO.N,Net-(U8-X2)*%
X162273800Y-91055000D03*
%TO.P,U8,3,VBAT*%
%TO.N,+3.3V*%
X162273800Y-89785000D03*
%TO.P,U8,4,GND*%
%TO.N,GND*%
X162273800Y-88515000D03*
%TO.P,U8,5,SDA*%
%TO.N,/MCU/SDA*%
X157346200Y-88515000D03*
%TO.P,U8,6,SCL*%
%TO.N,/MCU/SCL*%
X157346200Y-89785000D03*
%TO.P,U8,7,SQW/OUT*%
%TO.N,unconnected-(U8-SQW{slash}OUT-Pad7)*%
X157346200Y-91055000D03*
%TO.P,U8,8,VCC*%
%TO.N,+3.3V*%
X157346200Y-92325000D03*
%TD*%
D61*
%TO.P,D14,1,K*%
%TO.N,Net-(D14-K)*%
X182272500Y-98020000D03*
%TO.P,D14,2,A*%
%TO.N,Net-(D14-A)*%
X184147500Y-98020000D03*
%TD*%
D24*
%TO.P,D10,1,K*%
%TO.N,+12V*%
X167910000Y-88757500D03*
%TO.P,D10,2,A*%
%TO.N,Net-(BZ1-+)*%
X167910000Y-86882500D03*
%TD*%
D26*
%TO.P,J18,MP*%
%TO.N,N/C*%
X156710000Y-74170000D03*
X162910000Y-74170000D03*
D27*
%TO.P,J18,3,Pin_3*%
%TO.N,/MCU/TEMP2_DATA*%
X158560000Y-77370000D03*
%TO.P,J18,2,Pin_2*%
%TO.N,+3.3V*%
X159810000Y-77370000D03*
%TO.P,J18,1,Pin_1*%
%TO.N,GND*%
X161060000Y-77370000D03*
%TD*%
D63*
%TO.P,J15,MP*%
%TO.N,N/C*%
X155585000Y-85320000D03*
X163035000Y-85320000D03*
D27*
%TO.P,J15,4,Pin_4*%
%TO.N,/MCU/SCL*%
X157435000Y-81970000D03*
%TO.P,J15,3,Pin_3*%
%TO.N,/MCU/SDA*%
X158685000Y-81970000D03*
%TO.P,J15,2,Pin_2*%
%TO.N,+3.3V*%
X159935000Y-81970000D03*
%TO.P,J15,1,Pin_1*%
%TO.N,GND*%
X161185000Y-81970000D03*
%TD*%
D19*
%TO.P,J19,MP*%
%TO.N,N/C*%
X147285000Y-130970000D03*
X142335000Y-130970000D03*
D20*
%TO.P,J19,2,Pin_2*%
%TO.N,Net-(D11-A)*%
X145435000Y-127770000D03*
%TO.P,J19,1,Pin_1*%
%TO.N,+12V*%
X144185000Y-127770000D03*
%TD*%
D30*
%TO.P,J7,1,Pin_1*%
%TO.N,Net-(J6-Pin_1)*%
X215510000Y-124195000D03*
D31*
%TO.P,J7,2,Pin_2*%
X215510000Y-129195000D03*
%TD*%
D59*
%TO.P,R10,1*%
%TO.N,GND*%
X156522500Y-111920000D03*
%TO.P,R10,2*%
%TO.N,/MCU/FAN_EXHAUST_PIN*%
X154697500Y-111920000D03*
%TD*%
D23*
%TO.P,R17,1*%
%TO.N,Net-(U6-QSTRT)*%
X170910000Y-97332500D03*
%TO.P,R17,2*%
%TO.N,GND*%
X170910000Y-95507500D03*
%TD*%
D33*
%TO.P,R20,1*%
%TO.N,+3.3V*%
X159910000Y-95020000D03*
%TO.P,R20,2*%
%TO.N,/MCU/SCL*%
X159910000Y-96845000D03*
%TD*%
%TO.P,C17,1*%
%TO.N,+3.3V*%
X180310000Y-103307500D03*
%TO.P,C17,2*%
%TO.N,GND*%
X180310000Y-105132500D03*
%TD*%
D23*
%TO.P,R9,1*%
%TO.N,Net-(Q3-S)*%
X178610000Y-123632500D03*
%TO.P,R9,2*%
%TO.N,GND*%
X178610000Y-121807500D03*
%TD*%
D30*
%TO.P,J3,1,Pin_1*%
%TO.N,Net-(J3-Pin_1)*%
X215510000Y-75235000D03*
D31*
%TO.P,J3,2,Pin_2*%
%TO.N,Net-(J3-Pin_2)*%
X215510000Y-80235000D03*
%TD*%
D64*
%TO.P,U3,1,GND*%
%TO.N,GND*%
X196010000Y-89720000D03*
%TO.P,U3,2,VO*%
%TO.N,+5V*%
X193710000Y-89720000D03*
D65*
X193710000Y-96020000D03*
D64*
%TO.P,U3,3,VI*%
%TO.N,+12V*%
X191410000Y-89720000D03*
%TD*%
D33*
%TO.P,C18,1*%
%TO.N,+3.3V*%
X177510000Y-103307500D03*
%TO.P,C18,2*%
%TO.N,GND*%
X177510000Y-105132500D03*
%TD*%
D22*
%TO.P,C8,1*%
%TO.N,/MCU/TPS_VIN*%
X179010000Y-107370000D03*
%TO.P,C8,2*%
%TO.N,GND*%
X179010000Y-109270000D03*
%TD*%
D66*
%TO.P,J16,MP*%
%TO.N,N/C*%
X148660000Y-113120000D03*
X139960000Y-113120000D03*
D20*
%TO.P,J16,5,Pin_5*%
%TO.N,/MCU/ROTARY_DATA*%
X146810000Y-116470000D03*
%TO.P,J16,4,Pin_4*%
%TO.N,/MCU/ROT_SW*%
X145560000Y-116470000D03*
%TO.P,J16,3,Pin_3*%
%TO.N,/MCU/ROTARY_CLK*%
X144310000Y-116470000D03*
%TO.P,J16,2,Pin_2*%
%TO.N,+3.3V*%
X143060000Y-116470000D03*
%TO.P,J16,1,Pin_1*%
%TO.N,GND*%
X141810000Y-116470000D03*
%TD*%
D25*
%TO.P,R24,1*%
%TO.N,/MCU/TPS_VIN*%
X188097500Y-111220000D03*
%TO.P,R24,2*%
%TO.N,/MCU/PS*%
X189922500Y-111220000D03*
%TD*%
D36*
%TO.P,C9,1*%
%TO.N,Net-(C4-Pad1)*%
X169460000Y-90720000D03*
%TO.P,C9,2*%
%TO.N,Net-(U8-X2)*%
X167560000Y-90720000D03*
%TD*%
D23*
%TO.P,R35,1*%
%TO.N,GND*%
X163210000Y-115332500D03*
%TO.P,R35,2*%
%TO.N,/MCU/MIST_PIN*%
X163210000Y-113507500D03*
%TD*%
D33*
%TO.P,R37,1*%
%TO.N,Net-(D9-K)*%
X155910000Y-105607500D03*
%TO.P,R37,2*%
%TO.N,GND*%
X155910000Y-107432500D03*
%TD*%
D67*
%TO.P,Q6,1,D*%
%TO.N,Net-(D8-A)*%
X160647500Y-115370000D03*
%TO.P,Q6,2,G*%
%TO.N,/MCU/MIST_PIN*%
X160647500Y-113470000D03*
%TO.P,Q6,3,S*%
%TO.N,GND*%
X158772500Y-114420000D03*
%TD*%
D24*
%TO.P,D4,1,K*%
%TO.N,Net-(D4-K)*%
X165310000Y-115457500D03*
%TO.P,D4,2,A*%
%TO.N,/MCU/FAULT_LED*%
X165310000Y-113582500D03*
%TD*%
D67*
%TO.P,Q7,1,G*%
%TO.N,+12V*%
X178910000Y-115070000D03*
%TO.P,Q7,2,S*%
%TO.N,Buck_In*%
X178910000Y-113170000D03*
%TO.P,Q7,3,D*%
%TO.N,MCU_BAT*%
X177035000Y-114120000D03*
%TD*%
D37*
%TO.P,Q4,1,D*%
%TO.N,Net-(D3-A)*%
X156660000Y-114645000D03*
%TO.P,Q4,2,G*%
%TO.N,/MCU/FAN_EXHAUST_PIN*%
X154760000Y-114645000D03*
%TO.P,Q4,3,S*%
%TO.N,GND*%
X155710000Y-116520000D03*
%TD*%
D41*
%TO.P,C16,1*%
%TO.N,+5V*%
X198810000Y-95220000D03*
%TO.P,C16,2*%
%TO.N,GND*%
X198810000Y-93320000D03*
%TD*%
D30*
%TO.P,J5,1,Pin_1*%
%TO.N,Net-(J4-Pin_1)*%
X215510000Y-99715000D03*
D31*
%TO.P,J5,2,Pin_2*%
X215510000Y-104715000D03*
%TD*%
D68*
%TO.N,GND*%
X188510000Y-107120000D03*
X191410000Y-107320000D03*
%TO.N,+3.3V*%
X155810000Y-81520000D03*
%TO.N,+5V*%
X188110000Y-96020000D03*
X181510000Y-92820000D03*
%TO.N,/MCU/SDA*%
X173210000Y-99220000D03*
X170510000Y-104120000D03*
%TO.N,/MCU/GPIO0*%
X154910000Y-80345000D03*
X155110000Y-77620000D03*
%TO.N,GND*%
X148760000Y-78120000D03*
X157110000Y-100920000D03*
X157610000Y-107432500D03*
%TO.N,/MCU/RESET*%
X143310000Y-76520000D03*
X143410000Y-79907500D03*
%TO.N,Net-(BZ1-+)*%
X170910000Y-90720000D03*
X170760000Y-86470000D03*
%TO.N,GND*%
X188410000Y-89120000D03*
X183010000Y-88120000D03*
%TO.N,Net-(J4-Pin_1)*%
X218010000Y-107820000D03*
X219810000Y-99420000D03*
%TO.N,Net-(D8-A)*%
X154910000Y-120120000D03*
X159710000Y-120120000D03*
%TO.N,GND*%
X174385000Y-110495000D03*
%TO.N,/MCU/FAN_CON_PIN*%
X181510000Y-86620000D03*
%TO.N,+3.3V*%
X137510000Y-106920000D03*
X157610000Y-103420000D03*
%TO.N,GND*%
X163410000Y-93820000D03*
X160310000Y-89720000D03*
%TO.N,+3.3V*%
X171410000Y-89720000D03*
X168310000Y-85420000D03*
X176610000Y-92720000D03*
X176910000Y-99020000D03*
%TO.N,GND*%
X172410000Y-95420000D03*
X174010000Y-101220000D03*
X174010000Y-106520000D03*
%TO.N,+5V*%
X193710000Y-93220000D03*
X193710000Y-87420000D03*
%TO.N,+12V*%
X201710000Y-96320000D03*
X195410000Y-92520000D03*
%TO.N,+3.3V*%
X177172347Y-78882347D03*
X168610000Y-79020000D03*
X159935000Y-80420000D03*
%TO.N,/MCU/RESET*%
X146410000Y-87620000D03*
X138510000Y-106320000D03*
%TO.N,/MCU/GPIO0*%
X153410000Y-83320000D03*
X150910000Y-92720000D03*
%TO.N,/MCU/SCL*%
X138810000Y-92620000D03*
X153810000Y-88020000D03*
%TO.N,GND*%
X163210000Y-79420000D03*
X161060000Y-79520000D03*
%TO.N,/MCU/SCL*%
X154610000Y-89920000D03*
X162305000Y-102120000D03*
%TO.N,Buck_In*%
X178810000Y-111420000D03*
X172310000Y-111120000D03*
%TO.N,+12V*%
X188310000Y-116020000D03*
X195510000Y-127720000D03*
X190210000Y-87520000D03*
X189110000Y-82520000D03*
%TO.N,Net-(Q2-D)*%
X183410000Y-125820000D03*
X172710000Y-124095000D03*
%TO.N,Net-(J2-Pin_2)*%
X176010000Y-116320000D03*
X176910000Y-123720000D03*
%TO.N,Net-(Q2-S)*%
X169310000Y-125720000D03*
X169410000Y-123920000D03*
%TO.N,GND*%
X157910000Y-112520000D03*
X154535000Y-116920000D03*
X153085000Y-113520000D03*
%TO.N,/MCU/heater*%
X166710000Y-120120000D03*
X151610000Y-119220000D03*
%TO.N,/MCU/MIST_PIN*%
X157610000Y-110620000D03*
X154810000Y-110420000D03*
%TO.N,/MCU/WATER_PUMP_PIN*%
X152810000Y-114720000D03*
X150560000Y-115420000D03*
%TO.N,Net-(D11-A)*%
X151110000Y-122820000D03*
X151110000Y-120220000D03*
%TO.N,MCU_BAT*%
X178010000Y-101820000D03*
X177210000Y-110220000D03*
%TO.N,GND*%
X155310000Y-97720000D03*
X146210000Y-99520000D03*
%TO.N,/MCU/FAN_CON_PIN*%
X164810000Y-102020000D03*
X188610000Y-87020000D03*
X185710000Y-86320000D03*
%TO.N,/MCU/SDA*%
X155410000Y-88381700D03*
X156210000Y-95120000D03*
%TO.N,+3.3V*%
X159510000Y-91620000D03*
%TO.N,/MCU/GPIO0*%
X137410000Y-92520000D03*
X137410000Y-88020000D03*
%TD*%
D69*
%TO.N,Net-(F1-Pad1)*%
X201900000Y-85600000D02*
X206500000Y-81000000D01*
X206500000Y-81000000D02*
X206500000Y-77000000D01*
X206500000Y-77000000D02*
X204700000Y-75200000D01*
X204700000Y-75200000D02*
X196100000Y-75200000D01*
X196100000Y-75200000D02*
X190910000Y-80390000D01*
X190910000Y-80390000D02*
X190910000Y-83220000D01*
D70*
%TO.N,GND*%
X194710000Y-83900000D02*
X196010000Y-82600000D01*
X196010000Y-82600000D02*
X197200000Y-82600000D01*
X188010000Y-83907500D02*
X188272500Y-84170000D01*
X194710000Y-84170000D02*
X194710000Y-83900000D01*
X188272500Y-84170000D02*
X194710000Y-84170000D01*
X194710000Y-83900000D02*
X194710000Y-85820000D01*
D69*
X197200000Y-82600000D02*
X197200000Y-81200000D01*
X197200000Y-81200000D02*
X198800000Y-79600000D01*
X198800000Y-79600000D02*
X201900000Y-79600000D01*
D70*
X187710000Y-106320000D02*
X188510000Y-107120000D01*
X187435000Y-106320000D02*
X187710000Y-106320000D01*
X191410000Y-107320000D02*
X191410000Y-106770000D01*
X191410000Y-111265100D02*
X191410000Y-107320000D01*
%TO.N,/MCU/EN*%
X188935000Y-108324900D02*
X188605100Y-107995000D01*
X188966250Y-109020000D02*
X188935000Y-108988750D01*
X188935000Y-108988750D02*
X188935000Y-108324900D01*
X187941250Y-107995000D02*
X186935000Y-106988750D01*
X188605100Y-107995000D02*
X187941250Y-107995000D01*
X189922500Y-109020000D02*
X188966250Y-109020000D01*
X186935000Y-106988750D02*
X186935000Y-106320000D01*
%TO.N,+5V*%
X182305000Y-90445000D02*
X181510000Y-91240000D01*
X181510000Y-91240000D02*
X181510000Y-92820000D01*
X188110000Y-95920000D02*
X187585000Y-95395000D01*
X188110000Y-96020000D02*
X188110000Y-95920000D01*
%TO.N,+12V*%
X183610000Y-76020000D02*
X186034999Y-76020000D01*
X182410000Y-78719092D02*
X182410000Y-77220000D01*
X182410000Y-77220000D02*
X183610000Y-76020000D01*
X175410000Y-85719092D02*
X182410000Y-78719092D01*
X175410000Y-89320000D02*
X175410000Y-85719092D01*
X186034999Y-76020000D02*
X186535000Y-76520001D01*
X186535000Y-76520001D02*
X186535000Y-77370000D01*
%TO.N,GND*%
X175280000Y-98220000D02*
X174809900Y-98220000D01*
X174809900Y-98220000D02*
X174295000Y-97705100D01*
X174295000Y-97705100D02*
X174295000Y-97470000D01*
X175280000Y-96720000D02*
X174809900Y-96720000D01*
X174809900Y-96720000D02*
X174295000Y-97234900D01*
X174295000Y-97234900D02*
X174295000Y-97470000D01*
%TO.N,Net-(D2-K)*%
X176697500Y-118920000D02*
X178472500Y-118920000D01*
X178472500Y-118920000D02*
X178810000Y-119257500D01*
%TO.N,+3.3V*%
X157560000Y-99320000D02*
X157560000Y-98606396D01*
X157560000Y-98606396D02*
X155485000Y-96531396D01*
X155485000Y-96531396D02*
X155485000Y-94819695D01*
X155485000Y-94819695D02*
X155909695Y-94395000D01*
X155909695Y-94395000D02*
X156985000Y-94395000D01*
X156985000Y-94395000D02*
X157610000Y-95020000D01*
%TO.N,/MCU/SDA*%
X161035000Y-99798800D02*
X161035000Y-101981396D01*
X161035000Y-101981396D02*
X163173604Y-104120000D01*
X173210000Y-98320000D02*
X173310000Y-98220000D01*
X163173604Y-104120000D02*
X170510000Y-104120000D01*
X173210000Y-99220000D02*
X173210000Y-98320000D01*
%TO.N,/MCU/GPIO0*%
X153260000Y-75770000D02*
X155110000Y-77620000D01*
X153260000Y-73320000D02*
X153260000Y-75770000D01*
X154235000Y-80345000D02*
X153260000Y-81320000D01*
X154910000Y-80345000D02*
X154235000Y-80345000D01*
%TO.N,GND*%
X148760000Y-81320000D02*
X148760000Y-78120000D01*
X148760000Y-78120000D02*
X148760000Y-73320000D01*
X155660000Y-99470000D02*
X157110000Y-100920000D01*
X158122500Y-107432500D02*
X157610000Y-107432500D01*
X155660000Y-99320000D02*
X155660000Y-99470000D01*
X157610000Y-107432500D02*
X155910000Y-107432500D01*
%TO.N,+3.3V*%
X157560000Y-99320000D02*
X158010000Y-99770000D01*
X158010000Y-99770000D02*
X158010000Y-103020000D01*
X158010000Y-103020000D02*
X157610000Y-103420000D01*
D71*
%TO.N,/MCU/RESET*%
X145010000Y-79907500D02*
X145197500Y-79907500D01*
X142322500Y-79907500D02*
X143410000Y-79907500D01*
X145010000Y-77670000D02*
X144460000Y-77670000D01*
X144460000Y-77670000D02*
X143310000Y-76520000D01*
X143410000Y-79907500D02*
X145010000Y-79907500D01*
D70*
%TO.N,Net-(BZ1-+)*%
X171910000Y-91720000D02*
X170910000Y-90720000D01*
X171910000Y-92107500D02*
X171910000Y-91720000D01*
%TO.N,GND*%
X186822500Y-87820000D02*
X186822500Y-89120000D01*
X182910000Y-89135000D02*
X181893820Y-89135000D01*
X183249999Y-89135000D02*
X182910000Y-89135000D01*
X182910000Y-89135000D02*
X182910000Y-88220000D01*
X182910000Y-88220000D02*
X183010000Y-88120000D01*
X186822500Y-89120000D02*
X186822500Y-89737500D01*
X188410000Y-89120000D02*
X186822500Y-89120000D01*
D69*
%TO.N,Net-(J4-Pin_1)*%
X219810000Y-106020000D02*
X219810000Y-99420000D01*
X218010000Y-107820000D02*
X219810000Y-106020000D01*
D70*
%TO.N,GND*%
X187860000Y-105170000D02*
X187476776Y-105170000D01*
X187476776Y-105170000D02*
X187226776Y-104920000D01*
X187226776Y-104920000D02*
X186110000Y-104920000D01*
X187860000Y-104170000D02*
X187108194Y-104170000D01*
X187108194Y-104170000D02*
X186935000Y-103996806D01*
X186935000Y-103996806D02*
X186935000Y-103520000D01*
%TO.N,Net-(D8-A)*%
X156110000Y-121320000D02*
X154910000Y-120120000D01*
X156110000Y-121382500D02*
X156110000Y-121320000D01*
X159710000Y-116307500D02*
X159710000Y-120120000D01*
X159710000Y-120120000D02*
X159710000Y-121507500D01*
%TO.N,Net-(D4-K)*%
X165310000Y-115457500D02*
X165310000Y-117407500D01*
%TO.N,Net-(D5-K)*%
X168010000Y-115395000D02*
X168010000Y-117345000D01*
%TO.N,Net-(D7-K)*%
X170410000Y-115395000D02*
X170410000Y-117345000D01*
%TO.N,/MCU/LED_PIN*%
X172860000Y-113420000D02*
X172860000Y-117295000D01*
X172860000Y-117295000D02*
X172910000Y-117345000D01*
%TO.N,GND*%
X173810000Y-111070000D02*
X174385000Y-110495000D01*
X174385000Y-110495000D02*
X175610000Y-109270000D01*
%TO.N,Net-(U7-PROG)*%
X184997500Y-87820000D02*
X184997500Y-90292500D01*
X184997500Y-90292500D02*
X184845000Y-90445000D01*
%TO.N,/MCU/FAN_CON_PIN*%
X181510000Y-86620000D02*
X182360000Y-85770000D01*
X182360000Y-85770000D02*
X183872500Y-85770000D01*
%TO.N,/MCU/FAN_EXHAUST_PIN*%
X154697500Y-111920000D02*
X154697500Y-114582500D01*
X154697500Y-114582500D02*
X154760000Y-114645000D01*
%TO.N,/MCU/WATER_PUMP_PIN*%
X147330000Y-108420000D02*
X147330000Y-109420000D01*
X147330000Y-109420000D02*
X149992500Y-112082500D01*
X149992500Y-112082500D02*
X150760000Y-112082500D01*
%TO.N,+3.3V*%
X137510000Y-106920000D02*
X137510000Y-108080000D01*
X137510000Y-108080000D02*
X137170000Y-108420000D01*
%TO.N,GND*%
X162273800Y-88515000D02*
X161515000Y-88515000D01*
X163410000Y-93820000D02*
X163410000Y-94007500D01*
X161515000Y-88515000D02*
X160310000Y-89720000D01*
X163410000Y-94007500D02*
X164610000Y-95207500D01*
%TO.N,+3.3V*%
X167861412Y-85420000D02*
X166510000Y-86771412D01*
X171922500Y-89720000D02*
X171410000Y-89720000D01*
X166510000Y-86771412D02*
X166510000Y-88620000D01*
X168310000Y-85420000D02*
X167861412Y-85420000D01*
X174910000Y-92707500D02*
X171922500Y-89720000D01*
X166510000Y-88620000D02*
X166260000Y-88870000D01*
X166260000Y-88870000D02*
X165310000Y-88870000D01*
X171110000Y-101132500D02*
X171922500Y-101945000D01*
X176910000Y-99345305D02*
X176910000Y-99020000D01*
X174310305Y-101945000D02*
X176910000Y-99345305D01*
X171922500Y-101945000D02*
X174310305Y-101945000D01*
X176610000Y-92720000D02*
X174922500Y-92720000D01*
X174922500Y-92720000D02*
X174910000Y-92707500D01*
%TO.N,GND*%
X170997500Y-95420000D02*
X170910000Y-95507500D01*
X172410000Y-95420000D02*
X170997500Y-95420000D01*
%TO.N,Net-(U6-~{ALERT})*%
X173310000Y-96720000D02*
X173310000Y-95420000D01*
X173310000Y-95420000D02*
X174197500Y-94532500D01*
X174197500Y-94532500D02*
X174910000Y-94532500D01*
%TO.N,GND*%
X174810000Y-105132500D02*
X174810000Y-105720000D01*
X174810000Y-105720000D02*
X174010000Y-106520000D01*
X174010000Y-101220000D02*
X174010000Y-99490000D01*
X174010000Y-99490000D02*
X175280000Y-98220000D01*
%TO.N,MCU_BAT*%
X180410000Y-96820000D02*
X182310000Y-96820000D01*
X178910000Y-98320000D02*
X180410000Y-96820000D01*
X182310000Y-96820000D02*
X182310000Y-96520000D01*
X182310000Y-96520000D02*
X182305000Y-96515000D01*
X182305000Y-96515000D02*
X182305000Y-95395000D01*
%TO.N,+5V*%
X193710000Y-89720000D02*
X193710000Y-87420000D01*
X193710000Y-93220000D02*
X193710000Y-96020000D01*
%TO.N,+12V*%
X198810000Y-89220000D02*
X195510000Y-92520000D01*
X201710000Y-96320000D02*
X201760000Y-96370000D01*
X195510000Y-92520000D02*
X195410000Y-92520000D01*
X201760000Y-96370000D02*
X201760000Y-107970000D01*
%TO.N,GND*%
X198810000Y-91120000D02*
X198810000Y-93320000D01*
X196010000Y-89720000D02*
X196110000Y-89720000D01*
X199910000Y-90020000D02*
X198810000Y-91120000D01*
X196110000Y-89720000D02*
X197435000Y-88395000D01*
X197435000Y-88395000D02*
X199530100Y-88395000D01*
X199530100Y-88395000D02*
X199910000Y-88774900D01*
X199910000Y-88774900D02*
X199910000Y-90020000D01*
%TO.N,+12V*%
X191410000Y-89720000D02*
X192735000Y-91045000D01*
X196985000Y-91045000D02*
X198810000Y-89220000D01*
X192735000Y-91045000D02*
X196985000Y-91045000D01*
%TO.N,GND*%
X194710000Y-85820000D02*
X196010000Y-87120000D01*
X196010000Y-87120000D02*
X196010000Y-89720000D01*
%TO.N,+3.3V*%
X177172347Y-78882347D02*
X177610000Y-78444694D01*
X177610000Y-78444694D02*
X177610000Y-77370000D01*
X168610000Y-79020000D02*
X168610000Y-77470000D01*
X168610000Y-77470000D02*
X168710000Y-77370000D01*
X159935000Y-77545000D02*
X159935000Y-80420000D01*
X159935000Y-80420000D02*
X159935000Y-80620000D01*
X159935000Y-81970000D02*
X159935000Y-80420000D01*
%TO.N,GND*%
X170910000Y-95507500D02*
X169560000Y-95507500D01*
X169560000Y-95507500D02*
X168847500Y-96220000D01*
%TO.N,Net-(Q9-D)*%
X166972500Y-95270000D02*
X168310000Y-93932500D01*
X168310000Y-93932500D02*
X171910000Y-93932500D01*
%TO.N,/MCU/BUZ_PIN*%
X166972500Y-97170000D02*
X168655000Y-98852500D01*
X168655000Y-98852500D02*
X168655000Y-99798800D01*
X164610000Y-97032500D02*
X166835000Y-97032500D01*
X166835000Y-97032500D02*
X166972500Y-97170000D01*
%TO.N,GND*%
X164610000Y-95207500D02*
X165622500Y-96220000D01*
X165622500Y-96220000D02*
X168847500Y-96220000D01*
X135900000Y-90920000D02*
X135900000Y-92035305D01*
X135900000Y-92035305D02*
X141715000Y-97850305D01*
X141715000Y-97850305D02*
X141715000Y-98825000D01*
%TO.N,/MCU/RESET*%
X138440000Y-108420000D02*
X138440000Y-106390000D01*
X138440000Y-106390000D02*
X138510000Y-106320000D01*
X146410000Y-87620000D02*
X146410000Y-86240000D01*
X146410000Y-86240000D02*
X147530000Y-85120000D01*
%TO.N,GND*%
X135900000Y-108420000D02*
X135900000Y-107420000D01*
X135900000Y-107420000D02*
X141445000Y-101875000D01*
X141445000Y-101875000D02*
X141715000Y-101875000D01*
X135760000Y-111820000D02*
X135760000Y-115120000D01*
X135900000Y-108420000D02*
X135900000Y-111680000D01*
X135900000Y-111680000D02*
X135760000Y-111820000D01*
%TO.N,/MCU/GPIO0*%
X153410000Y-81470000D02*
X153260000Y-81320000D01*
X153410000Y-83320000D02*
X153410000Y-81470000D01*
X149510000Y-94120000D02*
X150910000Y-92720000D01*
X152610000Y-92120000D02*
X152010000Y-92720000D01*
X152010000Y-92720000D02*
X150910000Y-92720000D01*
%TO.N,/MCU/SCL*%
X138810000Y-91290000D02*
X138440000Y-90920000D01*
X138810000Y-92620000D02*
X138810000Y-91290000D01*
X157435000Y-85932005D02*
X155710305Y-87656700D01*
X154173300Y-87656700D02*
X153810000Y-88020000D01*
X155710305Y-87656700D02*
X154173300Y-87656700D01*
X157435000Y-81970000D02*
X157435000Y-85932005D01*
%TO.N,+3.3V*%
X156710000Y-80620000D02*
X155810000Y-81520000D01*
X159935000Y-80620000D02*
X156710000Y-80620000D01*
X159935000Y-80620000D02*
X159935000Y-81970000D01*
%TO.N,GND*%
X166435000Y-76195000D02*
X163210000Y-79420000D01*
X169960000Y-76520001D02*
X169634999Y-76195000D01*
X169960000Y-77370000D02*
X169960000Y-76520001D01*
X161060000Y-79520000D02*
X161060000Y-81845000D01*
X161060000Y-77370000D02*
X161060000Y-79520000D01*
X169634999Y-76195000D02*
X166435000Y-76195000D01*
X178860000Y-77370000D02*
X178860000Y-76520001D01*
X178860000Y-76520001D02*
X178534999Y-76195000D01*
X178534999Y-76195000D02*
X171135000Y-76195000D01*
X171135000Y-76195000D02*
X169960000Y-77370000D01*
X165310000Y-86970000D02*
X172410000Y-79870000D01*
X172410000Y-79870000D02*
X177209999Y-79870000D01*
X177209999Y-79870000D02*
X178860000Y-78219999D01*
X178860000Y-78219999D02*
X178860000Y-77370000D01*
%TO.N,/MCU/SDA*%
X157610000Y-96845000D02*
X158310000Y-96845000D01*
X159734200Y-97695600D02*
X161035000Y-98996400D01*
X158310000Y-96845000D02*
X159160600Y-97695600D01*
X159160600Y-97695600D02*
X159734200Y-97695600D01*
X161035000Y-98996400D02*
X161035000Y-99798800D01*
%TO.N,/MCU/SCL*%
X154745000Y-89785000D02*
X157346200Y-89785000D01*
X154610000Y-89920000D02*
X154745000Y-89785000D01*
X171110000Y-99307500D02*
X171110000Y-99320000D01*
X171110000Y-99320000D02*
X169910000Y-100520000D01*
X169910000Y-100520000D02*
X169910000Y-103520000D01*
X169910000Y-103520000D02*
X163210000Y-103520000D01*
X163210000Y-103520000D02*
X162305000Y-102615000D01*
X162305000Y-102615000D02*
X162305000Y-99798800D01*
X162305000Y-99798800D02*
X162305000Y-98996400D01*
X162305000Y-98996400D02*
X160153600Y-96845000D01*
X160153600Y-96845000D02*
X159910000Y-96845000D01*
X173310000Y-97720000D02*
X172697500Y-97720000D01*
X172697500Y-97720000D02*
X171110000Y-99307500D01*
%TO.N,Net-(U6-QSTRT)*%
X173310000Y-97220000D02*
X171022500Y-97220000D01*
X171022500Y-97220000D02*
X170910000Y-97332500D01*
%TO.N,MCU_BAT*%
X175280000Y-97720000D02*
X175280000Y-97220000D01*
X178910000Y-98320000D02*
X178310000Y-97720000D01*
X178310000Y-97720000D02*
X175280000Y-97720000D01*
%TO.N,GND*%
X178910000Y-95820000D02*
X177410000Y-95820000D01*
X177410000Y-95820000D02*
X176510000Y-96720000D01*
X176510000Y-96720000D02*
X175280000Y-96720000D01*
%TO.N,Buck_In*%
X172010000Y-108920000D02*
X172010000Y-110820000D01*
X178810000Y-113070000D02*
X178910000Y-113170000D01*
X172010000Y-110820000D02*
X172310000Y-111120000D01*
X178810000Y-111420000D02*
X178810000Y-113070000D01*
%TO.N,GND*%
X173810000Y-115295000D02*
X173810000Y-111070000D01*
%TO.N,+12V*%
X198610000Y-130820000D02*
X195510000Y-127720000D01*
X178385001Y-129320000D02*
X197110000Y-129320000D01*
X198760000Y-130970000D02*
X198610000Y-130820000D01*
X177885000Y-127970000D02*
X177885000Y-128819999D01*
X177885000Y-128819999D02*
X178385001Y-129320000D01*
X197110000Y-129320000D02*
X198610000Y-130820000D01*
X166910000Y-127920000D02*
X166910000Y-128769999D01*
X166910000Y-128769999D02*
X167285001Y-129145000D01*
X176710000Y-129145000D02*
X177885000Y-127970000D01*
X167285001Y-129145000D02*
X176710000Y-129145000D01*
X186610000Y-115032500D02*
X188210000Y-115032500D01*
X188310000Y-115132500D02*
X188210000Y-115032500D01*
X201560000Y-130970000D02*
X198760000Y-130970000D01*
X188210000Y-115032500D02*
X189597500Y-115032500D01*
X188310000Y-116020000D02*
X188310000Y-115132500D01*
X186747500Y-81520000D02*
X187747500Y-82520000D01*
X187747500Y-82520000D02*
X189110000Y-82520000D01*
X190210000Y-87520000D02*
X190210000Y-86720000D01*
X190210000Y-86720000D02*
X190910000Y-86020000D01*
X191410000Y-89720000D02*
X191410000Y-86520000D01*
X191410000Y-86520000D02*
X190910000Y-86020000D01*
%TO.N,+5V*%
X193710000Y-96020000D02*
X198010000Y-96020000D01*
X198010000Y-96020000D02*
X198810000Y-95220000D01*
%TO.N,+12V*%
X196110000Y-108520000D02*
X199510000Y-108520000D01*
X189597500Y-115032500D02*
X196110000Y-108520000D01*
X199510000Y-108520000D02*
X200060000Y-107970000D01*
X200060000Y-107970000D02*
X201760000Y-107970000D01*
%TO.N,Net-(Q3-D)*%
X195410000Y-110320000D02*
X204910000Y-110320000D01*
X183910000Y-121820000D02*
X195410000Y-110320000D01*
X204910000Y-110320000D02*
X204910000Y-109520000D01*
X204910000Y-109520000D02*
X206460000Y-107970000D01*
%TO.N,Net-(Q2-D)*%
X171810000Y-121820000D02*
X171810000Y-123195000D01*
X201110000Y-125820000D02*
X206260000Y-130970000D01*
X171810000Y-123195000D02*
X172710000Y-124095000D01*
X183410000Y-125820000D02*
X201110000Y-125820000D01*
%TO.N,Net-(J2-Pin_2)*%
X179135000Y-127970000D02*
X179135000Y-125945000D01*
X179135000Y-125945000D02*
X176910000Y-123720000D01*
X174760000Y-115070000D02*
X174760000Y-113420000D01*
X176010000Y-116320000D02*
X174760000Y-115070000D01*
%TO.N,Net-(Q3-S)*%
X178610000Y-123632500D02*
X182897500Y-123632500D01*
X182897500Y-123632500D02*
X182960000Y-123695000D01*
%TO.N,/MCU/turner*%
X175010000Y-123532500D02*
X175747500Y-122795000D01*
X175747500Y-122795000D02*
X181035000Y-122795000D01*
X181035000Y-122795000D02*
X182010000Y-121820000D01*
%TO.N,Net-(Q2-S)*%
X163410000Y-123332500D02*
X165797500Y-125720000D01*
X170635000Y-123920000D02*
X170860000Y-123695000D01*
X165797500Y-125720000D02*
X169310000Y-125720000D01*
X169410000Y-123920000D02*
X170635000Y-123920000D01*
%TO.N,Net-(J10-Pin_2)*%
X167509999Y-126420000D02*
X160110000Y-126420000D01*
X168160000Y-127070001D02*
X167509999Y-126420000D01*
X168160000Y-127920000D02*
X168160000Y-127070001D01*
X160110000Y-126420000D02*
X159710000Y-126020000D01*
X159710000Y-126020000D02*
X159710000Y-123332500D01*
%TO.N,+12V*%
X166910000Y-127920000D02*
X165685000Y-129145000D01*
X165685000Y-129145000D02*
X156684092Y-129145000D01*
X156684092Y-129145000D02*
X155785000Y-128245908D01*
X155785000Y-128245908D02*
X155785000Y-127970000D01*
%TO.N,Net-(D3-A)*%
X156758588Y-124120000D02*
X156610000Y-124120000D01*
X157035000Y-124545000D02*
X156610000Y-124120000D01*
X156610000Y-124120000D02*
X153472500Y-124120000D01*
X157035000Y-127970000D02*
X157035000Y-124545000D01*
%TO.N,+12V*%
X144185000Y-127770000D02*
X144185000Y-128619999D01*
X144585001Y-129020000D02*
X154735000Y-129020000D01*
X144185000Y-128619999D02*
X144585001Y-129020000D01*
X154735000Y-129020000D02*
X155785000Y-127970000D01*
%TO.N,Net-(D11-A)*%
X149510000Y-123157500D02*
X145435000Y-127232500D01*
X145435000Y-127232500D02*
X145435000Y-127770000D01*
%TO.N,Net-(D3-A)*%
X156660000Y-114645000D02*
X156660000Y-119321412D01*
X156660000Y-119321412D02*
X157135000Y-119796412D01*
X157135000Y-119796412D02*
X157135000Y-123743588D01*
X157135000Y-123743588D02*
X156758588Y-124120000D01*
X153472500Y-124120000D02*
X152610000Y-123257500D01*
%TO.N,GND*%
X157910000Y-112520000D02*
X157910000Y-112708910D01*
X157910000Y-112708910D02*
X157680160Y-112938750D01*
X157680160Y-112938750D02*
X158772500Y-114031090D01*
X158772500Y-114031090D02*
X158772500Y-114420000D01*
X157680160Y-112938750D02*
X157291250Y-112938750D01*
X156522500Y-112170000D02*
X157291250Y-112938750D01*
X154535000Y-116920000D02*
X155310000Y-116920000D01*
X155310000Y-116920000D02*
X155710000Y-116520000D01*
X153085000Y-113520000D02*
X152647500Y-113957500D01*
X152647500Y-113957500D02*
X151710000Y-113957500D01*
%TO.N,Net-(D11-A)*%
X152660000Y-112082500D02*
X153172500Y-112082500D01*
X153172500Y-112082500D02*
X153810000Y-112720000D01*
X153810000Y-118065100D02*
X151655100Y-120220000D01*
X153810000Y-112720000D02*
X153810000Y-118065100D01*
X151655100Y-120220000D02*
X151110000Y-120220000D01*
%TO.N,/MCU/heater*%
X146060000Y-111170000D02*
X147835000Y-112945000D01*
X147835000Y-112945000D02*
X147835000Y-115445000D01*
X146060000Y-108420000D02*
X146060000Y-111170000D01*
X166710000Y-120120000D02*
X166710000Y-121507500D01*
X147835000Y-115445000D02*
X151610000Y-119220000D01*
%TO.N,/MCU/turner*%
X151140000Y-108420000D02*
X151140000Y-109420000D01*
X151140000Y-109420000D02*
X151415000Y-109695000D01*
X151415000Y-109695000D02*
X155147500Y-109695000D01*
X155147500Y-109695000D02*
X155685000Y-110232500D01*
X155685000Y-110232500D02*
X155685000Y-112615100D01*
X157123052Y-113406948D02*
X157710000Y-113993896D01*
X155685000Y-112615100D02*
X156476848Y-113406948D01*
X156476848Y-113406948D02*
X157123052Y-113406948D01*
X157710000Y-113993896D02*
X157710000Y-121040100D01*
X157710000Y-121040100D02*
X159164900Y-122495000D01*
X159164900Y-122495000D02*
X164285000Y-122495000D01*
X164285000Y-122495000D02*
X166610000Y-124820000D01*
X166610000Y-124820000D02*
X173722500Y-124820000D01*
X173722500Y-124820000D02*
X175010000Y-123532500D01*
%TO.N,/MCU/MIST_PIN*%
X149870000Y-109420000D02*
X150870000Y-110420000D01*
X157610000Y-110620000D02*
X159210000Y-112220000D01*
X149870000Y-108420000D02*
X149870000Y-109420000D01*
X159210000Y-113320000D02*
X159360000Y-113470000D01*
X150870000Y-110420000D02*
X154810000Y-110420000D01*
X159210000Y-112220000D02*
X159210000Y-113320000D01*
X159360000Y-113470000D02*
X160647500Y-113470000D01*
%TO.N,/MCU/FAN_EXHAUST_PIN*%
X148600000Y-108420000D02*
X148600000Y-109000000D01*
X148600000Y-109000000D02*
X150620000Y-111020000D01*
X150620000Y-111020000D02*
X153797500Y-111020000D01*
X153797500Y-111020000D02*
X154697500Y-111920000D01*
%TO.N,GND*%
X159765000Y-108841200D02*
X159531200Y-108841200D01*
X159531200Y-108841200D02*
X158122500Y-107432500D01*
X156522500Y-111920000D02*
X156522500Y-112170000D01*
%TO.N,/MCU/WATER_PUMP_PIN*%
X150760000Y-112082500D02*
X150760000Y-115220000D01*
X150760000Y-115220000D02*
X150560000Y-115420000D01*
X152810000Y-115707500D02*
X152310000Y-116207500D01*
X152810000Y-114720000D02*
X152810000Y-115707500D01*
%TO.N,Net-(D11-A)*%
X151110000Y-122820000D02*
X149847500Y-122820000D01*
X149847500Y-122820000D02*
X149510000Y-123157500D01*
%TO.N,GND*%
X151710000Y-113957500D02*
X151285000Y-114382500D01*
X151285000Y-114382500D02*
X151285000Y-117007500D01*
X151285000Y-117007500D02*
X152310000Y-118032500D01*
%TO.N,/MCU/ROTARY_DATA*%
X144790000Y-108420000D02*
X144790000Y-112063604D01*
X144790000Y-112063604D02*
X146810000Y-114083604D01*
X146810000Y-114083604D02*
X146810000Y-116470000D01*
%TO.N,/MCU/ROT_SW*%
X143520000Y-111430000D02*
X145510000Y-113420000D01*
X145510000Y-113420000D02*
X145510000Y-113620000D01*
X145560000Y-113670000D02*
X145560000Y-116470000D01*
X143520000Y-108420000D02*
X143520000Y-111430000D01*
X145510000Y-113620000D02*
X145560000Y-113670000D01*
%TO.N,/MCU/ROTARY_CLK*%
X142250000Y-111760000D02*
X144310000Y-113820000D01*
X142250000Y-108420000D02*
X142250000Y-111760000D01*
X144310000Y-113820000D02*
X144310000Y-116470000D01*
%TO.N,+3.3V*%
X137660000Y-111820000D02*
X137660000Y-108910000D01*
X137660000Y-108910000D02*
X137170000Y-108420000D01*
X137660000Y-115120000D02*
X137660000Y-111820000D01*
X143060000Y-116470000D02*
X143060000Y-115620001D01*
X143060000Y-115620001D02*
X142559999Y-115120000D01*
X142559999Y-115120000D02*
X137660000Y-115120000D01*
X137710000Y-118520000D02*
X141859999Y-118520000D01*
X141859999Y-118520000D02*
X143060000Y-117319999D01*
X143060000Y-117319999D02*
X143060000Y-116470000D01*
%TO.N,GND*%
X135810000Y-118520000D02*
X135810000Y-115170000D01*
X135810000Y-115170000D02*
X135760000Y-115120000D01*
X141810000Y-116470000D02*
X137110000Y-116470000D01*
X137110000Y-116470000D02*
X135760000Y-115120000D01*
%TO.N,+12V*%
X149510000Y-121282500D02*
X144185000Y-126607500D01*
X144185000Y-126607500D02*
X144185000Y-127770000D01*
X152610000Y-121382500D02*
X149610000Y-121382500D01*
X149610000Y-121382500D02*
X149510000Y-121282500D01*
X156110000Y-123257500D02*
X154485000Y-123257500D01*
X154485000Y-123257500D02*
X152610000Y-121382500D01*
%TO.N,Net-(D8-A)*%
X160647500Y-115370000D02*
X159710000Y-116307500D01*
%TO.N,GND*%
X178610000Y-121807500D02*
X175110000Y-121807500D01*
X175110000Y-121807500D02*
X175010000Y-121707500D01*
X175010000Y-121707500D02*
X175010000Y-119057500D01*
X175010000Y-119057500D02*
X174872500Y-118920000D01*
%TO.N,/MCU/heater*%
X166710000Y-121507500D02*
X169597500Y-121507500D01*
X169597500Y-121507500D02*
X169910000Y-121820000D01*
%TO.N,GND*%
X163410000Y-121507500D02*
X164885000Y-121507500D01*
X164885000Y-121507500D02*
X166710000Y-123332500D01*
X165310000Y-119232500D02*
X165310000Y-119607500D01*
X165310000Y-119607500D02*
X163410000Y-121507500D01*
X174872500Y-118920000D02*
X174872500Y-116357500D01*
X174872500Y-116357500D02*
X173810000Y-115295000D01*
X172910000Y-119170000D02*
X174622500Y-119170000D01*
X174622500Y-119170000D02*
X174872500Y-118920000D01*
X165310000Y-119232500D02*
X172847500Y-119232500D01*
X172847500Y-119232500D02*
X172910000Y-119170000D01*
X163210000Y-115332500D02*
X163210000Y-117132500D01*
X163210000Y-117132500D02*
X165310000Y-119232500D01*
X158772500Y-114420000D02*
X162297500Y-114420000D01*
X162297500Y-114420000D02*
X163210000Y-115332500D01*
%TO.N,/MCU/MIST_PIN*%
X163210000Y-113507500D02*
X160685000Y-113507500D01*
X160685000Y-113507500D02*
X160647500Y-113470000D01*
%TO.N,/MCU/FAULT_LED*%
X163575000Y-108841200D02*
X163575000Y-110485000D01*
X163575000Y-110485000D02*
X165310000Y-112220000D01*
X165310000Y-112220000D02*
X165310000Y-113582500D01*
%TO.N,/MCU/BUSY_LED*%
X164845000Y-108841200D02*
X164845000Y-110355000D01*
X164845000Y-110355000D02*
X168010000Y-113520000D01*
%TO.N,/MCU/CON_LED*%
X166115000Y-108841200D02*
X166115000Y-109704800D01*
X166115000Y-109704800D02*
X169930200Y-113520000D01*
X169930200Y-113520000D02*
X170410000Y-113520000D01*
%TO.N,/MCU/LED_PIN*%
X167385000Y-108841200D02*
X167385000Y-109704800D01*
X167385000Y-109704800D02*
X170387700Y-112707500D01*
X172147500Y-112707500D02*
X172860000Y-113420000D01*
X170387700Y-112707500D02*
X172147500Y-112707500D01*
%TO.N,MCU_BAT*%
X177035000Y-114120000D02*
X177035000Y-110395000D01*
X178010000Y-101820000D02*
X178910000Y-100920000D01*
X177035000Y-110395000D02*
X177210000Y-110220000D01*
X178910000Y-100920000D02*
X178910000Y-98320000D01*
%TO.N,Buck_In*%
X178910000Y-113170000D02*
X183997500Y-113170000D01*
X183997500Y-113170000D02*
X184010000Y-113182500D01*
%TO.N,+12V*%
X178910000Y-115070000D02*
X178910000Y-117282500D01*
X178910000Y-117282500D02*
X178810000Y-117382500D01*
X186610000Y-115032500D02*
X178947500Y-115032500D01*
X178947500Y-115032500D02*
X178910000Y-115070000D01*
%TO.N,GND*%
X190264900Y-106770000D02*
X191410000Y-106770000D01*
X189467600Y-113207500D02*
X191410000Y-111265100D01*
X191410000Y-106770000D02*
X191610000Y-106770000D01*
X186610000Y-113207500D02*
X189467600Y-113207500D01*
X185910000Y-110770000D02*
X186610000Y-111470000D01*
X186610000Y-111470000D02*
X186610000Y-113207500D01*
%TO.N,/MCU/PS*%
X187860000Y-105670000D02*
X188160000Y-105670000D01*
X188160000Y-105670000D02*
X190760000Y-108270000D01*
X190760000Y-108270000D02*
X190760000Y-110382500D01*
X190760000Y-110382500D02*
X189922500Y-111220000D01*
%TO.N,/MCU/TPS_VAUX*%
X187860000Y-104670000D02*
X188968704Y-104670000D01*
X188968704Y-104670000D02*
X190018704Y-105720000D01*
X190018704Y-105720000D02*
X190760000Y-105720000D01*
%TO.N,GND*%
X187860000Y-104170000D02*
X189105100Y-104170000D01*
X189105100Y-104170000D02*
X189605100Y-104670000D01*
X189605100Y-104670000D02*
X191610000Y-104670000D01*
X191610000Y-104670000D02*
X192660000Y-105720000D01*
%TO.N,/MCU/TPS_FB*%
X190610000Y-103732500D02*
X190397500Y-103520000D01*
X190397500Y-103520000D02*
X187435000Y-103520000D01*
X193710000Y-103732500D02*
X190610000Y-103732500D01*
%TO.N,GND*%
X192660000Y-105720000D02*
X193255100Y-105720000D01*
X193255100Y-105720000D02*
X194735000Y-104240100D01*
X194735000Y-104240100D02*
X194735000Y-102932500D01*
X194735000Y-102932500D02*
X193710000Y-101907500D01*
X187860000Y-105170000D02*
X188664900Y-105170000D01*
X188664900Y-105170000D02*
X190264900Y-106770000D01*
X191610000Y-106770000D02*
X192660000Y-105720000D01*
%TO.N,Net-(U1-L1)*%
X185935000Y-105420000D02*
X183447500Y-105420000D01*
X183447500Y-105420000D02*
X183410000Y-105382500D01*
%TO.N,Net-(U1-L2)*%
X185935000Y-104420000D02*
X185610000Y-104420000D01*
X185610000Y-104420000D02*
X184447500Y-103257500D01*
X184447500Y-103257500D02*
X183410000Y-103257500D01*
%TO.N,/MCU/TPS_VIN*%
X188097500Y-109020000D02*
X186185000Y-107107500D01*
X186185000Y-107107500D02*
X186185000Y-106320000D01*
X188097500Y-109020000D02*
X188097500Y-111220000D01*
X185910000Y-108870000D02*
X187947500Y-108870000D01*
X187947500Y-108870000D02*
X188097500Y-109020000D01*
X182410000Y-107370000D02*
X184410000Y-107370000D01*
X184410000Y-107370000D02*
X185910000Y-108870000D01*
%TO.N,GND*%
X185910000Y-110770000D02*
X183910000Y-110770000D01*
X183910000Y-110770000D02*
X182410000Y-109270000D01*
X175610000Y-109270000D02*
X182410000Y-109270000D01*
%TO.N,/MCU/TPS_VIN*%
X172010000Y-107620000D02*
X182160000Y-107620000D01*
X182160000Y-107620000D02*
X182410000Y-107370000D01*
%TO.N,GND*%
X174810000Y-105132500D02*
X180310000Y-105132500D01*
X172010000Y-105132500D02*
X174810000Y-105132500D01*
X168655000Y-108841200D02*
X172010000Y-105486200D01*
X172010000Y-105486200D02*
X172010000Y-105132500D01*
X159765000Y-108841200D02*
X162305000Y-108841200D01*
%TO.N,+3.3V*%
X157560000Y-99320000D02*
X159286200Y-99320000D01*
X159286200Y-99320000D02*
X159765000Y-99798800D01*
%TO.N,GND*%
X155660000Y-99320000D02*
X155660000Y-98070000D01*
X146210000Y-99520000D02*
X145380000Y-100350000D01*
X155660000Y-98070000D02*
X155310000Y-97720000D01*
X145380000Y-100350000D02*
X143240000Y-100350000D01*
%TO.N,/MCU/IO_LED*%
X155910000Y-101782500D02*
X154885000Y-102807500D01*
X154885000Y-102807500D02*
X154885000Y-103745000D01*
X154885000Y-103745000D02*
X154520000Y-104110000D01*
X154520000Y-104110000D02*
X153660000Y-104110000D01*
%TO.N,Net-(D9-K)*%
X155910000Y-105607500D02*
X155910000Y-103657500D01*
%TO.N,GND*%
X155910000Y-107432500D02*
X155712500Y-107432500D01*
X155712500Y-107432500D02*
X153660000Y-105380000D01*
X156522500Y-111920000D02*
X156522500Y-108045000D01*
X156522500Y-108045000D02*
X155910000Y-107432500D01*
%TO.N,Net-(U8-X1)*%
X165310000Y-93070000D02*
X167310000Y-93070000D01*
X167310000Y-93070000D02*
X167560000Y-92820000D01*
X162273800Y-92325000D02*
X164565000Y-92325000D01*
X164565000Y-92325000D02*
X165310000Y-93070000D01*
%TO.N,Net-(U8-X2)*%
X165310000Y-90570000D02*
X162758800Y-90570000D01*
X162758800Y-90570000D02*
X162273800Y-91055000D01*
X167560000Y-90720000D02*
X165460000Y-90720000D01*
X165460000Y-90720000D02*
X165310000Y-90570000D01*
%TO.N,Net-(C4-Pad1)*%
X169460000Y-90720000D02*
X169460000Y-92820000D01*
%TO.N,/MCU/FAN_CON_PIN*%
X164845000Y-101985000D02*
X164810000Y-102020000D01*
X164845000Y-99798800D02*
X164845000Y-101985000D01*
%TO.N,Net-(U5-~{INT})*%
X163575000Y-99798800D02*
X163575000Y-98197500D01*
X163575000Y-98197500D02*
X162210000Y-96832500D01*
%TO.N,+3.3V*%
X172010000Y-103307500D02*
X172010000Y-102032500D01*
X172010000Y-102032500D02*
X171110000Y-101132500D01*
X180310000Y-103307500D02*
X172010000Y-103307500D01*
X184122500Y-100820000D02*
X181635000Y-103307500D01*
X181635000Y-103307500D02*
X180310000Y-103307500D01*
X186397500Y-100820000D02*
X186397500Y-103307500D01*
X186397500Y-103307500D02*
X186185000Y-103520000D01*
X190610000Y-101907500D02*
X187485000Y-101907500D01*
X187485000Y-101907500D02*
X186397500Y-100820000D01*
%TO.N,Net-(D13-A)*%
X188247500Y-98020000D02*
X188247500Y-100795000D01*
X188247500Y-100795000D02*
X188222500Y-100820000D01*
%TO.N,+3.3V*%
X184122500Y-100820000D02*
X186397500Y-100820000D01*
%TO.N,Net-(D14-A)*%
X184147500Y-98020000D02*
X183110000Y-99057500D01*
X183110000Y-99057500D02*
X183110000Y-100007500D01*
X183110000Y-100007500D02*
X182297500Y-100820000D01*
%TO.N,Net-(D14-K)*%
X183575000Y-95395000D02*
X183110000Y-95860000D01*
X183110000Y-95860000D02*
X183110000Y-97182500D01*
X183110000Y-97182500D02*
X182272500Y-98020000D01*
%TO.N,Net-(D13-K)*%
X184845000Y-95395000D02*
X184845000Y-96492500D01*
X184845000Y-96492500D02*
X186372500Y-98020000D01*
%TO.N,+5V*%
X188310000Y-94670000D02*
X192360000Y-94670000D01*
X192360000Y-94670000D02*
X193710000Y-96020000D01*
X186115000Y-95395000D02*
X187585000Y-95395000D01*
X187585000Y-95395000D02*
X188310000Y-94670000D01*
%TO.N,GND*%
X183575000Y-90445000D02*
X183575000Y-89460001D01*
X183575000Y-89460001D02*
X183249999Y-89135000D01*
X178910000Y-92118820D02*
X178910000Y-95820000D01*
X181893820Y-89135000D02*
X178910000Y-92118820D01*
X186115000Y-90445000D02*
X188310000Y-92640000D01*
X188310000Y-92640000D02*
X188310000Y-92770000D01*
X186822500Y-89737500D02*
X186115000Y-90445000D01*
%TO.N,/MCU/FAN_CON_PIN*%
X183872500Y-85770000D02*
X185160000Y-85770000D01*
X185160000Y-85770000D02*
X185710000Y-86320000D01*
X188610000Y-86332500D02*
X188010000Y-85732500D01*
X188610000Y-87020000D02*
X188610000Y-86332500D01*
%TO.N,Net-(D6-A)*%
X183872500Y-83870000D02*
X184872500Y-82870000D01*
X184872500Y-82870000D02*
X184872500Y-81520000D01*
X184872500Y-81520000D02*
X184872500Y-77782500D01*
X184872500Y-77782500D02*
X185285000Y-77370000D01*
%TO.N,+12V*%
X186747500Y-81520000D02*
X186747500Y-77582500D01*
X186747500Y-77582500D02*
X186535000Y-77370000D01*
%TO.N,GND*%
X185747500Y-84820000D02*
X187097500Y-84820000D01*
X187097500Y-84820000D02*
X188010000Y-83907500D01*
X185747500Y-84820000D02*
X186822500Y-85895000D01*
X186822500Y-85895000D02*
X186822500Y-87820000D01*
%TO.N,+12V*%
X167910000Y-88757500D02*
X174847500Y-88757500D01*
X174847500Y-88757500D02*
X175410000Y-89320000D01*
%TO.N,Net-(BZ1-+)*%
X167910000Y-86882500D02*
X170247500Y-86882500D01*
X170247500Y-86882500D02*
X175410000Y-81720000D01*
%TO.N,GND*%
X162273800Y-88515000D02*
X163765000Y-88515000D01*
X163765000Y-88515000D02*
X165310000Y-86970000D01*
%TO.N,+3.3V*%
X162273800Y-89785000D02*
X163345000Y-89785000D01*
X163345000Y-89785000D02*
X164260000Y-88870000D01*
X164260000Y-88870000D02*
X165310000Y-88870000D01*
X159510000Y-91620000D02*
X161345000Y-89785000D01*
X161345000Y-89785000D02*
X162273800Y-89785000D01*
X157610000Y-95020000D02*
X162197500Y-95020000D01*
X162197500Y-95020000D02*
X162210000Y-95007500D01*
X157346200Y-92325000D02*
X157346200Y-92483800D01*
X157346200Y-92483800D02*
X157610000Y-92747600D01*
X157610000Y-92747600D02*
X157610000Y-95020000D01*
%TO.N,/MCU/SDA*%
X156210000Y-95120000D02*
X156210000Y-96620000D01*
X156535000Y-96845000D02*
X157610000Y-96845000D01*
X155543300Y-88515000D02*
X155410000Y-88381700D01*
X157346200Y-88515000D02*
X155543300Y-88515000D01*
X156210000Y-96620000D02*
X156310000Y-96620000D01*
X156310000Y-96620000D02*
X156535000Y-96845000D01*
%TO.N,+3.3V*%
X159510000Y-91620000D02*
X158805000Y-92325000D01*
X158805000Y-92325000D02*
X157346200Y-92325000D01*
%TO.N,/MCU/WATER_LEVEL_DATA*%
X147330000Y-90920000D02*
X147330000Y-89920000D01*
X153185000Y-90195000D02*
X154010000Y-91020000D01*
X155930600Y-91020000D02*
X156030600Y-90920000D01*
X153185000Y-89845000D02*
X153185000Y-90195000D01*
X154010000Y-91020000D02*
X155930600Y-91020000D01*
X152896700Y-89556700D02*
X153185000Y-89845000D01*
X176360000Y-79070000D02*
X176360000Y-77370000D01*
X156030600Y-90920000D02*
X156030600Y-90463300D01*
X147330000Y-89920000D02*
X147693300Y-89556700D01*
X161880100Y-87045000D02*
X163585000Y-87045000D01*
X156030600Y-90463300D02*
X158461800Y-90463300D01*
X158461800Y-90463300D02*
X161880100Y-87045000D01*
X147693300Y-89556700D02*
X152896700Y-89556700D01*
X163585000Y-87045000D02*
X171210000Y-79420000D01*
X171210000Y-79420000D02*
X176010000Y-79420000D01*
X176010000Y-79420000D02*
X176360000Y-79070000D01*
%TO.N,/MCU/TEMP1_DATA*%
X146060000Y-90920000D02*
X146060000Y-89920000D01*
X146060000Y-89920000D02*
X146873300Y-89106700D01*
X167460000Y-78406396D02*
X167460000Y-77370000D01*
X146873300Y-89106700D02*
X158523300Y-89106700D01*
X158523300Y-89106700D02*
X162210000Y-85420000D01*
X162210000Y-85420000D02*
X162210000Y-83656396D01*
X162210000Y-83656396D02*
X167460000Y-78406396D01*
%TO.N,/MCU/GPIO0*%
X137410000Y-92520000D02*
X139010000Y-94120000D01*
X152610000Y-92120000D02*
X152610000Y-91120000D01*
X139010000Y-94120000D02*
X149510000Y-94120000D01*
X152610000Y-91120000D02*
X152410000Y-90920000D01*
X137370000Y-85120000D02*
X137370000Y-87980000D01*
X137370000Y-87980000D02*
X137410000Y-88020000D01*
%TO.N,GND*%
X136760000Y-81220000D02*
X135900000Y-82080000D01*
X135900000Y-82080000D02*
X135900000Y-90920000D01*
X136760000Y-81220000D02*
X136810000Y-81170000D01*
X136810000Y-81170000D02*
X136810000Y-78270000D01*
X137035000Y-78495000D02*
X136810000Y-78270000D01*
X136810000Y-78270000D02*
X136810000Y-73270000D01*
X136810000Y-73270000D02*
X136760000Y-73220000D01*
X136810000Y-78720000D02*
X137035000Y-78495000D01*
X137035000Y-78495000D02*
X145730100Y-78495000D01*
X145730100Y-78495000D02*
X146810000Y-77415100D01*
X146810000Y-77415100D02*
X146810000Y-75770000D01*
X146810000Y-75770000D02*
X146310000Y-75770000D01*
X146310000Y-75770000D02*
X148760000Y-75770000D01*
X148760000Y-75770000D02*
X148760000Y-73320000D01*
X145010000Y-75770000D02*
X146310000Y-75770000D01*
%TO.N,+3.3V*%
X144990000Y-85120000D02*
X144990000Y-81752500D01*
X144990000Y-81752500D02*
X145010000Y-81732500D01*
%TO.N,/MCU/SDA*%
X158685000Y-81970000D02*
X158685000Y-83720000D01*
X158685000Y-83720000D02*
X158685000Y-87176200D01*
X142250000Y-90920000D02*
X142250000Y-89711701D01*
X146355000Y-84633299D02*
X148286497Y-82701802D01*
X157610000Y-79120000D02*
X157710000Y-79020000D01*
X142250000Y-89711701D02*
X146355000Y-85606701D01*
X146355000Y-85606701D02*
X146355000Y-84633299D01*
X148286497Y-82701802D02*
X149891802Y-82701802D01*
X149891802Y-82701802D02*
X150460000Y-82133604D01*
X150460000Y-82133604D02*
X150460000Y-81333604D01*
X161810000Y-76020000D02*
X162110000Y-76320000D01*
X150460000Y-81333604D02*
X152673604Y-79120000D01*
X152673604Y-79120000D02*
X157610000Y-79120000D01*
X157710000Y-79020000D02*
X157710000Y-76694092D01*
X157710000Y-76694092D02*
X158384092Y-76020000D01*
X158384092Y-76020000D02*
X161810000Y-76020000D01*
X162110000Y-76320000D02*
X162110000Y-83120000D01*
X162110000Y-83120000D02*
X161510000Y-83720000D01*
X161510000Y-83720000D02*
X158685000Y-83720000D01*
X158685000Y-87176200D02*
X157346200Y-88515000D01*
%TO.N,GND*%
X161060000Y-81845000D02*
X161185000Y-81970000D01*
%TO.N,+3.3V*%
X159810000Y-77370000D02*
X159810000Y-77420000D01*
X159810000Y-77420000D02*
X159935000Y-77545000D01*
%TO.N,/MCU/TEMP2_DATA*%
X144790000Y-90920000D02*
X144790000Y-90415000D01*
X157810000Y-79620000D02*
X158560000Y-78870000D01*
X144790000Y-90415000D02*
X148895000Y-86310000D01*
X148895000Y-86310000D02*
X148895000Y-84335000D01*
X158560000Y-78870000D02*
X158560000Y-77370000D01*
X148895000Y-84335000D02*
X150910000Y-82320000D01*
X152810000Y-79620000D02*
X157810000Y-79620000D01*
X150910000Y-82320000D02*
X150910000Y-81520000D01*
X150910000Y-81520000D02*
X152810000Y-79620000D01*
D71*
%TO.N,/MCU/RESET*%
X145010000Y-77670000D02*
X142660000Y-77670000D01*
X142660000Y-77670000D02*
X141260000Y-76270000D01*
X141260000Y-76270000D02*
X141260000Y-73220000D01*
X141260000Y-81220000D02*
X141260000Y-80970000D01*
X141260000Y-80970000D02*
X142322500Y-79907500D01*
%TO.N,/MCU/RX*%
X140980000Y-90920000D02*
X140980000Y-88750000D01*
X140980000Y-88750000D02*
X142450000Y-87280000D01*
X142450000Y-87280000D02*
X142450000Y-85120000D01*
%TO.N,/MCU/TX*%
X139710000Y-90920000D02*
X139710000Y-85320000D01*
D70*
X139710000Y-85320000D02*
X139910000Y-85120000D01*
%TD*%
M02*
