%TF.GenerationSoftware,KiCad,Pcbnew,8.0.3*%
%TF.CreationDate,2024-06-22T21:39:14+05:00*%
%TF.ProjectId,Capibator_PCB,43617069-6261-4746-9f72-5f5043422e6b,1.1*%
%TF.SameCoordinates,Original*%
%TF.FileFunction,Paste,Top*%
%TF.FilePolarity,Positive*%
%FSLAX46Y46*%
G04 Gerber Fmt 4.6, Leading zero omitted, Abs format (unit mm)*
G04 Created by KiCad (PCBNEW 8.0.3) date 2024-06-22 21:39:14*
%MOMM*%
%LPD*%
G01*
G04 APERTURE LIST*
G04 Aperture macros list*
%AMRoundRect*
0 Rectangle with rounded corners*
0 $1 Rounding radius*
0 $2 $3 $4 $5 $6 $7 $8 $9 X,Y pos of 4 corners*
0 Add a 4 corners polygon primitive as box body*
4,1,4,$2,$3,$4,$5,$6,$7,$8,$9,$2,$3,0*
0 Add four circle primitives for the rounded corners*
1,1,$1+$1,$2,$3*
1,1,$1+$1,$4,$5*
1,1,$1+$1,$6,$7*
1,1,$1+$1,$8,$9*
0 Add four rect primitives between the rounded corners*
20,1,$1+$1,$2,$3,$4,$5,0*
20,1,$1+$1,$4,$5,$6,$7,0*
20,1,$1+$1,$6,$7,$8,$9,0*
20,1,$1+$1,$8,$9,$2,$3,0*%
G04 Aperture macros list end*
%ADD10C,0.010000*%
%ADD11R,0.900000X1.500000*%
%ADD12R,1.500000X0.900000*%
%ADD13R,1.050000X1.050000*%
%ADD14RoundRect,0.250000X-0.250000X-1.100000X0.250000X-1.100000X0.250000X1.100000X-0.250000X1.100000X0*%
%ADD15RoundRect,0.150000X-0.150000X-0.700000X0.150000X-0.700000X0.150000X0.700000X-0.150000X0.700000X0*%
%ADD16R,1.400000X1.600000*%
%ADD17RoundRect,0.250000X-0.475000X0.250000X-0.475000X-0.250000X0.475000X-0.250000X0.475000X0.250000X0*%
%ADD18RoundRect,0.250000X0.450000X-0.262500X0.450000X0.262500X-0.450000X0.262500X-0.450000X-0.262500X0*%
%ADD19RoundRect,0.243750X0.456250X-0.243750X0.456250X0.243750X-0.456250X0.243750X-0.456250X-0.243750X0*%
%ADD20RoundRect,0.250000X-0.262500X-0.450000X0.262500X-0.450000X0.262500X0.450000X-0.262500X0.450000X0*%
%ADD21RoundRect,0.250000X0.250000X1.100000X-0.250000X1.100000X-0.250000X-1.100000X0.250000X-1.100000X0*%
%ADD22RoundRect,0.150000X0.150000X0.700000X-0.150000X0.700000X-0.150000X-0.700000X0.150000X-0.700000X0*%
%ADD23RoundRect,0.250000X-0.250000X-0.475000X0.250000X-0.475000X0.250000X0.475000X-0.250000X0.475000X0*%
%ADD24RoundRect,0.250000X-0.450000X0.262500X-0.450000X-0.262500X0.450000X-0.262500X0.450000X0.262500X0*%
%ADD25RoundRect,0.250000X-0.625000X0.375000X-0.625000X-0.375000X0.625000X-0.375000X0.625000X0.375000X0*%
%ADD26RoundRect,0.218750X-0.381250X0.218750X-0.381250X-0.218750X0.381250X-0.218750X0.381250X0.218750X0*%
%ADD27RoundRect,0.250000X0.250000X0.475000X-0.250000X0.475000X-0.250000X-0.475000X0.250000X-0.475000X0*%
%ADD28RoundRect,0.150000X-0.150000X0.587500X-0.150000X-0.587500X0.150000X-0.587500X0.150000X0.587500X0*%
%ADD29RoundRect,0.243750X0.243750X0.456250X-0.243750X0.456250X-0.243750X-0.456250X0.243750X-0.456250X0*%
%ADD30RoundRect,0.250000X0.475000X-0.250000X0.475000X0.250000X-0.475000X0.250000X-0.475000X-0.250000X0*%
%ADD31RoundRect,0.243750X-0.456250X0.243750X-0.456250X-0.243750X0.456250X-0.243750X0.456250X0.243750X0*%
%ADD32RoundRect,0.150000X-0.587500X-0.150000X0.587500X-0.150000X0.587500X0.150000X-0.587500X0.150000X0*%
%ADD33RoundRect,0.002500X0.297500X0.122500X-0.297500X0.122500X-0.297500X-0.122500X0.297500X-0.122500X0*%
%ADD34RoundRect,0.002500X0.122500X0.297500X-0.122500X0.297500X-0.122500X-0.297500X0.122500X-0.297500X0*%
%ADD35RoundRect,0.008100X0.371900X0.126900X-0.371900X0.126900X-0.371900X-0.126900X0.371900X-0.126900X0*%
%ADD36R,1.800000X1.000000*%
%ADD37RoundRect,0.042000X-0.258000X0.943000X-0.258000X-0.943000X0.258000X-0.943000X0.258000X0.943000X0*%
%ADD38RoundRect,0.250000X0.262500X0.450000X-0.262500X0.450000X-0.262500X-0.450000X0.262500X-0.450000X0*%
%ADD39R,0.558800X2.286000*%
%ADD40RoundRect,0.243750X-0.243750X-0.456250X0.243750X-0.456250X0.243750X0.456250X-0.243750X0.456250X0*%
%ADD41R,1.981200X0.533400*%
%ADD42RoundRect,0.250000X0.250000X1.150000X-0.250000X1.150000X-0.250000X-1.150000X0.250000X-1.150000X0*%
%ADD43R,1.500000X2.000000*%
%ADD44R,3.800000X2.000000*%
%ADD45RoundRect,0.250000X-0.250000X-1.150000X0.250000X-1.150000X0.250000X1.150000X-0.250000X1.150000X0*%
%ADD46RoundRect,0.150000X0.587500X0.150000X-0.587500X0.150000X-0.587500X-0.150000X0.587500X-0.150000X0*%
G04 APERTURE END LIST*
D10*
%TO.C,U1*%
X185834500Y-104545000D02*
X185259500Y-104545000D01*
X185259500Y-104295000D01*
X185834500Y-104295000D01*
X185834500Y-104545000D01*
G36*
X185834500Y-104545000D02*
G01*
X185259500Y-104545000D01*
X185259500Y-104295000D01*
X185834500Y-104295000D01*
X185834500Y-104545000D01*
G37*
X185834500Y-105545000D02*
X185259500Y-105545000D01*
X185259500Y-105295000D01*
X185834500Y-105295000D01*
X185834500Y-105545000D01*
G36*
X185834500Y-105545000D02*
G01*
X185259500Y-105545000D01*
X185259500Y-105295000D01*
X185834500Y-105295000D01*
X185834500Y-105545000D01*
G37*
X186010000Y-105045000D02*
X185290000Y-105045000D01*
X185290000Y-104795000D01*
X186010000Y-104795000D01*
X186010000Y-105045000D01*
G36*
X186010000Y-105045000D02*
G01*
X185290000Y-105045000D01*
X185290000Y-104795000D01*
X186010000Y-104795000D01*
X186010000Y-105045000D01*
G37*
X186609500Y-104545000D02*
X186034500Y-104545000D01*
X186034500Y-104295000D01*
X186609500Y-104295000D01*
X186609500Y-104545000D01*
G36*
X186609500Y-104545000D02*
G01*
X186034500Y-104545000D01*
X186034500Y-104295000D01*
X186609500Y-104295000D01*
X186609500Y-104545000D01*
G37*
X186609500Y-105545000D02*
X186034500Y-105545000D01*
X186034500Y-105295000D01*
X186609500Y-105295000D01*
X186609500Y-105545000D01*
G36*
X186609500Y-105545000D02*
G01*
X186034500Y-105545000D01*
X186034500Y-105295000D01*
X186609500Y-105295000D01*
X186609500Y-105545000D01*
G37*
X186930000Y-105045000D02*
X186210000Y-105045000D01*
X186210000Y-104795000D01*
X186930000Y-104795000D01*
X186930000Y-105045000D01*
G36*
X186930000Y-105045000D02*
G01*
X186210000Y-105045000D01*
X186210000Y-104795000D01*
X186930000Y-104795000D01*
X186930000Y-105045000D01*
G37*
X186560000Y-106620000D02*
X186310000Y-106620000D01*
X186310000Y-106270000D01*
X186060000Y-106270000D01*
X186060000Y-106620000D01*
X185810000Y-106620000D01*
X185810000Y-106020000D01*
X186560000Y-106020000D01*
X186560000Y-106620000D01*
G36*
X186560000Y-106620000D02*
G01*
X186310000Y-106620000D01*
X186310000Y-106270000D01*
X186060000Y-106270000D01*
X186060000Y-106620000D01*
X185810000Y-106620000D01*
X185810000Y-106020000D01*
X186560000Y-106020000D01*
X186560000Y-106620000D01*
G37*
X186060000Y-103570000D02*
X186310000Y-103570000D01*
X186310000Y-103220000D01*
X186560000Y-103220000D01*
X186560000Y-103820000D01*
X185810000Y-103820000D01*
X185810000Y-103220000D01*
X186060000Y-103220000D01*
X186060000Y-103570000D01*
G36*
X186060000Y-103570000D02*
G01*
X186310000Y-103570000D01*
X186310000Y-103220000D01*
X186560000Y-103220000D01*
X186560000Y-103820000D01*
X185810000Y-103820000D01*
X185810000Y-103220000D01*
X186060000Y-103220000D01*
X186060000Y-103570000D01*
G37*
%TO.C,U6*%
X174575000Y-97880000D02*
X174015000Y-97880000D01*
X174015000Y-97060000D01*
X174575000Y-97060000D01*
X174575000Y-97880000D01*
G36*
X174575000Y-97880000D02*
G01*
X174015000Y-97880000D01*
X174015000Y-97060000D01*
X174575000Y-97060000D01*
X174575000Y-97880000D01*
G37*
%TO.C,U7*%
X185030000Y-93565000D02*
X183390000Y-93565000D01*
X183390000Y-92275000D01*
X185030000Y-92275000D01*
X185030000Y-93565000D01*
G36*
X185030000Y-93565000D02*
G01*
X183390000Y-93565000D01*
X183390000Y-92275000D01*
X185030000Y-92275000D01*
X185030000Y-93565000D01*
G37*
%TD*%
D11*
%TO.C,U2*%
X135900000Y-108420000D03*
X137170000Y-108420000D03*
X138440000Y-108420000D03*
X139710000Y-108420000D03*
X140980000Y-108420000D03*
X142250000Y-108420000D03*
X143520000Y-108420000D03*
X144790000Y-108420000D03*
X146060000Y-108420000D03*
X147330000Y-108420000D03*
X148600000Y-108420000D03*
X149870000Y-108420000D03*
X151140000Y-108420000D03*
X152410000Y-108420000D03*
D12*
X153660000Y-105380000D03*
X153660000Y-104110000D03*
X153660000Y-102840000D03*
X153660000Y-101570000D03*
X153660000Y-100300000D03*
X153660000Y-99030000D03*
X153660000Y-97760000D03*
X153660000Y-96490000D03*
X153660000Y-95220000D03*
X153660000Y-93950000D03*
D11*
X152410000Y-90920000D03*
X151140000Y-90920000D03*
X149870000Y-90920000D03*
X148600000Y-90920000D03*
X147330000Y-90920000D03*
X146060000Y-90920000D03*
X144790000Y-90920000D03*
X143520000Y-90920000D03*
X142250000Y-90920000D03*
X140980000Y-90920000D03*
X139710000Y-90920000D03*
X138440000Y-90920000D03*
X137170000Y-90920000D03*
X135900000Y-90920000D03*
D13*
X141715000Y-101875000D03*
X143240000Y-101875000D03*
X144765000Y-101875000D03*
X141715000Y-100350000D03*
X143240000Y-100350000D03*
X144765000Y-100350000D03*
X141715000Y-98825000D03*
X143240000Y-98825000D03*
X144765000Y-98825000D03*
%TD*%
D14*
%TO.C,J2*%
X180985000Y-131170000D03*
X176035000Y-131170000D03*
D15*
X179135000Y-127970000D03*
X177885000Y-127970000D03*
%TD*%
D16*
%TO.C,SW2*%
X136760000Y-81220000D03*
X136760000Y-73220000D03*
X141260000Y-81220000D03*
X141260000Y-73220000D03*
%TD*%
D17*
%TO.C,C13*%
X182410000Y-107370000D03*
X182410000Y-109270000D03*
%TD*%
D18*
%TO.C,R38*%
X172910000Y-119170000D03*
X172910000Y-117345000D03*
%TD*%
D19*
%TO.C,D2*%
X178810000Y-119257500D03*
X178810000Y-117382500D03*
%TD*%
D20*
%TO.C,R32*%
X182297500Y-100820000D03*
X184122500Y-100820000D03*
%TD*%
D21*
%TO.C,J12*%
X174510000Y-74170000D03*
X180710000Y-74170000D03*
D22*
X176360000Y-77370000D03*
X177610000Y-77370000D03*
X178860000Y-77370000D03*
%TD*%
D21*
%TO.C,J9*%
X183435000Y-74170000D03*
X188385000Y-74170000D03*
D22*
X185285000Y-77370000D03*
X186535000Y-77370000D03*
%TD*%
D23*
%TO.C,C5*%
X135760000Y-111820000D03*
X137660000Y-111820000D03*
%TD*%
D17*
%TO.C,C2*%
X185910000Y-108870000D03*
X185910000Y-110770000D03*
%TD*%
D24*
%TO.C,R14*%
X168010000Y-117345000D03*
X168010000Y-119170000D03*
%TD*%
%TO.C,R22*%
X174910000Y-92707500D03*
X174910000Y-94532500D03*
%TD*%
D25*
%TO.C,F1*%
X190910000Y-83220000D03*
X190910000Y-86020000D03*
%TD*%
D26*
%TO.C,L1*%
X183410000Y-103257500D03*
X183410000Y-105382500D03*
%TD*%
D20*
%TO.C,R31*%
X186397500Y-100820000D03*
X188222500Y-100820000D03*
%TD*%
D19*
%TO.C,D5*%
X168010000Y-115395000D03*
X168010000Y-113520000D03*
%TD*%
D27*
%TO.C,C6*%
X137660000Y-115120000D03*
X135760000Y-115120000D03*
%TD*%
D16*
%TO.C,SW1*%
X148760000Y-81320000D03*
X148760000Y-73320000D03*
X153260000Y-81320000D03*
X153260000Y-73320000D03*
%TD*%
D28*
%TO.C,Q3*%
X183910000Y-121820000D03*
X182010000Y-121820000D03*
X182960000Y-123695000D03*
%TD*%
D14*
%TO.C,J8*%
X158885000Y-131170000D03*
X153935000Y-131170000D03*
D15*
X157035000Y-127970000D03*
X155785000Y-127970000D03*
%TD*%
D19*
%TO.C,D7*%
X170410000Y-115395000D03*
X170410000Y-113520000D03*
%TD*%
D24*
%TO.C,R36*%
X159710000Y-121507500D03*
X159710000Y-123332500D03*
%TD*%
D28*
%TO.C,Q8*%
X174760000Y-113420000D03*
X172860000Y-113420000D03*
X173810000Y-115295000D03*
%TD*%
D24*
%TO.C,C21*%
X172010000Y-103307500D03*
X172010000Y-105132500D03*
%TD*%
D29*
%TO.C,D6*%
X186747500Y-81520000D03*
X184872500Y-81520000D03*
%TD*%
D23*
%TO.C,C10*%
X155660000Y-99320000D03*
X157560000Y-99320000D03*
%TD*%
D18*
%TO.C,R41*%
X152310000Y-118032500D03*
X152310000Y-116207500D03*
%TD*%
%TO.C,R6*%
X175010000Y-123532500D03*
X175010000Y-121707500D03*
%TD*%
D23*
%TO.C,C14*%
X190760000Y-105720000D03*
X192660000Y-105720000D03*
%TD*%
D30*
%TO.C,C20*%
X188310000Y-94670000D03*
X188310000Y-92770000D03*
%TD*%
D31*
%TO.C,D12*%
X181510000Y-113182500D03*
X181510000Y-115057500D03*
%TD*%
D18*
%TO.C,R25*%
X193710000Y-103732500D03*
X193710000Y-101907500D03*
%TD*%
D32*
%TO.C,Q9*%
X166972500Y-95270000D03*
X166972500Y-97170000D03*
X168847500Y-96220000D03*
%TD*%
D17*
%TO.C,C3*%
X145010000Y-75770000D03*
X145010000Y-77670000D03*
%TD*%
D24*
%TO.C,R13*%
X188010000Y-83907500D03*
X188010000Y-85732500D03*
%TD*%
%TO.C,C19*%
X174810000Y-103307500D03*
X174810000Y-105132500D03*
%TD*%
%TO.C,R5*%
X166710000Y-121507500D03*
X166710000Y-123332500D03*
%TD*%
D33*
%TO.C,U1*%
X187860000Y-105670000D03*
X187860000Y-105170000D03*
X187860000Y-104670000D03*
X187860000Y-104170000D03*
D34*
X187435000Y-103520000D03*
X186935000Y-103520000D03*
X186935000Y-106320000D03*
X187435000Y-106320000D03*
%TD*%
D17*
%TO.C,C1*%
X175610000Y-107370000D03*
X175610000Y-109270000D03*
%TD*%
D21*
%TO.C,J17*%
X165610000Y-74170000D03*
X171810000Y-74170000D03*
D22*
X167460000Y-77370000D03*
X168710000Y-77370000D03*
X169960000Y-77370000D03*
%TD*%
D32*
%TO.C,Q5*%
X183872500Y-83870000D03*
X183872500Y-85770000D03*
X185747500Y-84820000D03*
%TD*%
D35*
%TO.C,U6*%
X175280000Y-98220000D03*
X175280000Y-97720000D03*
X175280000Y-97220000D03*
X175280000Y-96720000D03*
X173310000Y-96720000D03*
X173310000Y-97220000D03*
X173310000Y-97720000D03*
X173310000Y-98220000D03*
%TD*%
D31*
%TO.C,D11*%
X149510000Y-121282500D03*
X149510000Y-123157500D03*
%TD*%
D24*
%TO.C,R1*%
X145010000Y-79907500D03*
X145010000Y-81732500D03*
%TD*%
D31*
%TO.C,D1*%
X184010000Y-113182500D03*
X184010000Y-115057500D03*
%TD*%
D24*
%TO.C,R39*%
X164610000Y-95207500D03*
X164610000Y-97032500D03*
%TD*%
D20*
%TO.C,R23*%
X188097500Y-109020000D03*
X189922500Y-109020000D03*
%TD*%
D36*
%TO.C,Y1*%
X165310000Y-90570000D03*
X165310000Y-93070000D03*
%TD*%
D19*
%TO.C,D8*%
X156110000Y-123257500D03*
X156110000Y-121382500D03*
%TD*%
D37*
%TO.C,U7*%
X186115000Y-95395000D03*
X184845000Y-95395000D03*
X183575000Y-95395000D03*
X182305000Y-95395000D03*
X182305000Y-90445000D03*
X183575000Y-90445000D03*
X184845000Y-90445000D03*
X186115000Y-90445000D03*
%TD*%
D20*
%TO.C,R29*%
X184997500Y-87820000D03*
X186822500Y-87820000D03*
%TD*%
D24*
%TO.C,R30*%
X190610000Y-101907500D03*
X190610000Y-103732500D03*
%TD*%
%TO.C,R12*%
X165310000Y-117407500D03*
X165310000Y-119232500D03*
%TD*%
D18*
%TO.C,R8*%
X163410000Y-123332500D03*
X163410000Y-121507500D03*
%TD*%
D14*
%TO.C,J10*%
X170010000Y-131120000D03*
X165060000Y-131120000D03*
D15*
X168160000Y-127920000D03*
X166910000Y-127920000D03*
%TD*%
D38*
%TO.C,R11*%
X176697500Y-118920000D03*
X174872500Y-118920000D03*
%TD*%
D31*
%TO.C,D3*%
X152610000Y-121382500D03*
X152610000Y-123257500D03*
%TD*%
D27*
%TO.C,C7*%
X137710000Y-118520000D03*
X135810000Y-118520000D03*
%TD*%
D28*
%TO.C,Q2*%
X171810000Y-121820000D03*
X169910000Y-121820000D03*
X170860000Y-123695000D03*
%TD*%
D19*
%TO.C,D9*%
X155910000Y-103657500D03*
X155910000Y-101782500D03*
%TD*%
D24*
%TO.C,R26*%
X162210000Y-95007500D03*
X162210000Y-96832500D03*
%TD*%
D39*
%TO.C,U5*%
X159765000Y-108841200D03*
X161035000Y-108841200D03*
X162305000Y-108841200D03*
X163575000Y-108841200D03*
X164845000Y-108841200D03*
X166115000Y-108841200D03*
X167385000Y-108841200D03*
X168655000Y-108841200D03*
X168655000Y-99798800D03*
X167385000Y-99798800D03*
X166115000Y-99798800D03*
X164845000Y-99798800D03*
X163575000Y-99798800D03*
X162305000Y-99798800D03*
X161035000Y-99798800D03*
X159765000Y-99798800D03*
%TD*%
D28*
%TO.C,Q10*%
X152660000Y-112082500D03*
X150760000Y-112082500D03*
X151710000Y-113957500D03*
%TD*%
D27*
%TO.C,C4*%
X169460000Y-92820000D03*
X167560000Y-92820000D03*
%TD*%
D17*
%TO.C,C12*%
X165310000Y-86970000D03*
X165310000Y-88870000D03*
%TD*%
D24*
%TO.C,R40*%
X171910000Y-92107500D03*
X171910000Y-93932500D03*
%TD*%
D17*
%TO.C,C15*%
X198810000Y-89220000D03*
X198810000Y-91120000D03*
%TD*%
D18*
%TO.C,R19*%
X171110000Y-101132500D03*
X171110000Y-99307500D03*
%TD*%
D24*
%TO.C,R15*%
X170410000Y-117345000D03*
X170410000Y-119170000D03*
%TD*%
D40*
%TO.C,D13*%
X186372500Y-98020000D03*
X188247500Y-98020000D03*
%TD*%
D24*
%TO.C,R21*%
X157610000Y-95020000D03*
X157610000Y-96845000D03*
%TD*%
D18*
%TO.C,R16*%
X186610000Y-115032500D03*
X186610000Y-113207500D03*
%TD*%
D41*
%TO.C,U8*%
X162273800Y-92325000D03*
X162273800Y-91055000D03*
X162273800Y-89785000D03*
X162273800Y-88515000D03*
X157346200Y-88515000D03*
X157346200Y-89785000D03*
X157346200Y-91055000D03*
X157346200Y-92325000D03*
%TD*%
D40*
%TO.C,D14*%
X182272500Y-98020000D03*
X184147500Y-98020000D03*
%TD*%
D19*
%TO.C,D10*%
X167910000Y-88757500D03*
X167910000Y-86882500D03*
%TD*%
D21*
%TO.C,J18*%
X156710000Y-74170000D03*
X162910000Y-74170000D03*
D22*
X158560000Y-77370000D03*
X159810000Y-77370000D03*
X161060000Y-77370000D03*
%TD*%
D42*
%TO.C,J15*%
X155585000Y-85320000D03*
X163035000Y-85320000D03*
D22*
X157435000Y-81970000D03*
X158685000Y-81970000D03*
X159935000Y-81970000D03*
X161185000Y-81970000D03*
%TD*%
D14*
%TO.C,J19*%
X147285000Y-130970000D03*
X142335000Y-130970000D03*
D15*
X145435000Y-127770000D03*
X144185000Y-127770000D03*
%TD*%
D38*
%TO.C,R10*%
X156522500Y-111920000D03*
X154697500Y-111920000D03*
%TD*%
D18*
%TO.C,R17*%
X170910000Y-97332500D03*
X170910000Y-95507500D03*
%TD*%
D24*
%TO.C,R20*%
X159910000Y-95020000D03*
X159910000Y-96845000D03*
%TD*%
%TO.C,C17*%
X180310000Y-103307500D03*
X180310000Y-105132500D03*
%TD*%
D18*
%TO.C,R9*%
X178610000Y-123632500D03*
X178610000Y-121807500D03*
%TD*%
D43*
%TO.C,U3*%
X196010000Y-89720000D03*
X193710000Y-89720000D03*
D44*
X193710000Y-96020000D03*
D43*
X191410000Y-89720000D03*
%TD*%
D24*
%TO.C,C18*%
X177510000Y-103307500D03*
X177510000Y-105132500D03*
%TD*%
D17*
%TO.C,C8*%
X179010000Y-107370000D03*
X179010000Y-109270000D03*
%TD*%
D45*
%TO.C,J16*%
X148660000Y-113120000D03*
X139960000Y-113120000D03*
D15*
X146810000Y-116470000D03*
X145560000Y-116470000D03*
X144310000Y-116470000D03*
X143060000Y-116470000D03*
X141810000Y-116470000D03*
%TD*%
D20*
%TO.C,R24*%
X188097500Y-111220000D03*
X189922500Y-111220000D03*
%TD*%
D27*
%TO.C,C9*%
X169460000Y-90720000D03*
X167560000Y-90720000D03*
%TD*%
D18*
%TO.C,R35*%
X163210000Y-115332500D03*
X163210000Y-113507500D03*
%TD*%
D24*
%TO.C,R37*%
X155910000Y-105607500D03*
X155910000Y-107432500D03*
%TD*%
D46*
%TO.C,Q6*%
X160647500Y-115370000D03*
X160647500Y-113470000D03*
X158772500Y-114420000D03*
%TD*%
D19*
%TO.C,D4*%
X165310000Y-115457500D03*
X165310000Y-113582500D03*
%TD*%
D46*
%TO.C,Q7*%
X178910000Y-115070000D03*
X178910000Y-113170000D03*
X177035000Y-114120000D03*
%TD*%
D28*
%TO.C,Q4*%
X156660000Y-114645000D03*
X154760000Y-114645000D03*
X155710000Y-116520000D03*
%TD*%
D30*
%TO.C,C16*%
X198810000Y-95220000D03*
X198810000Y-93320000D03*
%TD*%
M02*
