%TF.GenerationSoftware,KiCad,Pcbnew,8.0.3*%
%TF.CreationDate,2024-06-22T21:39:14+05:00*%
%TF.ProjectId,Capibator_PCB,43617069-6261-4746-9f72-5f5043422e6b,1.1*%
%TF.SameCoordinates,Original*%
%TF.FileFunction,Copper,L2,Bot*%
%TF.FilePolarity,Positive*%
%FSLAX46Y46*%
G04 Gerber Fmt 4.6, Leading zero omitted, Abs format (unit mm)*
G04 Created by KiCad (PCBNEW 8.0.3) date 2024-06-22 21:39:14*
%MOMM*%
%LPD*%
G01*
G04 APERTURE LIST*
G04 Aperture macros list*
%AMRoundRect*
0 Rectangle with rounded corners*
0 $1 Rounding radius*
0 $2 $3 $4 $5 $6 $7 $8 $9 X,Y pos of 4 corners*
0 Add a 4 corners polygon primitive as box body*
4,1,4,$2,$3,$4,$5,$6,$7,$8,$9,$2,$3,0*
0 Add four circle primitives for the rounded corners*
1,1,$1+$1,$2,$3*
1,1,$1+$1,$4,$5*
1,1,$1+$1,$6,$7*
1,1,$1+$1,$8,$9*
0 Add four rect primitives between the rounded corners*
20,1,$1+$1,$2,$3,$4,$5,0*
20,1,$1+$1,$4,$5,$6,$7,0*
20,1,$1+$1,$6,$7,$8,$9,0*
20,1,$1+$1,$8,$9,$2,$3,0*%
G04 Aperture macros list end*
%TA.AperFunction,ComponentPad*%
%ADD10O,5.000000X2.500000*%
%TD*%
%TA.AperFunction,ComponentPad*%
%ADD11O,4.500000X2.250000*%
%TD*%
%TA.AperFunction,ComponentPad*%
%ADD12O,2.250000X4.500000*%
%TD*%
%TA.AperFunction,HeatsinkPad*%
%ADD13C,0.600000*%
%TD*%
%TA.AperFunction,ComponentPad*%
%ADD14R,3.960000X1.980000*%
%TD*%
%TA.AperFunction,ComponentPad*%
%ADD15O,3.960000X1.980000*%
%TD*%
%TA.AperFunction,ComponentPad*%
%ADD16R,1.700000X1.700000*%
%TD*%
%TA.AperFunction,ComponentPad*%
%ADD17O,1.700000X1.700000*%
%TD*%
%TA.AperFunction,ComponentPad*%
%ADD18C,1.608000*%
%TD*%
%TA.AperFunction,ComponentPad*%
%ADD19RoundRect,0.250000X-0.750000X0.600000X-0.750000X-0.600000X0.750000X-0.600000X0.750000X0.600000X0*%
%TD*%
%TA.AperFunction,ComponentPad*%
%ADD20O,2.000000X1.700000*%
%TD*%
%TA.AperFunction,ComponentPad*%
%ADD21R,2.000000X2.000000*%
%TD*%
%TA.AperFunction,ComponentPad*%
%ADD22C,2.000000*%
%TD*%
%TA.AperFunction,ViaPad*%
%ADD23C,0.800000*%
%TD*%
%TA.AperFunction,Conductor*%
%ADD24C,0.250000*%
%TD*%
%TA.AperFunction,Conductor*%
%ADD25C,0.500000*%
%TD*%
%TA.AperFunction,Conductor*%
%ADD26C,1.000000*%
%TD*%
G04 APERTURE END LIST*
D10*
%TO.P,J5,1*%
%TO.N,Net-(F1-Pad1)*%
X201900000Y-85600000D03*
D11*
%TO.P,J5,2*%
%TO.N,GND*%
X201900000Y-79600000D03*
D12*
%TO.P,J5,3*%
X197200000Y-82600000D03*
%TD*%
D13*
%TO.P,U2,39,GND*%
%TO.N,GND*%
X142477500Y-101875000D03*
X144002500Y-101875000D03*
X141715000Y-101112500D03*
X143240000Y-101112500D03*
X144765000Y-101112500D03*
X142477500Y-100350000D03*
X144002500Y-100350000D03*
X141715000Y-99587500D03*
X143240000Y-99587500D03*
X144765000Y-99587500D03*
X142477500Y-98825000D03*
X144002500Y-98825000D03*
%TD*%
D14*
%TO.P,J4,1,Pin_1*%
%TO.N,Net-(J4-Pin_1)*%
X215510000Y-87475000D03*
D15*
%TO.P,J4,2,Pin_2*%
X215510000Y-92475000D03*
%TD*%
D16*
%TO.P,J1,1,Pin_1*%
%TO.N,/MCU/GPIO0*%
X137370000Y-85120000D03*
D17*
%TO.P,J1,2,Pin_2*%
%TO.N,/MCU/TX*%
X139910000Y-85120000D03*
%TO.P,J1,3,Pin_3*%
%TO.N,/MCU/RX*%
X142450000Y-85120000D03*
%TO.P,J1,4,Pin_4*%
%TO.N,+3.3V*%
X144990000Y-85120000D03*
%TO.P,J1,5,Pin_5*%
%TO.N,/MCU/RESET*%
X147530000Y-85120000D03*
%TO.P,J1,6,Pin_6*%
%TO.N,GND*%
X150070000Y-85120000D03*
%TD*%
D18*
%TO.P,U9,1,1*%
%TO.N,Net-(Q3-D)*%
X206460000Y-107970000D03*
%TO.P,U9,2,2*%
%TO.N,Net-(J3-Pin_2)*%
X206460000Y-96470000D03*
%TO.P,U9,3,3*%
%TO.N,Net-(J3-Pin_1)*%
X206460000Y-89470000D03*
%TO.P,U9,4,4*%
%TO.N,+12V*%
X201760000Y-107970000D03*
%TD*%
D19*
%TO.P,J14,1*%
%TO.N,GND*%
X178910000Y-95820000D03*
D20*
%TO.P,J14,2*%
%TO.N,MCU_BAT*%
X178910000Y-98320000D03*
%TD*%
D14*
%TO.P,J6,1,Pin_1*%
%TO.N,Net-(J6-Pin_1)*%
X215510000Y-111955000D03*
D15*
%TO.P,J6,2,Pin_2*%
X215510000Y-116955000D03*
%TD*%
D21*
%TO.P,BZ1,1,-*%
%TO.N,+12V*%
X175410000Y-89320000D03*
D22*
%TO.P,BZ1,2,+*%
%TO.N,Net-(BZ1-+)*%
X175410000Y-81720000D03*
%TD*%
D18*
%TO.P,K1,1,1*%
%TO.N,Net-(Q2-D)*%
X206260000Y-130970000D03*
%TO.P,K1,2,2*%
%TO.N,Net-(J4-Pin_1)*%
X206260000Y-119470000D03*
%TO.P,K1,3,3*%
%TO.N,Net-(J6-Pin_1)*%
X206260000Y-112470000D03*
%TO.P,K1,4,4*%
%TO.N,+12V*%
X201560000Y-130970000D03*
%TD*%
D14*
%TO.P,J7,1,Pin_1*%
%TO.N,Net-(J6-Pin_1)*%
X215510000Y-124195000D03*
D15*
%TO.P,J7,2,Pin_2*%
X215510000Y-129195000D03*
%TD*%
D14*
%TO.P,J3,1,Pin_1*%
%TO.N,Net-(J3-Pin_1)*%
X215510000Y-75235000D03*
D15*
%TO.P,J3,2,Pin_2*%
%TO.N,Net-(J3-Pin_2)*%
X215510000Y-80235000D03*
%TD*%
D14*
%TO.P,J5,1,Pin_1*%
%TO.N,Net-(J4-Pin_1)*%
X215510000Y-99715000D03*
D15*
%TO.P,J5,2,Pin_2*%
X215510000Y-104715000D03*
%TD*%
D23*
%TO.N,GND*%
X188510000Y-107120000D03*
X191410000Y-107320000D03*
%TO.N,+3.3V*%
X155810000Y-81520000D03*
%TO.N,+5V*%
X188110000Y-96020000D03*
X181510000Y-92820000D03*
%TO.N,/MCU/SDA*%
X173210000Y-99220000D03*
X170510000Y-104120000D03*
%TO.N,/MCU/GPIO0*%
X154910000Y-80345000D03*
X155110000Y-77620000D03*
%TO.N,GND*%
X148760000Y-78120000D03*
X157110000Y-100920000D03*
X157610000Y-107432500D03*
%TO.N,/MCU/RESET*%
X143310000Y-76520000D03*
X143410000Y-79907500D03*
%TO.N,Net-(BZ1-+)*%
X170910000Y-90720000D03*
X170760000Y-86470000D03*
%TO.N,GND*%
X188410000Y-89120000D03*
X183010000Y-88120000D03*
%TO.N,Net-(J4-Pin_1)*%
X218010000Y-107820000D03*
X219810000Y-99420000D03*
%TO.N,Net-(D8-A)*%
X154910000Y-120120000D03*
X159710000Y-120120000D03*
%TO.N,GND*%
X174385000Y-110495000D03*
%TO.N,/MCU/FAN_CON_PIN*%
X181510000Y-86620000D03*
%TO.N,+3.3V*%
X137510000Y-106920000D03*
X157610000Y-103420000D03*
%TO.N,GND*%
X163410000Y-93820000D03*
X160310000Y-89720000D03*
%TO.N,+3.3V*%
X171410000Y-89720000D03*
X168310000Y-85420000D03*
X176610000Y-92720000D03*
X176910000Y-99020000D03*
%TO.N,GND*%
X172410000Y-95420000D03*
X174010000Y-101220000D03*
X174010000Y-106520000D03*
%TO.N,+5V*%
X193710000Y-93220000D03*
X193710000Y-87420000D03*
%TO.N,+12V*%
X201710000Y-96320000D03*
X195410000Y-92520000D03*
%TO.N,+3.3V*%
X177172347Y-78882347D03*
X168610000Y-79020000D03*
X159935000Y-80420000D03*
%TO.N,/MCU/RESET*%
X146410000Y-87620000D03*
X138510000Y-106320000D03*
%TO.N,/MCU/GPIO0*%
X153410000Y-83320000D03*
X150910000Y-92720000D03*
%TO.N,/MCU/SCL*%
X138810000Y-92620000D03*
X153810000Y-88020000D03*
%TO.N,GND*%
X163210000Y-79420000D03*
X161060000Y-79520000D03*
%TO.N,/MCU/SCL*%
X154610000Y-89920000D03*
X162305000Y-102120000D03*
%TO.N,Buck_In*%
X178810000Y-111420000D03*
X172310000Y-111120000D03*
%TO.N,+12V*%
X188310000Y-116020000D03*
X195510000Y-127720000D03*
X190210000Y-87520000D03*
X189110000Y-82520000D03*
%TO.N,Net-(Q2-D)*%
X183410000Y-125820000D03*
X172710000Y-124095000D03*
%TO.N,Net-(J2-Pin_2)*%
X176010000Y-116320000D03*
X176910000Y-123720000D03*
%TO.N,Net-(Q2-S)*%
X169310000Y-125720000D03*
X169410000Y-123920000D03*
%TO.N,GND*%
X157910000Y-112520000D03*
X154535000Y-116920000D03*
X153085000Y-113520000D03*
%TO.N,/MCU/heater*%
X166710000Y-120120000D03*
X151610000Y-119220000D03*
%TO.N,/MCU/MIST_PIN*%
X157610000Y-110620000D03*
X154810000Y-110420000D03*
%TO.N,/MCU/WATER_PUMP_PIN*%
X152810000Y-114720000D03*
X150560000Y-115420000D03*
%TO.N,Net-(D11-A)*%
X151110000Y-122820000D03*
X151110000Y-120220000D03*
%TO.N,MCU_BAT*%
X178010000Y-101820000D03*
X177210000Y-110220000D03*
%TO.N,GND*%
X155310000Y-97720000D03*
X146210000Y-99520000D03*
%TO.N,/MCU/FAN_CON_PIN*%
X164810000Y-102020000D03*
X188610000Y-87020000D03*
X185710000Y-86320000D03*
%TO.N,/MCU/SDA*%
X155410000Y-88381700D03*
X156210000Y-95120000D03*
%TO.N,+3.3V*%
X159510000Y-91620000D03*
%TO.N,/MCU/GPIO0*%
X137410000Y-92520000D03*
X137410000Y-88020000D03*
%TD*%
D24*
%TO.N,GND*%
X188510000Y-107120000D02*
X191210000Y-107120000D01*
X191210000Y-107120000D02*
X191410000Y-107320000D01*
%TO.N,+3.3V*%
X144990000Y-85120000D02*
X148515000Y-81595000D01*
X148515000Y-81595000D02*
X155735000Y-81595000D01*
X155735000Y-81595000D02*
X155810000Y-81520000D01*
X155810000Y-81520000D02*
X155935305Y-81520000D01*
X155935305Y-81520000D02*
X159510000Y-85094695D01*
X159510000Y-85094695D02*
X159510000Y-91620000D01*
%TO.N,+5V*%
X181510000Y-92820000D02*
X184910000Y-92820000D01*
X184910000Y-92820000D02*
X188110000Y-96020000D01*
%TO.N,/MCU/SDA*%
X170510000Y-104120000D02*
X170510000Y-101920000D01*
X170510000Y-101920000D02*
X173210000Y-99220000D01*
%TO.N,/MCU/SCL*%
X162305000Y-102120000D02*
X159610000Y-102120000D01*
X159610000Y-102120000D02*
X159510000Y-102020000D01*
X159510000Y-102020000D02*
X159510000Y-99445305D01*
X154610000Y-94545305D02*
X154610000Y-89920000D01*
X159510000Y-99445305D02*
X154610000Y-94545305D01*
%TO.N,/MCU/GPIO0*%
X155110000Y-80145000D02*
X154910000Y-80345000D01*
X155110000Y-77620000D02*
X155110000Y-80145000D01*
%TO.N,GND*%
X150070000Y-85120000D02*
X148895000Y-86295000D01*
X143815000Y-85606701D02*
X143815000Y-83065000D01*
X148895000Y-86295000D02*
X144503299Y-86295000D01*
X144503299Y-86295000D02*
X143815000Y-85606701D01*
X143815000Y-83065000D02*
X148760000Y-78120000D01*
X157110000Y-100920000D02*
X158335000Y-102145000D01*
X158335000Y-102145000D02*
X158335000Y-106707500D01*
X158335000Y-106707500D02*
X157610000Y-107432500D01*
%TO.N,+3.3V*%
X157610000Y-103420000D02*
X155110000Y-103420000D01*
X155110000Y-103420000D02*
X151485000Y-107045000D01*
X151485000Y-107045000D02*
X137635000Y-107045000D01*
X137635000Y-107045000D02*
X137510000Y-106920000D01*
%TO.N,/MCU/RESET*%
X143110000Y-82620000D02*
X143310000Y-82420000D01*
X143310000Y-82420000D02*
X143310000Y-80007500D01*
X140748299Y-82620000D02*
X143110000Y-82620000D01*
X138610000Y-84758299D02*
X140748299Y-82620000D01*
X138610000Y-87295000D02*
X138610000Y-84758299D01*
X143310000Y-80007500D02*
X143410000Y-79907500D01*
X138610000Y-87295000D02*
X146085000Y-87295000D01*
X137109695Y-87295000D02*
X138610000Y-87295000D01*
D25*
X143310000Y-79807500D02*
X143410000Y-79907500D01*
X143310000Y-76520000D02*
X143310000Y-79807500D01*
D24*
%TO.N,Net-(BZ1-+)*%
X170910000Y-90720000D02*
X171435305Y-90720000D01*
X171435305Y-90720000D02*
X172135000Y-90020305D01*
X172135000Y-90020305D02*
X172135000Y-87845000D01*
X172135000Y-87845000D02*
X170760000Y-86470000D01*
%TO.N,GND*%
X183010000Y-88120000D02*
X187410000Y-88120000D01*
X187410000Y-88120000D02*
X188410000Y-89120000D01*
D26*
%TO.N,Net-(J4-Pin_1)*%
X215510000Y-92475000D02*
X215510000Y-87475000D01*
X215510000Y-99715000D02*
X215510000Y-92475000D01*
X219810000Y-99420000D02*
X215805000Y-99420000D01*
X215805000Y-99420000D02*
X215510000Y-99715000D01*
X215510000Y-105320000D02*
X218010000Y-107820000D01*
X215510000Y-104715000D02*
X215510000Y-105320000D01*
%TO.N,Net-(J6-Pin_1)*%
X215510000Y-124195000D02*
X215510000Y-129195000D01*
X215510000Y-116955000D02*
X215510000Y-124195000D01*
X215510000Y-111955000D02*
X215510000Y-116955000D01*
D24*
%TO.N,Net-(D8-A)*%
X154910000Y-120120000D02*
X159710000Y-120120000D01*
%TO.N,GND*%
X174010000Y-106520000D02*
X174010000Y-109320000D01*
X174010000Y-109320000D02*
X174385000Y-109695000D01*
X174385000Y-109695000D02*
X174385000Y-110495000D01*
%TO.N,/MCU/FAN_CON_PIN*%
X177485000Y-90645000D02*
X181510000Y-86620000D01*
X176159695Y-90645000D02*
X177485000Y-90645000D01*
X164810000Y-101994695D02*
X176159695Y-90645000D01*
X164810000Y-102020000D02*
X164810000Y-101994695D01*
%TO.N,GND*%
X160510000Y-90920000D02*
X163410000Y-93820000D01*
X160310000Y-89720000D02*
X160510000Y-89920000D01*
X160510000Y-89920000D02*
X160510000Y-90920000D01*
%TO.N,+3.3V*%
X171410000Y-89720000D02*
X171410000Y-88520000D01*
X171410000Y-88520000D02*
X168310000Y-85420000D01*
X177980100Y-92720000D02*
X176610000Y-92720000D01*
X180235000Y-96665100D02*
X180235000Y-94974900D01*
X179905100Y-96995000D02*
X180235000Y-96665100D01*
X177360000Y-98570000D02*
X177360000Y-97549900D01*
X177914900Y-96995000D02*
X179905100Y-96995000D01*
X177360000Y-97549900D02*
X177914900Y-96995000D01*
X176910000Y-99020000D02*
X177360000Y-98570000D01*
X180235000Y-94974900D02*
X177980100Y-92720000D01*
%TO.N,GND*%
X172810000Y-95820000D02*
X172410000Y-95420000D01*
X178910000Y-95820000D02*
X172810000Y-95820000D01*
X174010000Y-106520000D02*
X174010000Y-101220000D01*
%TO.N,+5V*%
X193710000Y-87420000D02*
X193710000Y-93220000D01*
%TO.N,+12V*%
X199210000Y-96320000D02*
X201710000Y-96320000D01*
X195410000Y-92520000D02*
X199210000Y-96320000D01*
%TO.N,+3.3V*%
X177034694Y-79020000D02*
X177172347Y-78882347D01*
X168610000Y-79020000D02*
X177034694Y-79020000D01*
X167210000Y-80420000D02*
X168610000Y-79020000D01*
X159935000Y-80420000D02*
X167210000Y-80420000D01*
%TO.N,/MCU/RESET*%
X138510000Y-106320000D02*
X136685000Y-104495000D01*
X136685000Y-87719695D02*
X137109695Y-87295000D01*
X136685000Y-104495000D02*
X136685000Y-87719695D01*
X146085000Y-87295000D02*
X146410000Y-87620000D01*
%TO.N,/MCU/GPIO0*%
X153410000Y-87394695D02*
X153410000Y-83320000D01*
X150910000Y-89894695D02*
X153410000Y-87394695D01*
X150910000Y-92720000D02*
X150910000Y-89894695D01*
%TO.N,/MCU/SCL*%
X138810000Y-94020000D02*
X138810000Y-92620000D01*
X139710000Y-94920000D02*
X138810000Y-94020000D01*
X154610000Y-91120000D02*
X151810000Y-93920000D01*
X151810000Y-93920000D02*
X150810000Y-94920000D01*
X154610000Y-89920000D02*
X154610000Y-91120000D01*
X150810000Y-94920000D02*
X139710000Y-94920000D01*
X153810000Y-89120000D02*
X154610000Y-89920000D01*
X153810000Y-88020000D02*
X153810000Y-89120000D01*
%TO.N,GND*%
X163210000Y-79420000D02*
X161160000Y-79420000D01*
X161160000Y-79420000D02*
X161060000Y-79520000D01*
%TO.N,Buck_In*%
X172310000Y-111120000D02*
X172610000Y-111420000D01*
X172610000Y-111420000D02*
X178810000Y-111420000D01*
%TO.N,+12V*%
X195510000Y-123220000D02*
X188310000Y-116020000D01*
X195510000Y-127720000D02*
X195510000Y-123220000D01*
D26*
%TO.N,Net-(J6-Pin_1)*%
X206260000Y-112470000D02*
X207910000Y-110820000D01*
X208810000Y-105920000D02*
X212310000Y-102420000D01*
X219610000Y-109620000D02*
X217275000Y-111955000D01*
X207910000Y-110820000D02*
X207910000Y-109520000D01*
X207910000Y-109520000D02*
X208810000Y-108620000D01*
X217275000Y-111955000D02*
X215510000Y-111955000D01*
X208810000Y-108620000D02*
X208810000Y-105920000D01*
X212310000Y-102420000D02*
X218410000Y-102420000D01*
X218410000Y-102420000D02*
X219610000Y-103620000D01*
X219610000Y-103620000D02*
X219610000Y-109620000D01*
%TO.N,Net-(J4-Pin_1)*%
X206260000Y-119470000D02*
X212830000Y-112900000D01*
X212830000Y-112900000D02*
X212830000Y-107395000D01*
X212830000Y-107395000D02*
X215510000Y-104715000D01*
%TO.N,Net-(J3-Pin_2)*%
X212310000Y-90620000D02*
X212310000Y-82520000D01*
X206460000Y-96470000D02*
X212310000Y-90620000D01*
X213925000Y-81820000D02*
X215510000Y-80235000D01*
X212310000Y-82520000D02*
X213010000Y-81820000D01*
X213010000Y-81820000D02*
X213925000Y-81820000D01*
%TO.N,Net-(J3-Pin_1)*%
X210710000Y-85220000D02*
X210710000Y-76220000D01*
X211695000Y-75235000D02*
X215510000Y-75235000D01*
X206460000Y-89470000D02*
X210710000Y-85220000D01*
X210710000Y-76220000D02*
X211695000Y-75235000D01*
D24*
%TO.N,+12V*%
X189110000Y-86420000D02*
X190210000Y-87520000D01*
X189110000Y-82520000D02*
X189110000Y-86420000D01*
%TO.N,Net-(Q2-D)*%
X174435000Y-125820000D02*
X183410000Y-125820000D01*
X172710000Y-124095000D02*
X174435000Y-125820000D01*
%TO.N,Net-(J2-Pin_2)*%
X176910000Y-117220000D02*
X176010000Y-116320000D01*
X176910000Y-123720000D02*
X176910000Y-117220000D01*
%TO.N,Net-(Q2-S)*%
X169310000Y-124020000D02*
X169410000Y-123920000D01*
X169310000Y-125720000D02*
X169310000Y-124020000D01*
%TO.N,GND*%
X157910000Y-112520000D02*
X154535000Y-115895000D01*
X154535000Y-115895000D02*
X154535000Y-116920000D01*
X153085000Y-113520000D02*
X154535000Y-114970000D01*
X154535000Y-114970000D02*
X154535000Y-116920000D01*
%TO.N,/MCU/heater*%
X151710000Y-119320000D02*
X165910000Y-119320000D01*
X165910000Y-119320000D02*
X166710000Y-120120000D01*
X151610000Y-119220000D02*
X151710000Y-119320000D01*
%TO.N,/MCU/MIST_PIN*%
X154810000Y-110420000D02*
X157410000Y-110420000D01*
X157410000Y-110420000D02*
X157610000Y-110620000D01*
%TO.N,/MCU/WATER_PUMP_PIN*%
X152110000Y-115420000D02*
X152810000Y-114720000D01*
X150560000Y-115420000D02*
X152110000Y-115420000D01*
%TO.N,Net-(D11-A)*%
X151110000Y-120220000D02*
X151110000Y-122820000D01*
%TO.N,MCU_BAT*%
X177210000Y-110220000D02*
X177210000Y-102620000D01*
X177210000Y-102620000D02*
X178010000Y-101820000D01*
%TO.N,GND*%
X155310000Y-97720000D02*
X155010000Y-98020000D01*
X147710000Y-98020000D02*
X146210000Y-99520000D01*
X155010000Y-98020000D02*
X147710000Y-98020000D01*
%TO.N,/MCU/FAN_CON_PIN*%
X188310000Y-86720000D02*
X188610000Y-87020000D01*
X186110000Y-86720000D02*
X188310000Y-86720000D01*
X185710000Y-86320000D02*
X186110000Y-86720000D01*
%TO.N,/MCU/SDA*%
X155410000Y-88381700D02*
X155410000Y-94320000D01*
X155410000Y-94320000D02*
X156210000Y-95120000D01*
%TO.N,/MCU/GPIO0*%
X137410000Y-88020000D02*
X137410000Y-92520000D01*
%TD*%
M02*
